<?xml version="1.0" encoding="utf-8"?>
<!-- Generator: Adobe Illustrator 19.2.0, SVG Export Plug-In . SVG Version: 6.00 Build 0)  -->
<svg version="1.1" id="Layer_1" xmlns="http://www.w3.org/2000/svg" xmlns:xlink="http://www.w3.org/1999/xlink" x="0px" y="0px"
	 viewBox="0 0 1150.4 246.8" style="enable-background:new 0 0 1150.4 246.8;" xml:space="preserve">
<style type="text/css">
	.st0{fill:#603A17;}
	.st1{fill:#FCB817;}
	.st2{fill:#231F20;}
	.st3{fill:#603A17;stroke:#603A17;stroke-width:0.25;}
</style>
<g>
	<g>
		<path class="st0" d="M298.8,129.9c0-0.3,0.7-1.5,1.9-3.6l0.7-2c1.6-1.9,2.5-3,2.5-3.1c0.1-0.1,0.2-0.7,0.3-1.6
			c0.3,0,0.6-0.1,0.9-0.1c0.4,0,0.7,0.1,0.9,0.3c0.4,0.4,0.8,0.9,1.2,1.4l1.1,1.8l-0.3,2.1l0.5,1.8l-0.2,2c0.6,2,1.3,3.6,2.2,4.7
			l1.4-0.5h0.1c0.1,0,0.3,0.1,0.5,0.2c0.2,0.1,0.7,1.2,1.3,3.4c0.2,0.8,0.7,1.4,1.4,2c2.6,2.2,4.2,3.4,4.9,3.8l8.6,3.4l2.4,1.5
			c1.6,0.2,2.6,0.4,2.9,0.5c0.2,0.1,1.3,0.6,3.2,1.4c5.6,1.1,8.8,1.7,9.8,1.8l7.5,0.3c0.9,0,2.1,0.1,3.5,0.1c0.7,0,1.1,0,1.4-0.1
			c0.5-0.1,0.8-0.2,0.9-0.2l2,0.5c0.8-0.3,2.8-0.7,6.1-1.2c0.4,0,1.1,0.3,2.2,0.7c0.5,0,0.8,0.1,0.9,0.1c0.5,0,1.1-0.6,1.8-1.7
			c0.2-0.3,0.5-0.5,0.9-0.5c0.3,0,0.6,0,1,0.1c0.3,0,0.6,0.1,0.9,0.1c0.1,0,1.8-0.5,4.9-1.6l1.7-0.1l2.6-1.2c3.4-1,5.4-1.8,6.2-2.2
			c0.5-0.3,2.1-1.3,4.8-3c1.8-1.6,2.9-2.5,3.3-2.8c0.3-0.3,1.2-1.6,2.7-3.8l1.5-1.2l1.3-2.2c0.7-0.9,1.2-1.5,1.3-1.8
			c0.1-0.1,0.2-0.7,0.3-1.6c-0.1-0.4,0.5-1.7,2-3.9c0.3-0.5,0.5-1.2,0.7-2.1c1.2-0.1,2-0.2,2.4-0.5c0.4-0.2,0.7-0.8,0.9-1.8
			l-0.3-0.3h-1.4l0.9-2.9c-0.6-0.7-0.9-1.2-0.9-1.6c0-0.2,0.3-0.8,0.9-1.8c0.3-0.6,0.5-1.8,0.8-3.7c0.9-2.8,1.4-4.4,1.4-5
			c0-1.2,0.1-2.4,0.3-3.7h1.5v-1l-2.2,0.3c-0.3-1.5-1.2-4.5-2.8-9l1.1-1.3l-0.3-0.7c1.1,0,2,0.1,2.5,0.1c3.3,0,4.9-0.4,4.9-1.1
			c0-0.9-2.6-1.4-7.9-1.4c-0.4,0.9-0.9,1.4-1.6,1.4c-0.2,0-0.7-0.3-1.4-0.9c-0.3-0.2-2.1-1-5.3-2.4c-1.2-0.8-2.1-1.2-2.8-1.4
			c-1.4-0.4-3.2-0.8-5.5-1.1l-1.6-0.5c-2.3-0.8-3.6-1.2-3.8-1.2c0,0-0.1,0-0.2,0v-0.1l-0.3-0.2l-0.1,0.3c-0.2,0.3-0.3,0.5-0.3,0.5
			l-5.3-1.2l-1.1,0.3c-1.9,0.3-3,0.4-3.3,0.4c-0.3,0-0.6-0.2-1-0.5c-0.1-0.9-0.7-1.4-1.6-1.4c-0.4,0-1.1,0.4-2.1,1.3
			c-0.3,0.3-0.8,0.4-1.5,0.4c-0.5,0-1.1,0-2-0.1c-0.9-0.1-1.5-0.1-1.7-0.1c-3,0-4.5,0-4.5-0.1l-3-5c-0.3-0.5-0.7-0.8-1.1-0.8
			c-1.1,0-2.2,1.9-3.5,5.7c-0.1-3.4-0.6-5.5-1.4-6.4c-0.2-0.2-0.5-0.4-0.8-0.5l-0.9-0.5c-3.4,4.9-5.2,7.3-5.4,7.3l-2.8-0.9
			c-2.3-0.3-3.8-0.6-4.7-1c-1.2-0.6-1.9-0.9-1.9-0.9l-1.7-0.2l-0.8-0.1h-1.8l-1.8-0.9c-2.8-1.2-4.5-2.1-5.4-2.7
			c-1.8-1.4-3.5-3.5-5.4-6.4c-1-1.6-1.5-3-1.5-4c0-0.5,0.1-1.1,0.2-1.9c-0.9-1.1-1.4-2.1-1.4-3.1c0.8-0.8,1.2-1.3,1.2-1.5l0.5-4.1
			c1-2.3,1.6-3.6,1.8-3.7c1.9-2.2,3.9-4.3,5.8-6.4l2.8-2l3.5-2.8l2.2-1l2.4-1.2l10.6-4.5c2.3-1.2,3.9-1.9,4.8-2.2
			c2.8-0.9,5-1.6,6.6-2l8.7-2.3l2.4-0.5l12.4-1.2l5.6-0.5c0,0,1,0.1,2.8,0.2l3.5,0.3l1.8,0.5c1.9,0.3,4.6,0.9,8.1,1.8l0.5,2.5
			c-1.1,0.8-1.8,1.3-2.2,1.6c-0.7,0.5-1.1,0.8-1.3,0.9c-0.8,0.6-1.4,1-1.8,1.2c-1-0.5-1.7-0.8-2-0.9h-2.1l-3.9-1.3l-2.4,0.1
			c-0.1,0-0.8-0.7-1.9-2.2c-1-1.4-2.6-2.1-4.5-2.1c-1.8,0-3.1,0.4-3.9,1.2c-0.5,0.5-1.1,1.3-1.8,2.6c-0.6-0.6-1-0.9-1.3-0.9H377
			c-1.9,0-3.7,0.3-5.4,1l-6.3,1.2l-5.6,1.8c-1.7-0.4-2.6-0.6-2.8-0.6c-0.5,0-1.4,0.2-2.6,0.7v1.6l-7,2.6l-0.7,1.3
			c-2.8,0.4-4.9,1.6-6.4,3.5c-0.7-0.2-1.3-0.3-1.8-0.3c-0.9,0-1.6,0.7-2.4,2.2c-1.9,0.6-3.5,1.8-4.9,3.5c-2,2.6-3,5-3,7.1
			c0,1,0.2,2.6,0.5,4.7c0.1,1,0.7,2,1.8,2.9c2.5,2.3,4.3,3.6,5.2,3.9l3.2,0.9c2.3,0.8,3.8,2.2,4.5,4.2c0,0.1,0.3,0.2,0.8,0.5
			c0.5,0.3,0.9,0.4,1.4,0.4c0.1,0,0.6-0.2,1.4-0.5c0.1,0,0.3-0.1,0.5-0.1c0.3,0,0.6,0,0.9,0.1c0-0.8,0.2-1.5,0.5-2
			c0.7,0.3,1.2,0.4,1.3,0.4l3.2-0.4l5.2,1.1l1.7-0.2c0.3,0,0.5-0.1,0.7-0.1c0.9,0,2.6,0.3,4.9,0.9l0.3,1.9c0.8,0.2,1.4,0.3,1.8,0.3
			c0.2,0,0.5,0,0.9-0.1c-0.5-0.5-0.7-0.9-0.7-1.2c0-0.5,0.4-0.8,1.2-0.8l2.3,0.1h15.5c0.3,0.3,0.5,0.6,0.5,0.9c0,0.5-0.1,1-0.4,1.6
			c0.7,0.7,1.2,1.1,1.5,1.1c0.4,0,1.1-0.6,1.8-1.7c0.6,0.2,1.1,0.3,1.4,0.3c0.1,0,1.3-0.5,3.5-1.4c0.8,0.2,1.3,0.4,1.4,0.4
			c2.9,0.4,4.8,0.8,5.7,1.2l2.5,1.3l8.4,2.7c0.1,0,0.6,0.3,1.3,0.9c0.7,0.5,1.2,0.8,1.6,1c2,1.1,3.2,2,3.6,2.5
			c0.2,0.2,0.5,0.8,0.8,1.6c-0.4,0.7-0.6,1.3-0.6,1.8c0,0.2,0,0.4,0.1,0.7l2.2,0.2c1.2,2.1,1.8,4.2,1.7,6.5c0.7,3,1,4.9,1,5.7v2.1
			v0.9c0,1.3,0,2.1,0,2.5c0,0.4,0,0.7,0,0.9c0,0.7-0.4,1.7-1.1,3c-0.1,0.1-0.1,0.3-0.1,0.5c0,0.4,0.1,1,0.4,1.9
			c-0.6,0.7-1,1.2-1,1.6l-0.1,1.6c-1.3,2.9-2.1,4.6-2.6,5.2l-0.1,1.9l-1.8,2.6l-0.1,0.3c-0.1,0.3-0.1,0.5-0.1,0.6
			c0,0.4,0.1,0.9,0.3,1.4c-1.1,1.4-1.8,2.3-2,2.8c-0.9,1.3-1.9,2.6-3.3,4.1l-2.3,3.4l-1.6,1.4l-2.7,2.8c-1.6,1.6-2.6,2.7-3.2,3.4
			c-0.4,0.5-0.7,0.7-1,0.7l-1.3-0.6l0.6-0.9l-3.5,2.2l0.5,1.8c-2.3,1.6-5.3,3.2-8.9,4.9c-3.3,1.6-5.4,2.4-6.4,2.6l-4,0.5
			c-4,0.8-6.8,1.5-8.3,2l-4.1,0.6l-1.8,0.3h-2.4l-2.8,0.2c-1.5-0.4-2.4-0.7-2.6-0.7c-0.5,0-1.3,0-2.4,0c-1,0-2-0.2-2.8-0.9
			c-1,1.1-2.1,1.6-3.3,1.6c-0.2,0-0.9-0.3-2.2-1c-0.3-0.2-0.6-0.3-1.1-0.3l-4.5,0.1c-0.3,0-0.8,0-1.4-0.1c-0.6-1.6-1.6-2.4-3-2.4
			c-0.7,0-1.3,0.5-1.8,1.5c-0.8-0.4-1.8-0.8-2.8-1.3c-1-0.4-2.1-0.6-3.3-0.6c-1.4-0.7-2.4-1.1-2.9-1.2c-1-0.2-1.9-0.5-2.7-0.7v-1.8
			c-1.3-0.3-2-0.6-2.1-0.9c-0.2,0-0.5-0.7-0.9-2l-1.2,0.3l-0.2,2c-0.4,0-2.1-0.5-4.9-1.5l-8.1-6.6l-0.2-0.1c0-0.7-0.1-1.1-0.3-1.4
			c-0.2-0.2-0.7-0.7-1.5-1.6c-0.2-0.2-1.2-1.4-2.8-3.5C300.5,131.7,299.6,130.6,298.8,129.9z"/>
		<path class="st0" d="M451.3,107.8c0.5-0.9,1.1-1.4,1.6-1.8c0.4-0.2,1.7-0.6,4.1-1.1c1.7-0.9,2.9-1.4,3.5-1.6
			c0.4-0.1,1.8-0.2,4.1-0.5l2.2-0.7l1.3-0.1l1.2-0.1h2.6l5.4-0.7c1.6-0.1,2.6-0.3,3-0.6c0.8-0.6,1.2-1.4,1.2-2.6
			c0-0.2-0.2-0.9-0.5-2.2l3.5-4.4c0,0-1.4-0.5-4.2-1.4c-0.2-0.1-0.9-0.1-2-0.1c-1.9-2.5-3.1-3.9-3.5-4.1c-0.5-0.2-2.2-0.5-5.2-1
			h-2.2c-1-0.3-1.6-0.4-2-0.4c-0.4,0-0.9,0-1.6,0.1l-1.3-1.6c-1,0.4-1.8,0.9-2.3,1.5c-0.5,0.5-1.2,0.9-2.1,1.3
			c-2.3,1-4.3,2.1-5.8,3.3l-0.9,0.6c-0.6,0.9-1,1.3-1.2,1.4c-0.5,0.3-1.2,0.5-1.9,0.5c-0.3,0-1.1-0.2-2.5-0.7
			c-1.5-0.4-2.5-0.7-2.8-0.9c-0.4-0.3-0.9-0.8-1.6-1.7c0.8-0.6,1.3-1,1.6-1.3c0.8-0.7,1.3-1,1.6-1.1l3.2-0.7l2-1.1l4.3-1.4l2.7-1.2
			h2.8l3-0.9l1.3-0.1l2.4-0.4c2.2,0,3.6,0.1,4.2,0.1c0.6,0,1.9,0.4,3.7,0.9l1.6,0.2c1.8,0.3,3,0.5,3.7,0.7c0.6,0,1.4,0.5,2.4,1.5
			c-0.8,0.7-1.2,1.2-1.2,1.7c0,0.6,0.3,0.9,0.8,0.9c0.4,0,0.9-0.2,1.6-0.5c0.5-0.2,1.1-0.4,1.9-0.6c0.6,0.6,0.9,1.4,0.9,2.3l1.7,1.2
			c0.1,0.5,0.1,0.8,0.1,1l-0.2,2.6c0.5,2,1,3.2,1.5,3.7h0.3c0.1,1,0.3,2.1,0.5,3.3c0.1,2.6,0.2,4.4,0.3,5.2c-1,0.6-1.6,1.2-1.6,1.8
			c0,0.7,0.6,1.3,1.8,1.8c0,0.6,0.1,1.1,0.1,1.5c0,0.4-0.1,1.2-0.3,2.4c0,0.5-0.1,1-0.1,1.5c0,1.5,0.2,3.3,0.7,5.6
			c-0.8,0.8-1.2,1.6-1.2,2.4c0,0.7,0.4,1.6,1.2,2.6c0.1,0.2,0.2,0.6,0.5,1.3c0.1,0.3,0.4,0.9,0.7,1.8c-0.5,0.6-0.9,1.2-1.1,1.7
			c-0.4,0.3-1.1,0.7-2.1,1.1l-2.6,1.1l-1.6,0.5c-1.7,0.6-2.6,0.9-2.8,0.9c-0.5,0-0.9-0.2-1.5-0.7l1-4.5c-1.3,0.3-3.2,1-5.7,2.1
			l-2,0.4c-1.2,0.3-1.8,0.4-1.8,0.4l-2.5-0.3l-2.5,1.3l-1.4,0.1l-5.5,1.1l-2.8-0.2c-1.4,0.5-2.3,0.7-2.8,0.7c-0.6,0-2.4-0.3-5.3-0.9
			l-2.8-0.3l-2.1-0.9c-1.6-0.6-2.8-1.2-3.5-1.8c-0.7-0.5-1.2-1.4-1.6-2.6l-1.6-0.5c-0.2-0.4-0.4-1.3-0.6-2.4l-0.7-2.9v-0.1
			c0-0.4,0.2-1.1,0.9-2c0.5-0.7,1.1-1.8,1.9-3.5c2.2-2.2,3.7-3.6,4.4-4.2c0.6-0.5,2.1-1.2,4.3-2.1c1.3-0.8,2.1-1.2,2.4-1.2
			C450.4,107.6,450.8,107.7,451.3,107.8z M447.1,122.1c-0.4,0.6-0.7,1.2-1,1.8c-0.5,0.8-0.7,1.4-0.7,1.6l0.7,1.3l1.9-1.6
			c1.5,1.1,2.6,1.7,3.2,1.8c1.7,0.5,2.6,0.7,2.7,0.7c0.3,0.2,0.7,0.7,1.2,1.4c1,0.1,1.7,0.2,2.1,0.3c0.4,0,0.7,0.1,0.9,0.1
			c0.5,0,1.1-0.3,1.8-0.9c0.6,0.5,1.2,0.7,1.6,0.7c0.1,0,0.6-0.3,1.5-0.9l1.9,0.4l3.7-1.3l1.8-0.8l1.5,0.3l2.6-1.1l3-1.2
			c0.8-1.2,1.2-1.9,1.4-2c0.4-0.4,1.2-0.8,2.4-1.1l0.4-2.2c0.8-0.4,1.3-1.1,1.5-1.9c-0.6-0.5-1.1-0.9-1.4-1.4c0-0.8,0.1-1.3,0.1-1.7
			v-1.1c0-1.2-0.1-2.3-0.1-3.1c0-0.3-0.1-0.5-0.1-0.8c0-0.5,0.2-1.3,0.5-2.4c-0.4,0-0.9-0.3-1.6-0.8l-2.9,0.1l-2.6-0.1l-2,0.1h-1.3
			c-0.2,0-0.9-0.4-2-1.1l-1.5,0.5c-1.8,0-3.1,0.1-4,0.4c-0.5,0.2-1,0.3-1.4,0.3c-0.1,0-0.6-0.1-1.6-0.4c0,0-0.1,0-0.1,0
			c-0.2,0-0.9,0.4-2.2,1.2c-0.2,0.1-1.4,0.6-3.5,1.4c-2.9,1.3-5,2.5-6.2,3.6c-0.1,0.1-0.6,0.8-1.5,2c-0.3,0.4-1.1,0.8-2.4,1.1
			c-0.2,0.3-0.3,0.6-0.3,0.7c0,0.1,0.2,0.4,0.5,0.8l0.5,3.7C446.1,120.9,446.5,121.4,447.1,122.1z"/>
		<path class="st0" d="M506.9,84c0.4-1.8,1-2.6,1.8-2.6h0.1l3.3,0.2h0.1c2.5-0.4,4-0.6,4.3-0.6c0-0.8,0-1.4,0-1.6
			c0-4.2-0.1-7.7-0.3-10.4c-0.1-1.2-0.4-2.2-0.8-3.2l-0.7-1.4c-0.2-0.4-0.3-0.7-0.3-1.2c0-0.7,0.5-1.5,1.6-2.4
			c1.7-1.5,3.8-2.6,6.4-3c0.6-1.2,1.2-1.8,1.9-1.8c0.3,0,0.5,0.1,0.7,0.3c0.6,0.7,1,1.6,1,2.6c0,0-0.2,3.6-0.6,10.7
			c-0.5,1.9-0.9,2.9-1,3.3c-0.2,0.6-0.7,1.3-1.6,2c0,0.9,0.1,1.8,0.4,2.6h1.6l-0.4,3.5c1.1,0.1,3.5,0.6,7,1.6c0.2,0,1,0.1,2.3,0.1
			c0.8,0,2.1-0.3,4-0.8l4.5-0.4c2.3-0.9,3.7-1.4,4.1-1.4c0.6,0,1.3,0.1,2.2,0.2c-0.1,1.3-0.2,2.2-0.4,2.7c-0.2,0.7-1.6,1.8-4.3,3.5
			c-0.6,0.4-1.1,0.7-1.4,1c-0.7,0.8-1,1.2-1.1,1.2c-0.2,0.2-0.8,0.3-1.6,0.3c-0.7,0-1.2-0.1-1.5-0.3l-2.8-1.5l-1.7-0.4l-2-1.5
			l-3.5,2.6l-3-0.4c-0.2,0-0.7,0.2-1.4,0.7c0.4,2.2,0.5,4,0.5,5.5c0,0.7,0,1.8-0.1,3.2c-1.7,0.3-2.5,0.9-2.5,2
			c0,0.4,0.1,0.9,0.3,1.5c1,0.1,1.8,0.2,2.5,0.4l-0.1,8.5c-0.7-0.2-1.2-0.3-1.7-0.3c-0.8,0-1.2,0.3-1.2,1c0,0.5,0.2,1.2,0.6,2
			c0.6-0.4,1.2-0.6,1.6-0.6c0.7,0,1,0.4,1,1.3l-0.2,2.7v0.1c0.1,1.9,0.2,3.2,0.2,4c0.1,0.9,0.4,1.7,0.8,2.6l0.8,1.4
			c0.1,0.2,0.1,0.4,0.1,0.8c0,0.4,0,0.9-0.1,1.6c1.4,0.8,3,1.2,4.7,1.2c1.4,0,2.9-0.4,4.3-1.1c1.2-0.6,1.8-1,1.9-1.1l3.7-3.4
			c1.9-1.5,3-2.3,3.4-2.3c0.4,0,1,0.2,1.7,0.6c-0.1,0.9-0.2,1.4-0.3,1.8c-0.3,2.3-0.6,3.7-0.9,4.1c-0.3,0.4-1.7,1-4.1,1.7
			c-1.9,0.9-4.7,2.1-8.4,3.3l-2.3,0.7c-1.5,0.9-2.4,1.3-2.6,1.3c-0.4,0-0.9-0.4-1.4-1.2l-1.2-0.3l-0.7,1.7c-0.6,0.1-1.2,0.1-1.6,0.1
			c-1.2,0-2.6-0.8-4.2-2.3c-0.7-0.7-1.3-1.5-1.8-2.2c0,0-0.2-0.6-0.5-1.8c-0.5-1.5-0.7-2.3-0.7-2.6c0-0.4,0-1.1,0.1-2
			c0.1-0.7,0.1-2.2,0.1-4.5c0-1.5,0.5-2.6,1.2-3.4c-0.3-0.9-0.4-1.9-0.4-3.1c-0.2-2.1-0.4-6-0.4-11.9c1.1-0.7,1.6-1.3,1.6-2
			c0-0.4,0-0.8-0.1-1.3l-2-0.5l-0.1-0.6v-0.1c0-0.2,0.1-0.7,0.2-1.4c0.3-1.2,0.4-3.2,0.4-6.1c-1.9-0.4-3.2-0.6-4.1-0.6
			c-0.3,0-1.4,0.1-3.5,0.4l-1.4,0.1c-1.3,0.4-1.9,0.6-2,0.6c-0.6,0-0.9-0.3-0.9-0.9C504.1,86,505,85,506.9,84z"/>
		<path class="st0" d="M555.2,84c0.4-1.8,1-2.6,1.8-2.6h0.1l3.3,0.2h0.1c2.5-0.4,4-0.6,4.3-0.6c0-0.8,0-1.4,0-1.6
			c0-4.2-0.1-7.7-0.3-10.4c-0.1-1.2-0.4-2.2-0.8-3.2l-0.7-1.4c-0.2-0.4-0.3-0.7-0.3-1.2c0-0.7,0.5-1.5,1.6-2.4
			c1.7-1.5,3.8-2.6,6.4-3c0.6-1.2,1.2-1.8,1.9-1.8c0.3,0,0.5,0.1,0.7,0.3c0.6,0.7,0.9,1.6,0.9,2.6c0,0-0.2,3.6-0.6,10.7
			c-0.5,1.9-0.9,2.9-1,3.3c-0.2,0.6-0.7,1.3-1.6,2c0,0.9,0.1,1.8,0.4,2.6h1.6l-0.4,3.5c1.1,0.1,3.5,0.6,7,1.6c0.2,0,1,0.1,2.3,0.1
			c0.8,0,2.1-0.3,4-0.8l4.5-0.4c2.3-0.9,3.7-1.4,4.1-1.4c0.6,0,1.3,0.1,2.2,0.2c-0.1,1.3-0.2,2.2-0.4,2.7c-0.2,0.7-1.6,1.8-4.3,3.5
			c-0.6,0.4-1.1,0.7-1.4,1c-0.7,0.8-1,1.2-1.1,1.2c-0.2,0.2-0.8,0.3-1.6,0.3c-0.7,0-1.2-0.1-1.5-0.3l-2.8-1.5l-1.7-0.4l-2-1.5
			l-3.5,2.6l-3-0.4c-0.2,0-0.7,0.2-1.4,0.7c0.4,2.2,0.5,4,0.5,5.5c0,0.7,0,1.8-0.1,3.2c-1.7,0.3-2.5,0.9-2.5,2
			c0,0.4,0.1,0.9,0.3,1.5c1,0.1,1.8,0.2,2.5,0.4l-0.1,8.5c-0.7-0.2-1.2-0.3-1.7-0.3c-0.8,0-1.2,0.3-1.2,1c0,0.5,0.2,1.2,0.6,2
			c0.6-0.4,1.2-0.6,1.6-0.6c0.7,0,1,0.4,1,1.3l-0.2,2.7v0.1c0.1,1.9,0.2,3.2,0.2,4c0.1,0.9,0.4,1.7,0.8,2.6l0.8,1.4
			c0.1,0.2,0.1,0.4,0.1,0.8c0,0.4,0,0.9-0.1,1.6c1.4,0.8,3,1.2,4.7,1.2c1.4,0,2.9-0.4,4.3-1.1c1.2-0.6,1.8-1,1.9-1.1l3.7-3.4
			c1.9-1.5,3-2.3,3.4-2.3c0.4,0,1,0.2,1.7,0.6c-0.1,0.9-0.2,1.4-0.3,1.8c-0.3,2.3-0.6,3.7-0.9,4.1c-0.3,0.4-1.7,1-4.1,1.7
			c-1.9,0.9-4.7,2.1-8.4,3.3l-2.3,0.7c-1.5,0.9-2.4,1.3-2.6,1.3c-0.4,0-0.9-0.4-1.4-1.2l-1.2-0.3l-0.7,1.7c-0.6,0.1-1.2,0.1-1.6,0.1
			c-1.2,0-2.6-0.8-4.2-2.3c-0.7-0.7-1.3-1.5-1.8-2.2c0,0-0.2-0.6-0.5-1.8c-0.5-1.5-0.7-2.3-0.7-2.6c0-0.4,0-1.1,0.1-2
			c0.1-0.7,0.1-2.2,0.1-4.5c0-1.5,0.5-2.6,1.2-3.4c-0.3-0.9-0.4-1.9-0.4-3.1c-0.2-2.1-0.4-6-0.4-11.9c1.1-0.7,1.6-1.3,1.6-2
			c0-0.4,0-0.8-0.1-1.3l-2-0.5l-0.1-0.6v-0.1c0-0.2,0.1-0.7,0.2-1.4c0.3-1.2,0.4-3.2,0.4-6.1c-1.9-0.4-3.2-0.6-4.1-0.6
			c-0.3,0-1.4,0.1-3.5,0.4l-1.4,0.1c-1.3,0.4-1.9,0.6-2,0.6c-0.6,0-0.9-0.3-0.9-0.9C552.4,86,553.3,85,555.2,84z"/>
		<path class="st0" d="M599.8,86.4c0.6-0.9,1-1.5,1.1-1.6c0.2-0.1,1-0.6,2.5-1.4c1.1-0.6,1.8-1,2.1-1.4l0.9-1c1.6,0,2.6,0.3,2.9,0.7
			c0.2,0.4,1,2.2,2.2,5.5l0.1,1.8l0.7,2.4c0.2,1.1,0.4,1.7,0.5,1.8c0.3,0.4,0.9,0.8,1.9,1.1c0.4,1.5,0.7,2.4,1,2.8
			c0.8,1.7,1.2,2.9,1.2,3.8c0,0.5,0.1,1.1,0.3,1.8c0.8,0.5,1.2,0.9,1.3,1.2l0.9,2.3l0.9,1.4c0.7,1.6,1.5,3,2.2,4l-0.7,2.2
			c1,0.6,1.7,1.1,2.1,1.4c0.1,0.1,0.5,0.7,1,1.6l1.6,2.5c0.5,1.1,0.8,1.8,0.9,2c0.3,0.2,0.6,0.3,0.9,0.3c0.7,0,1.2-0.6,1.6-1.8
			c0.4-1,1.4-2.9,3-5.5l0.6-1.5l1.1-2c0.8-2.2,1.4-3.8,1.9-4.8c1.2-0.2,1.9-0.6,2.3-1.2c-0.4-1.4-0.5-2.4-0.5-2.8
			c0-0.7,0.9-2.9,2.8-6.4c0.2-0.3,0.3-0.8,0.3-1.5c0-0.5-0.1-1.3-0.3-2.4c1-1.5,1.7-2.7,2-3.5c0.2-0.5,0.5-1.7,0.8-3.5
			c0.2-0.9,1.1-1.8,2.8-2.7c0.7-0.3,2.2-0.5,4.5-0.8l0.5,0.5c-0.4,0.9-1,2.5-1.9,4.9c-1.1,1.9-1.8,3.4-2,4.3
			c-0.3,1.1-0.9,2.3-1.7,3.7c-0.5,0.7-0.7,1.3-0.9,1.6l-3.2,8.6c-0.4,1-0.8,1.8-1.3,2.4c-0.6,0.9-1,1.3-1,1.4l-0.5,1.8l-0.7,1.3
			c-2.3,4.3-3.8,7-4.4,8.1l-1.8,4.3c-0.1,0.2-0.7,0.6-1.8,1.2l0.9,2.4c-1,0.6-1.6,0.9-2,1.1c-1.4,0.7-2.8,1.6-3.9,2.6
			c-0.7,0.6-1.1,0.9-1.2,0.9c-0.1,0-0.5,0.1-1.1,0.1c-0.5-0.4-0.8-1-0.9-1.7c-0.2-1-0.4-1.8-0.5-2.4c-0.9-0.7-1.4-1.2-1.6-1.5
			l-0.7-2l-1.6-3l-1.8-3.9l-0.8-1.4c-0.1-0.3-0.2-1.1-0.2-2.5c0-0.5-0.2-1-0.3-1.3c-0.2-0.4-0.9-0.7-2-1v-0.3
			c0.6-0.6,0.9-1.1,0.9-1.5c0-1-0.6-1.9-1.8-2.7c-0.4-0.3-1.1-0.4-2.2-0.4c-0.4-1.4-0.7-2.3-0.9-2.8c-0.8-1.6-1.2-2.7-1.2-3.3
			c0,0,0-0.2,0.1-0.5c0.1-0.5,0.2-1.1,0.4-2c-0.8-0.7-1.4-1.1-1.6-1.3c-1.3-0.9-2.3-2-3.1-3.5C602,90,600.7,87.6,599.8,86.4z"/>
		<path class="st0" d="M662.6,85.4c0-0.6,0.7-1.5,2-2.6c3-2.3,5.6-3.8,7.7-4.5l2,2.1c-0.5,1.1-0.8,2.7-1.1,4.7
			c-0.3,1.7-0.4,2.7-0.4,3v2.5l-1.2,1.6c0,1.1,0.5,2.2,1.5,3.3c-0.3,0.5-0.4,0.8-0.4,0.9l0.1,3.3l-0.1,0.7c0,0.3-0.1,0.8-0.1,1.6
			l-0.3,12.9c0,0.7,0.3,2.2,0.9,4.7l0.1,2.8c0.3,1.4,0.4,2.1,0.4,2.4c0,0.9-0.4,1.8-1.2,2.6c-0.2,0.2-1.1,0.8-2.6,1.8
			c-2.3,1.8-3.5,2.7-3.9,2.8c-0.5,0.2-0.9,0.3-1.2,0.3c-0.5,0-1.1-0.3-1.6-0.8c0.2-1.1,0.3-1.9,0.3-2.2c0-0.5,0.3-1.5,0.7-3l0.1-3.3
			l0.5-6.6l-0.1-1.2c0-0.7,0.4-1.1,1.1-1.1c0.2,0,0.4,0,0.7,0.1c0.2-0.7,0.3-1.2,0.3-1.5c0-0.4-0.1-1.1-0.4-2.1
			c-0.1-0.5-0.3-1.1-0.4-1.9l-1.2-0.9c0.1-1,0.2-1.7,0.2-2.2c0-0.2,0-0.6-0.1-1c0-0.4,0-0.7,0-0.9c0-0.6,0.2-1.2,0.7-2
			c-0.5-0.5-0.7-1.1-0.7-1.7v-0.5v-0.5l-0.1-1.6c2.9-0.5,4.4-1,4.4-1.4c0,0,0-0.1-0.1-0.2c-0.7-0.6-1.5-0.9-2.5-0.9
			c-0.7,0-1.6,0-2.6,0.1c0.1-0.7,0.2-1.1,0.2-1.4c0-0.1-0.2-2.3-0.5-6.7C663.9,86.4,663.4,85.9,662.6,85.4z M663.8,58.1L663.8,58.1
			c-0.1-1.6,1.1-3.4,3.5-5.2c0.5-0.4,1.1-1,1.8-1.8c0,0,0.5-0.4,1.4-1.1c1.7-2.5,2.7-3.9,3.1-4.1c0.7-0.5,1.2-0.7,1.7-0.7
			c0.2,0,0.7,0.3,1.6,1c0.9,0.6,1.3,1.4,1.3,2.3c0,0.7-0.4,1.4-1.2,1.9c-2.1,1.5-4.1,3.1-6,4.9l-1.9,1.2l-2.4,1.6
			c-1.3,0.7-2,1-2.2,1C664,59.1,663.8,58.8,663.8,58.1z"/>
		<path class="st0" d="M690.7,103.8c0.6-1,1.6-3,3-6c0.9-1.9,1.5-2.9,1.9-3c0.8-0.7,1.6-1.4,2.4-2.1l1.6-1.8l2.2-1.9l3-2.8l1.7-1
			l1.6-1.2l1.5-0.6l2-1.5l3.6-1.3c2.2-0.8,3.6-1.2,4.1-1.3c1.1-0.1,2-0.3,2.8-0.4c0.9,0.9,1.6,1.4,2,1.4c0,0,1.2-0.3,3.4-0.9
			c0.2,0,0.3-0.1,0.5-0.1c0,0,1,0.2,3,0.7c0.2,0,0.6,0.1,1.2,0.1c0.8,0,1.4,0.1,1.8,0.2c2.1-0.6,3.3-1,3.5-1c0.9,0,1.7,0.3,2.5,0.9
			c-0.2,1.1-0.5,1.9-0.9,2.2c-0.4,0.4-1.2,0.8-2.2,1.1l-0.4,1.8c-1.4,0.7-2.4,1.2-2.8,1.6c-0.6,0.4-1,0.6-1.2,0.7l-1-0.1
			c-0.1,0-0.2,0-0.3,0l-2.4,0.1h-0.1l-2-0.3l-1.6-0.1c-1.5-0.5-2.8-0.8-3.9-0.9c-0.3,0-0.8,0-1.5-0.1c-0.8-0.1-1.5-0.1-2-0.1
			c-0.4,0-2,0.3-5,0.8c-1.6,0.2-2.6,0.4-3.1,0.6c-0.5,0.3-1.5,1.2-2.9,2.6c-0.4,0.4-1.2,0.7-2.4,0.9c-0.1,1-0.4,1.7-0.7,2
			c-0.5,0.4-1.3,0.6-2.4,0.8c0.1,0.5,0.1,0.9,0.1,1.4c0,0.2-0.6,1.2-1.8,2.9c-0.4,0.5-0.5,3.3-0.5,8.3c0,1.1,0.6,3.1,1.7,6
			c-0.7,1.3-1.1,2.2-1.2,2.8c0.3,0.2,1,0.5,2.3,0.8c2,2.5,3.3,4.4,3.8,5.6l1.6,0.2c0.7,0.9,1.1,1.4,1.4,1.6l2.6,1.7l1.8,1.4
			c1.7,0.7,2.8,1.1,3.2,1.2c0.3,0.1,1.3,0.2,3.1,0.3l2.5,0.5l2.4,0.1l1.8,0.2c0.9-0.1,2.4-0.6,4.5-1.6l1.2,0.3
			c0.6-0.4,1-0.6,1.2-0.7c0.4-0.2,1.2-0.8,2.6-1.8c1.2-0.1,2.2-0.6,3.1-1.4c0.7-0.7,1.4-1.3,2.3-1.8c0.4-0.2,0.7-0.6,1.2-1
			c1.1-1.3,1.9-1.9,2.4-1.9c0.4,0,0.7,0.2,1.1,0.7c-0.5,1.9-0.7,3.4-0.7,4.7c-0.9,0.9-1.6,1.8-2.2,2.7c-1,0.3-2.3,1.1-4.1,2.2
			c-0.7,0.1-1.4,0.4-2,0.8c-0.9,0.6-1.6,0.9-2.2,0.9l-2.3-0.1h-0.1c-2.4,0.5-3.8,0.8-4.3,0.9c-0.1,0-0.7,0.5-1.8,1.2
			c-0.2,0.1-0.4,0.2-0.6,0.2l-6.8-0.1c-0.3,0-0.9,0.1-2,0.2c-1.1-0.7-2.1-1.1-3-1.2c-1.3-0.1-3.1-0.5-5.5-1.2l-1.6-0.2l-1.9-0.6
			c-1.2-0.3-2-0.5-2.3-0.6c-0.3-0.1-0.6-0.4-1.1-0.8c-2.3-2.3-3.5-3.7-3.5-4.1c0-0.4,0.1-0.8,0.2-1.3l-0.1-0.2l-2.3,0.4l-0.1-0.1
			c-0.8-1.7-1.4-2.7-1.8-3.2c-0.7-1-1.1-1.9-1.2-2.5c0-0.3-0.1-1.1-0.3-2.4v-0.2l0.3-1.9c-1.3-0.9-1.9-1.5-1.9-1.9
			c0-0.1,1.1-0.8,3.2-2c1.2-0.7,1.8-1.7,1.8-3C695,105,693.6,104.1,690.7,103.8z"/>
		<path class="st0" d="M787.5,27.4v-0.7c0.5-0.4,1.3-0.7,2.2-0.9c0.7-0.7,1.8-1.4,3.3-2.1c2-1,3.3-1.6,3.8-1.6c0.4,0,1,0.3,1.8,0.9
			c0.8-0.5,1.4-0.9,1.6-1.1c0.5-0.4,1.1-0.6,1.6-0.7c0.9,0.9,2,1.4,3.3,1.8c2.6,0.6,4.2,0.9,5,0.9c0.1,0,0.2,0,0.3,0l4.3-0.4
			l3.9,3.4c1.6-1.9,2.5-2.9,2.7-2.9c0.5,0,1.1,0.3,2,1c0.2,0.1,0.5,0.2,0.8,0.2l1.6-0.1l4.3,0.7l2.8-0.3l2.8,0.5l2.8-0.1l4.5,0.1
			l2-0.5l3.9,0.1l1.7-0.1h2l6.6-0.9c3.2,0.3,5.1,0.4,5.7,0.4c1.5,0,2.5-0.2,3-0.5c0.7-0.4,1.3-0.6,1.9-0.7l11-2.2
			c0,0.3,0.1,0.6,0.1,0.8c0,0.2-0.1,0.6-0.4,1.2c-0.5,1.2-0.9,1.9-1.1,2.2c-0.2,0.3-0.8,0.8-1.6,1.6c-1.8,1.5-3.3,2.9-4.3,4.3
			c-0.7-1-1.3-1.5-1.8-1.5h-1.5c-0.1,0-0.8-0.8-2.2-2.4l-0.1-0.1c-0.3,0-0.8,0.9-1.4,2.7v1.1c-1.2-0.5-1.9-0.8-2.1-1.1
			c-0.6-0.8-1.2-1.6-1.8-2.5c0-0.1-0.1-0.1-0.1-0.1l-4.2,3.1c-0.1,0.1-0.4,0.2-0.9,0.2c-1,0-2.4-0.1-4.1-0.3c-0.6,0-1.6-0.1-2.8-0.2
			c-0.6-0.9-1.3-1.4-2-1.4h-0.3c-0.9,0-1.5-0.1-1.7-0.1c-0.6,0-1.6,0.2-3.1,0.7c-0.9,0.3-2.1,0.4-3.6,0.4c-0.6,0-2-0.4-4.1-1.2
			l-1.8,0.2h-2c-1.1,0.5-1.7,0.7-1.8,0.7c0,0-2.2-0.5-6.4-1.4l-1.7-2l-2.1,2.9l-3.7-3.4l-1.1,2c-0.7,1.3-1.7,2-3,2h-0.1
			c-0.4,0-1-0.3-1.7-1.2c-1.4-1.6-2.4-2.4-3.1-2.4c-0.9,0-1.6,1.2-2,3.6l0.2,0.3L799,37l6,1.8l-0.1,2v1.1c0,0.5-0.4,1.1-1.2,2
			l1.4,1.4l0.3,6.6c1.2-0.1,2.1-0.1,2.7-0.1c1,0,3.3,0.3,6.9,1l8.3,0.3l1.7,0.7l2.2-0.8c2,0.4,3.2,0.5,3.5,0.5c0.5,0,1.2-0.2,2-0.7
			c0.1,0,0.3-0.1,0.4-0.1c0.3,0,0.8,0.2,1.5,0.6l0.3-0.7c0.5-0.1,0.7-0.1,0.7-0.1l4.5,0.5c2,0,3,0.1,3.1,0.1c0.1,0,0.6-0.4,1.5-1.3
			l0.6,2.5c0.1,0.3,0.4,0.5,0.7,0.5c0.3,0,1.8-0.9,4.6-2.6c0.5-0.4,1-0.5,1.2-0.5c0,0,0.9,0.3,2.6,0.7c0.2,0,0.3,0.1,0.5,0.1
			c0.7,0,1.5-0.2,2.4-0.5c1.4-0.5,4.2-1,8.3-1.5c2.8-0.9,4.8-1.4,6-1.6c0,0.3,0,0.5,0,0.7c0,0.9-0.1,1.5-0.3,1.9
			c-0.2,0.5-0.8,0.9-1.8,1.4L870,55c-1.3,0.8-2.5,1.7-3.7,2.8c-1.4,0-2.2-0.1-2.6-0.1c-2.3-0.1-4-0.3-5-0.7
			c-1.1-0.5-2.2-0.9-3.1-1.2c-1.2,0.8-2.1,1.2-2.8,1.4c-0.3,0-2,0.1-5.3,0.1l-1.5,0.1c-1.8-0.4-2.8-0.6-3.2-0.6
			c-0.4,0-0.8,0-1.2,0.1c-2.3,0.4-3.5,0.5-3.8,0.5c0,0-1-0.1-2.8-0.3c-0.3,0-0.6-0.1-0.7-0.1c-0.5,0-1.4,0-2.6,0.1
			c-0.4,0-0.8,0.1-1.2,0.1c-0.3,0-1.2-0.2-2.6-0.5l-4.1,0.8l-2.3-0.2l-2.3,0.2h-1.8l-2.7,0.2c-1.6-0.6-2.8-1-3.8-1.2l-0.3,0.3
			l-0.2,1.5l-3.6-0.4c-0.1,0.1-0.2,0.8-0.3,1.9c-0.2,1-0.3,1.5-0.3,1.6c0,0.5,0.1,1.2,0.2,2.4c0.1,3.2,0.2,5.5,0.3,6.7
			c-0.5,0.4-1.1,0.6-1.6,0.7c-0.5,0.5-0.7,1-0.7,1.5c0,1,0.7,1.9,2,2.6c-2.2,0.7-3.6,1.4-4.3,2.3c-0.5,0.7-0.8,1.9-0.8,3.7
			c0,1.9,0.7,3.3,2.2,3.9c2,0.9,3.1,1.6,3.1,1.9l-0.1,0.1c-0.7,1.3-1.1,2.2-1.1,2.8c0,0.4,0.1,0.9,0.2,1.6l1.2,0.9l0.2,0.7l-0.5,0.5
			c-0.6,0-1.1,0.2-1.4,0.4c0.2,0.5,0.6,1,1.3,1.4c0,0.5,0,0.9,0,1l0.1,10.3c0,0.5-0.2,0.9-0.5,1.3c0,0.1-0.7,0.7-2,1.9
			c-0.2,0.1-0.3,0.4-0.3,0.7c0,0.9,0.9,1.4,2.6,1.6l0.1,5.9l0.1,11c0.3,1.6,0.4,2.4,0.4,2.6c0,1-0.7,2.1-2,3
			c0.5,2.9,1.4,4.3,2.6,4.1c0,1.3,0,2.2,0.1,2.6c0.2,2.8,0.3,4.5,0.3,5c0,1.4-0.4,2-1.2,2c-0.5,0-1-0.1-1.6-0.3
			c0,1.2-0.2,1.9-0.5,2.2c-0.1,0.1-0.6,0.3-1.4,0.5l-2,0.9l-2.8,0.9l-2.4,0.8c-0.4,0-1-0.3-1.8-1c0.2-0.5,0.3-0.7,0.3-0.9
			c0-0.5-0.3-1.2-0.9-2c0.5-0.8,1.1-1.9,1.7-3.4c0.7-1.1,1.1-1.7,1.1-2c0-0.1,0.1-0.7,0.1-1.8c0.6-3.1,0.9-6,0.9-8.8
			c0-0.3-0.1-0.9-0.2-1.8c0.3-0.2,0.5-0.3,0.7-0.3c0.5,0,1,0.1,1.6,0.4l-0.5-1.2c-0.5-0.2-0.8-0.3-1-0.3c-0.6-0.1-1-0.3-1.2-0.5
			c-0.2-0.2-0.3-1.3-0.3-3.1c0-2.8,0-4.3,0.1-4.5c0.1-0.4,0.5-0.8,1.3-1.4c-0.1-0.3-0.1-0.6-0.1-0.9c0-0.4,0.3-0.7,0.9-1l0.2,0.2
			l0.5-0.4v-1.8l-0.5,0.2l-0.3-1.4c-0.2,0-0.4,0.1-0.6,0.1c-0.8,0-1.2-0.4-1.2-1.2v-0.1c0-0.7,0-1.4,0.1-2c0.1-0.7,0.1-2.4,0.1-5
			c0.5-1,0.7-1.5,0.7-1.6c0-0.3-0.1-0.7-0.4-1.3c0.8-0.9,1.2-1.7,1.2-2.3c0-0.5-0.4-1-1.2-1.6c0-1.2-0.1-2.1-0.1-2.6
			c0-0.7,0-1.4,0.1-2c0.1-0.7,0.1-1.2,0.1-1.6c0-0.2-0.2-0.9-0.5-2.3c-0.2-0.5-0.3-1.2-0.3-2c0-1,0.5-1.7,1.4-2.1V87h0.3l1.1-1
			l-0.7-2.3l-1.2-0.3c-0.5-1.1-0.7-1.9-0.8-2.2c-0.1-0.2-0.1-2.1-0.1-5.6l-0.5-2.6l-0.2-2.2c-0.1-1.6-0.2-2.5-0.2-2.7
			c0-0.9,0.1-2.1,0.2-3.6c1,0,1.5-0.1,1.6-0.4c0.1-0.1,0.2-0.7,0.4-1.7l-2.2-4.4c0.4-1.1,0.5-1.9,0.5-2.2c0-0.2-0.2-1.3-0.6-3.1
			L795,49l-0.7-3.3l-0.3-4l-0.5-2.2l0.3-2.2v-0.1c0-0.5-0.5-1.6-1.3-3.2c-0.3-0.6-0.5-1.5-0.5-2.6c0-0.5,0-1.2,0.1-2.1l-2.4,0.4
			L787.5,27.4z"/>
		<path class="st0" d="M855.9,112.9c0-3,0.2-5.2,0.5-6.5c0.4-1.2,1-3,1.9-5.4c1.8-3.4,2.9-5.4,3.2-5.8c0.3-0.4,1.3-1.2,3.1-2.4
			c0,0,0.4-0.7,1-2c0.4-0.7,0.7-1.2,1-1.3c0.5-0.4,2.2-1.3,5.2-2.8c1-0.5,2-1.3,3.3-2.6c0.2-0.2,2.9-1.2,8.1-3.2
			c2.7-1,6.7-1.6,11.9-1.6c1,0,2.4,0.2,4.1,0.5l0.3,1.4c0.6,0.3,1.2,0.6,1.6,0.9c0.7-0.2,1.2-0.8,1.6-1.8c2.5,0.5,4.7,1.4,6.5,2.7
			c1.4,0.9,2.2,1.4,2.4,1.6c0.1,0.1,0.5,0.9,1.4,2.4c0.9,1.4,2.4,2.1,4.6,2.2c1.1,1.8,1.8,3.1,2.1,4c0.3,0.9,0.6,2.3,0.8,4.3
			c0.3,2.1,0.5,3.7,0.6,4.9H920v0.8l-1.4,1.6c0.2,0.8,0.8,1.5,1.9,2.2c-0.1,2-0.3,3.3-0.4,4.1c-0.1,0.3-0.4,1.1-1,2.4
			c-1.7,3.9-2.8,6.4-3.5,7.5c-2.4,2.9-4.6,4.6-6.6,5.3l-3.7,1.8l-3.5,1.6c-1.8,1-2.9,1.5-3.2,1.6c-0.3,0.1-2.5,0.2-6.6,0.4l-4.7,1
			h-4.8l-2.2,0.3c-4-0.7-6.5-1-7.5-1.1c-0.6-0.7-1.1-1.1-1.4-1.3c-0.1,0-1-0.2-2.6-0.5c-0.9-0.2-2.7-1.1-5.4-2.9
			c-0.4-0.2-1.2-0.7-2.4-1.4c-0.3-0.8-0.5-1.4-0.5-1.7c-0.2-0.5-0.4-0.8-0.5-1c0,0-0.5-0.3-1.4-0.9c0,0-0.2-0.2-0.5-0.6
			c-1-1.6-1.5-3.2-1.5-4.7c0-0.8,0.5-1.5,1.4-2.2c-0.4-0.7-1.1-1.3-2.1-1.8L855.9,112.9z M863.4,111.5v0.7l0.6,0.6
			c0.5-0.4,0.9-0.6,1.4-0.7c0.4,1.5,0.7,2.7,0.9,3.5c0.2,0.5,1.4,2.5,3.5,5.9c0,0.1,0.1,0.2,0.1,0.4c0,0.4-0.2,1.1-0.7,2
			c0.2,0.6,0.8,1,1.8,1c0.5-0.5,0.8-0.7,1.2-0.7c0.3,0,2.3,0.9,6,2.8c1.6,0.8,3.2,1.1,4.8,1.1h4l2,0.5c0.9,0.2,1.6,0.3,2.2,0.3
			c1,0,2.2-0.2,3.5-0.5c0.9-0.2,2.1-0.5,3.7-0.8c0.5-0.1,2-1.1,4.6-2.9c1.8-0.6,2.8-1,3-1.2c0.3-0.4,1.2-1.7,2.6-4l1.7-3.4
			c1.1-1.1,1.8-1.8,2-2c0.2-0.3,0.3-0.8,0.3-1.3c-0.7-1.1-1.1-1.8-1-2.2v-0.1l0.3-1.4c0.1-2.1,0.4-3.8,0.8-5.1
			c-0.4-0.9-0.8-2.2-1.3-4.1l-1.1-3.5c-0.1-0.4-0.2-1.4-0.2-2.8l-0.3-0.3h-1.6c-0.5-0.9-1.5-2.4-3-4.3c-0.9-1.1-1.4-1.8-1.5-1.9
			c-0.1-0.1-0.6-0.3-1.3-0.6c-0.6-0.3-1.8-0.7-3.4-1.4c-0.5-1.6-1.2-2.4-2.2-2.4c-0.3,0-1,0.2-2.1,0.7c-1.4-0.4-2.2-0.5-2.4-0.5
			c-2.3,0-3.9,0-4.6,0.1c-0.8,0-1.9,0.6-3.5,1.6l-1.4-1c-0.7,0.9-1.2,1.4-1.6,1.6l-2.9,1.5l-0.5,0.5l-8.1,6.8l-0.6,0.5
			c-0.1,1.3-0.2,2.1-0.4,2.4l-1.4,2.4c-0.5,1.3-1,2.3-1.7,3.2c0,0.4,0.1,0.7,0.1,0.9c0,1-0.8,1.9-2.4,2.5c0,0.1,0.2,0.7,0.5,1.6
			c1.2,0.9,1.8,1.4,1.8,1.7C865.6,110,864.8,110.7,863.4,111.5z"/>
		<path class="st0" d="M934.5,112.9c0-3,0.2-5.2,0.5-6.5c0.4-1.2,1-3,1.9-5.4c1.9-3.4,2.9-5.4,3.2-5.8c0.3-0.4,1.3-1.2,3.1-2.4
			c0,0,0.4-0.7,1-2c0.4-0.7,0.7-1.2,1-1.3c0.5-0.4,2.2-1.3,5.2-2.8c1-0.5,2-1.3,3.3-2.6c0.2-0.2,2.9-1.2,8.1-3.2
			c2.7-1,6.7-1.6,11.9-1.6c1,0,2.4,0.2,4.1,0.5l0.3,1.4c0.6,0.3,1.2,0.6,1.6,0.9c0.7-0.2,1.2-0.8,1.6-1.8c2.5,0.5,4.7,1.4,6.5,2.7
			c1.4,0.9,2.2,1.4,2.4,1.6c0.1,0.1,0.5,0.9,1.4,2.4c0.9,1.4,2.4,2.1,4.6,2.2c1.1,1.8,1.8,3.1,2.1,4c0.3,0.9,0.6,2.3,0.8,4.3
			c0.3,2.1,0.5,3.7,0.6,4.9h-1.1v0.8l-1.4,1.6c0.2,0.8,0.8,1.5,1.9,2.2c-0.1,2-0.3,3.3-0.4,4.1c-0.1,0.3-0.4,1.1-1,2.4
			c-1.7,3.9-2.8,6.4-3.5,7.5c-2.4,2.9-4.6,4.6-6.6,5.3l-3.7,1.8l-3.5,1.6c-1.8,1-2.9,1.5-3.2,1.6c-0.3,0.1-2.5,0.2-6.6,0.4l-4.7,1
			h-4.8l-2.2,0.3c-4-0.7-6.5-1-7.5-1.1c-0.6-0.7-1.1-1.1-1.4-1.3c-0.1,0-1-0.2-2.6-0.5c-0.9-0.2-2.7-1.1-5.4-2.9
			c-0.4-0.2-1.2-0.7-2.4-1.4c-0.3-0.8-0.5-1.4-0.5-1.7c-0.2-0.5-0.4-0.8-0.5-1c0,0-0.5-0.3-1.4-0.9c0,0-0.2-0.2-0.5-0.6
			c-1-1.6-1.5-3.2-1.5-4.7c0-0.8,0.5-1.5,1.4-2.2c-0.4-0.7-1.1-1.3-2.1-1.8L934.5,112.9z M942,111.5v0.7l0.6,0.6
			c0.5-0.4,0.9-0.6,1.4-0.7c0.4,1.5,0.7,2.7,0.9,3.5c0.2,0.5,1.4,2.5,3.5,5.9c0,0.1,0.1,0.2,0.1,0.4c0,0.4-0.2,1.1-0.7,2
			c0.2,0.6,0.8,1,1.8,1c0.5-0.5,0.8-0.7,1.2-0.7c0.3,0,2.3,0.9,6,2.8c1.6,0.8,3.2,1.1,4.8,1.1h4l2,0.5c0.9,0.2,1.6,0.3,2.2,0.3
			c1,0,2.2-0.2,3.5-0.5c0.9-0.2,2.1-0.5,3.7-0.8c0.5-0.1,2-1.1,4.6-2.9c1.8-0.6,2.8-1,3-1.2c0.3-0.4,1.2-1.7,2.6-4l1.7-3.4
			c1.1-1.1,1.8-1.8,2-2c0.2-0.3,0.3-0.8,0.3-1.3c-0.7-1.1-1.1-1.8-1-2.2v-0.1l0.3-1.4c0.1-2.1,0.4-3.8,0.8-5.1
			c-0.4-0.9-0.8-2.2-1.3-4.1l-1.1-3.5c-0.1-0.4-0.2-1.4-0.2-2.8l-0.3-0.3h-1.6c-0.5-0.9-1.5-2.4-3-4.3c-0.9-1.1-1.4-1.8-1.5-1.9
			c-0.1-0.1-0.6-0.3-1.3-0.6c-0.6-0.3-1.8-0.7-3.4-1.4c-0.5-1.6-1.2-2.4-2.2-2.4c-0.3,0-1,0.2-2.1,0.7c-1.4-0.4-2.2-0.5-2.4-0.5
			c-2.3,0-3.9,0-4.6,0.1c-0.8,0-1.9,0.6-3.5,1.6l-1.4-1c-0.7,0.9-1.2,1.4-1.6,1.6l-2.9,1.5l-0.5,0.5l-8.1,6.8l-0.6,0.5
			c-0.1,1.3-0.2,2.1-0.4,2.4l-1.4,2.4c-0.5,1.3-1,2.3-1.7,3.2c0,0.4,0.1,0.7,0.1,0.9c0,1-0.8,1.9-2.4,2.5c0,0.1,0.2,0.7,0.5,1.6
			c1.2,0.9,1.8,1.4,1.8,1.7C944.2,110,943.4,110.7,942,111.5z"/>
		<path class="st0" d="M1020.3,95l2.4,0.5l0.5-0.5l-0.7-3.5c0.9-0.6,1.5-0.9,1.8-1.1c0.2-0.1,1.5-1.4,3.9-3.9l1.8-1.3
			c0.9-0.8,1.6-1.2,2.1-1.2c0.4,0,1.2,0.1,2.4,0.3l0.9,0.7c0.9-0.6,1.9-1.2,3-1.6v-1.8c0.4-0.3,1.4-0.8,3.1-1.4l3.1-1.1l2.3-0.2
			c1.1-0.4,1.7-0.5,1.9-0.5c0.4,0,0.9,0.2,1.6,0.7c1.3,0.9,2.2,1.5,2.6,1.7l1.4-1.7c1.4,0.4,2.3,0.6,2.7,0.7c2.9,0.5,4.5,0.8,4.7,1
			l1.6,1c0.2,0.1,0.4,0.2,0.7,0.2c0.7,0,1.5-0.4,2.5-1.2c-0.6-0.8-1-1.3-1-1.5l-0.4-4.2l-0.3-1.4c2.8-1.9,4.1-3,4.1-3.2
			c0-0.4-0.8-1.4-2.4-3c-1-1.1-1.6-3.1-1.6-5.8l1.7-0.9c-0.4-0.6-0.7-1.5-0.8-2.6c-0.7-2.1-1-3.5-1.1-4.3l-0.2-1.9
			c0-1.4,0.1-3.1,0.1-5.2c0-0.7,0.2-1.8,0.5-3.3l-0.7-3.9c0-0.2,0.1-0.7,0.4-1.3l1.2-0.7c-0.4-0.8-0.6-1.1-0.7-1
			c-0.2-0.3-0.8-0.4-1.8-0.4l-0.4-0.2l-0.2-0.1l5.5-3.6l-1.4-1.7l-0.5-3.2c-0.1-0.8-0.8-1.4-2.2-1.8c-2.2-0.8-3.2-1.3-3.2-1.6
			c0-0.3,0.2-0.6,0.7-1.1c0.4-0.3,2-0.8,5-1.4c0.9-1.2,3-2.1,6.5-2.5c0.3,0.6,0.5,1.7,0.5,3.1l0.1,1.3v0.1c0,0-0.2,1-0.5,3v2
			l-0.1,1.2v2.8v2v2.8c0,0.4-0.1,0.8-0.3,1.4c-0.4,1.3-0.6,2-0.6,2.1l0.3,5l-1.4,2.5c0.4,1.5,1,2.8,1.7,4l-0.6,2.5l0.3,2
			c-0.3,1-0.5,1.6-0.5,1.8c0,0.8,0.2,1.8,0.5,3c0.1,0.5,0.1,0.9,0.1,1.3c0,0.3-0.1,0.7-0.4,1.2l-1.5,0.3c-0.5,1-0.7,1.8-0.7,2.3
			c0,0.3,0,0.6,0.1,1c1.5,0.9,2.3,1.8,2.4,2.6c0,0.1-0.1,1.5-0.3,4c0,0.2-0.1,0.4-0.1,0.6c0,1.2,0.1,2.5,0.3,3.9
			c0.1,0.5,0.1,0.9,0.1,1.2c0,0.1,0,0.2-0.1,0.4l-0.1,1.2l0.1,1.6c-0.6,1-0.9,1.6-0.9,1.8l0.1,3.6l0.1,1.2l0.1,4l0.5,4.5l0.1,1.4
			l0.3,3.2l-0.2,3.3l1,5.9l-0.1,2.6c0.6,2.5,1,4.2,1,4.9c0,1,0.1,2,0.1,2.9c0.8,0.7,1.2,1.5,1.2,2.2c0,0.3,0,0.6,0,0.9
			c-0.5,0.3-2.1,0.5-4.8,0.8c-2,0.5-3.7,0.7-5,0.9l-1-0.8c-1.2,0.8-2.2,1.4-3.2,1.6c-0.4,0.1-2.3,0.5-5.7,1.1
			c-4.9,1.2-8.4,1.8-10.4,1.8c-3.2,0.5-5.3,0.7-6.1,0.7c-4.2,0-7.4-0.3-9.8-0.9l-1.2-2c-1.3,0.7-2.1,1.1-2.5,1.1
			c-0.3,0-0.5-0.3-0.7-0.8c0-0.1-0.1-0.5-0.3-1.2c0-0.3-0.3-0.6-0.7-1.1c-0.9,0.4-1.5,0.6-2,0.6c-0.6,0-1.2-0.2-1.7-0.7
			c-1.8-1.5-3.1-2.6-3.9-3.1c0.1-0.7,0.2-1.3,0.2-1.8c0-0.9-0.4-1.7-1.2-2.4c-1-0.9-1.6-1.4-1.6-1.6l-0.2-1.3c-0.7-3.3-1-5.1-1-5.4
			c0-0.8,0.1-1.7,0.4-2.7c0.2-0.7,0.3-1.8,0.3-3.2l1.2-2.1c1.7-4.3,2.8-6.7,3.1-7.1C1018.6,96.2,1019.3,95.7,1020.3,95z
			 M1024.1,117.1c0.9,0.5,1.5,1,1.6,1.3l0.6,1.5c1.2,1.6,1.9,2.6,2.2,3c0.3,0.4,1.2,1.2,2.6,2.4l1.7,1.7l1.8,1
			c1.5,1.1,2.3,1.7,2.4,1.7c0.8,0,1.5-1.2,2-3.5c1.6,0.9,3.1,1.4,4.3,1.4l5.8-0.2h2.8l6-1.4c2.3-0.4,3.7-0.8,4.1-1.2
			c1.1-1.6,2-2.8,2.7-3.6c-0.4-0.7-0.5-1.2-0.5-1.4l0.3-1.8v-5.3l0.1-4.3c-0.3-1.2-0.5-2.3-0.5-3.3l2.3-0.9
			c-0.3-0.8-0.4-1.4-0.4-1.9c0-0.4,0-0.8,0.1-1.4l-1.5-0.4l4.1-3.4l-4.1-4.7l0.1-1.4c0-0.1-0.2-0.4-0.5-0.8v-2.3
			c-0.8-0.3-1.3-0.5-1.6-0.5c-0.2,0-0.9,0.2-2,0.7c0,0-0.3,0.1-0.7,0.1c-1.4,0-2.3-0.2-2.8-0.7l-2.4-2.2l-4.6-1.4l-2.6-1.8
			c-1.9,2.3-2.8,3.5-3,3.6h-0.3h-0.5c-0.7,0-1.9,0.3-3.4,1l-1.8-0.1c-1.1,0-2.4,0.8-3.9,2.5l-2.2-0.3c-0.7,0.9-1.2,1.4-1.6,1.6
			l-2.2,1.3c-1.8,1.5-2.6,2.9-2.5,4.2c-1.3,0.9-2.4,2-3.2,3.2l-1.8,2.8c-0.2,0.6-0.3,1.7-0.3,3.3c0,0.7,0.2,1.6,0.5,2.6l0.3,1.5
			l0.6,1.7l0.6,1.8c0.9,1.4,1.3,2.3,1.3,2.7C1024.1,116.1,1024.1,116.6,1024.1,117.1z"/>
		<path class="st0" d="M1126.8,106.2l-1.8,1.3c-1.8-0.5-3.2-0.7-4.2-0.7c-1.2,0-2.7,0.1-4.4,0.3c-0.5-1-1.2-1.8-2-2.4l-1.3,1.7
			c-0.9,0.1-2.1,0.4-3.4,0.7c-0.5,0.1-1,0.2-1.4,0.2c-0.1,0-0.2,0-0.4-0.1l-2.6-0.5c0,0-0.1,0.1-0.2,0.2l-1.3-1.4
			c-0.7,0.3-1.3,0.5-1.8,0.5c-0.2,0-0.7-0.2-1.7-0.7c-0.2-0.1-0.6-0.2-1.2-0.5c-3.5-1.2-5.2-3.2-5.2-6c0-2.4,0.9-4.8,2.8-7.1
			c0.5-0.7,1.8-1.9,3.8-3.6l1.4-1.3l3.2-1.9c3.3-2,5.6-3.3,7.2-3.9c3.5-1.4,6.3-2.2,8.5-2.2c0.4,0,2.4,0.5,6.1,1.4l3.5-0.6
			c2.2,0.1,3.5,0.3,3.9,0.5c0.9,0.5,1.4,0.9,1.4,1.4c0,0.5-0.2,0.9-0.7,1.4c-0.1,0.1-1.2,0.8-3.3,2c-2.2,1.3-3.4,2-3.7,2
			c-2.9,0-5.1-0.2-6.4-0.6c-0.5-0.9-0.9-1.7-1.4-2.3h-0.4l-1.3,1.4c-0.8,0-1.3,0.1-1.7,0.1c-0.4,0-0.8,0-1.2-0.1
			c-0.5,0-0.9-0.1-1.1-0.1c-0.1,0-0.7,0.1-1.8,0.4c-0.4-0.3-1-0.4-2-0.4c-0.9,0.7-2.4,1.6-4.5,2.7c-1.1,0.6-2,1.5-2.8,2.6
			c-0.8,1.2-1.2,2.3-1.2,3.3c0,0.5,0.4,1.1,1.3,1.9c0.1,0.1,0.9,0.5,2.4,1.1c0.9,0.4,1.7,0.9,2.6,1.5c0,0.4-0.1,0.7-0.1,0.9
			c0,1,0.4,1.4,1.2,1.4c0.7,0,1.5-0.6,2.4-1.8c1,0.1,1.9,0.2,2.6,0.2c0.3,0,1.6-0.2,3.9-0.6l2.2,0.2c2-0.3,3.1-0.4,3.2-0.4
			c0.3,0,1.5,0.3,3.5,0.9l2.4-0.3l2.4,1.7c2.6,1.2,4.4,2.4,5.4,3.5c0.7,0.9,1.1,1.6,1.2,2.2l0.5,2.2c0.6,2.7,0.9,4.3,0.9,4.7
			c0,0.3-0.1,1.1-0.3,2.4c-0.2,2.9-1.1,4.3-2.5,4.3c-0.5,0-1-0.1-1.6-0.2c-0.5,2.3-1,3.5-1.4,3.9c-2,2.3-3.3,3.9-3.9,4.7
			c-2.3,0.3-4.2,1-5.7,2.1c-0.7,0.5-1.1,0.8-1.2,0.9c-0.1,0-0.7,0.1-1.7,0.2l-5.5,1.5c-1.8-0.3-2.8-0.5-3-0.5
			c-0.3,0-1.6,0.4-4.1,1.1l-1.6-0.2c-2.2-0.1-3.8-0.3-4.9-0.5c-2.3-0.6-3.6-1-3.7-1.3l-2.2-1.4c-2.7-1.6-4.3-2.8-4.9-3.5
			c-1.4-1.6-2-3.1-2-4.6c0-0.3,0.5-0.9,1.5-1.6l1.8-1.7c1.7-1.3,2.7-1.9,3-1.9c0.2,0,0.3,0.1,0.5,0.2c1,1,1.6,2.1,1.6,3.2l-0.3,2.2
			v0.1c0,0.4,0.1,0.7,0.3,0.9c0.2,0.2,1,0.7,2.4,1.5c0.3,0.2,0.7,0.5,1.2,0.9c1.1,1,1.7,1.5,1.8,1.5l2.5,1l2.3,1.2h2.6l1.6,0.3
			c1.7-0.5,3.2-0.8,4.5-0.8c1.3,0,2.2-0.2,2.8-0.5l2.6-1.3c1.4-0.5,2.3-0.8,2.5-1c0.9-0.7,2-2.2,3.4-4.5c1.4-2.4,2.2-5.1,2.2-8.2
			c0-0.7-0.2-1.3-0.6-1.9C1128.4,109,1127.3,107.1,1126.8,106.2z"/>
	</g>
	<g>
		<path class="st1" d="M76,176.2c-12.4,9.3-25.7,17.6-40.7,24.2c11.5,15.4,43.5,20.3,58.9,5.4c-3.3-6.3-3.7-18.9,0-25.1
			C86.7,180.7,81.8,178.1,76,176.2z M37.2,188.7c2,1.3,7.6,1.9,7.6,1.9c13.9-4,20.7-9.7,29.4-16.2c0,0-0.6-0.8-2-1.9
			c-0.2-0.2-0.4-0.3-0.6-0.4l-0.2-0.1c-0.8-0.5-1.5-0.9-2.3-1.2c0,0-0.1,0-0.1,0c-1.9-0.8-4.7-2.9-7.2-4.9c-1.5-1.9-3.2-3.3-5-4.2
			l-0.1-0.1l0,0c-10.8-5.2-27.4,4-40.6,2.1c4.2,11.2,9.4,21.4,21,24.9L37.2,188.7z M167,179.8c4,6.5,4.9,19.8,0,26
			c14.8,13.3,46.5,11.9,57.2-4.5c-14.9-9.4-29.3-19.3-45-27.8C176.1,176.7,171.1,177.8,167,179.8z M163.5,180.7
			c-16.7,9.4-48.4,7.2-66.7,0.9c-12.7,33.5,26.8,34.7,37.2,53C141.5,216.5,182.1,211.5,163.5,180.7z M215.5,159.2
			c-8.7-0.2-11.7,3.8-18.4,9.5l-0.1,0c-1,0.9-4,1.9-6.3,2.6c-0.4,0.1-0.7,0.2-1.1,0.3c-0.8,0.2-1.4,0.4-1.4,0.4l0.1,0.1
			c-0.8,0.4-1.5,0.9-2.3,1.5c6.3,4.4,12.8,10,20.4,12.6c0.2,0.1,0.5,0.3,0.7,0.4c3.2,1.3,9.2,4,9.2,4c16.4-2.2,25.2-12.2,28.6-27.8
			C233.2,167,223.2,159.4,215.5,159.2z"/>
		<path class="st2" d="M37,128c6.5,0.6,8.1-1.6,13.4,0.6c5.3,2.2,33.2,11.2,36,8.4c2.8-2.8,9.9-16.5,14.6-33.9c0,0,5,6.5,5,20.2
			s-4,22.4-4.3,27c0,0-4-0.9-26.1-6.2c-22.1-5.3-16.3,11-13.4,14.3c2.9,3.2,27.3,22.7,66.5,22.7c39.1,0,64.6-20.5,68-25.2
			c3.4-4.7,7.5-19.6-19.3-14c0,0-14.6,6.5-21.7,9.3c0,0-5.6-10.6-5.3-31.4c0.3-20.8,5.3-21.7,5.3-21.7s11.8,34.2,19.3,34.5
			c7.5,0.3,40.1-9.9,46.9-10.6c6.8-0.6,6.4-1.6,9.8-1.1c2,0.3,4.7-0.6,6.5-1.7c1.8-1.2,3.6-2.9,3.6-2.9s0.6-2.2,1.1-4.7
			c0.7-3.4,1.3-3.2,0.9-3.9c-0.9-1.4-4.3,2.6-5.2,6.1c-0.4,1.7-3.1,0.9-3.1,0.9s0.1-0.9,1.4-2.8c1.3-1.9,8-4.5,6.6-4.6
			c-2-0.2-6.6,0.7-6.6,0.7c-3.8,2.2-4.1,2.8-9.2,6c-5.2,3.2-21.2,5.3-21.2,5.3c-7.8,0.9-25.5,0-25.5,0s-11.5-22.1-14-32.9
			c-2.5-10.9-6.2-15.8-15.5-15.2c-9.3,0.6-6.5-21.7-8.4-33.2c-1.9-11.5-5-20.8-17.4-20.8c0,0-17.7-0.9-17.1,28.6
			c0.6,29.5-13.7,27.6-15.5,31.7c-1.9,4-6.2,26.1-9,34.5c-2.8,8.4-4.3,12.1-4.3,12.1s-19.6,0.9-39.4-3.4c0,0-2.7-2.1-3.7-2.5
			c-0.9-0.5-4.5-2.5-6.4-4.1c-1.6-1.3-6-3.2-6.7-1.7c-0.6,1.6,4.9,3.4,5.5,4.5c0.6,1.1,1.3,3.6-0.3,4.3c-1.6,0.6-3.1-2.4-2.6-4.3
			c0.5-1.9-0.8-5.2-2.4-3.9c-1.6,1.3,0,3.5-0.7,6.3c-0.8,2.8,2.5,5.7,2.5,5.7s1.5,1.8,5.3,2.6C34.5,128.2,37,128,37,128z"/>
	</g>
	<g>
		<path class="st3" d="M635.1,182.3c0-0.3,0.1-0.5,0.3-0.7h0.3c0.1-0.2,0.3-0.4,0.5-0.5c0.2-0.1,0.4-0.2,0.6-0.4
			c0.2,0.1,0.3,0.1,0.4,0.1c0,0,0.2,0,0.4-0.1c0.1,0,0.2,0,0.3,0c0.1,0,0.6,0.1,1.7,0.2c0.2,0,0.3,0,0.5,0c0.1,0,0.2,0,0.4-0.1
			c0.4,0.3,0.6,0.4,0.8,0.4h0.2l0.4,0c0.3-0.2,0.6-0.3,0.9-0.3c0.1,0,0.4,0.1,1,0.3l0.7,0.1l0.7,0.2c0,0,0.1,0,0.3-0.1
			c0.1-0.1,0.3-0.1,0.4-0.1l3.4,0l0.1,0.2l0.9,0.1l0.3-0.3c0.7,0,1.4-0.1,2.1-0.2c0.1,0,0.3,0,0.4,0s0.3,0,0.4,0
			c0.4,0,0.6,0.1,0.7,0.1c0.1,0,0.9-0.2,2.4-0.5l1-0.1c0.5-0.1,0.7-0.1,0.8-0.1c0.1,0,0.3,0,0.7,0.1c0,0.2-0.1,0.4-0.3,0.6l-0.2,0.2
			l-0.8,0.5c-0.1,0-0.2,0.2-0.5,0.4c-0.3,0.2-0.4,0.3-0.6,0.3h0c-0.3,0-0.6,0-0.8-0.1c-0.1,0-0.3-0.1-0.6-0.2h-0.2h-0.1h-0.8
			c-0.1,0-0.5,0-1-0.1l-1,0.1h-0.7l-1,0.2l-1.2-0.1l-0.6,0l-0.4,0l-1,0.1l-0.9,0l-0.4,0.2l-1.9-0.1l-0.5,0.1c0,0-0.1,0-0.4-0.1
			c-0.2-0.1-0.6-0.1-1.4-0.1H641c-0.1,0-0.3,0-0.7,0.1l-0.5-0.1c-0.1,0-0.2,0.1-0.4,0.3c0.2,0.3,0.3,0.6,0.3,1c0,0.3,0,0.5,0,0.7
			c-0.2,0.2-0.4,0.4-0.6,0.4c0,0-0.1,0-0.2-0.1c0,0.2,0,0.4,0,0.4c0,0.1,0,0.1,0,0.2c0.1,0.1,0.1,0.1,0.3,0.2
			c0.1,0.1,0.2,0.2,0.4,0.3c-0.1,0.3-0.1,0.6-0.1,0.7c0,0.1,0.1,0.4,0.2,1.1c0.2,0.1,0.7,0.1,1.3,0.2l1.1,0.2l0.8,0l0.7,0.1
			c0.4,0,0.9,0,1.3,0.1c0.2,0,0.4,0,0.6,0c0.2,0,0.4,0,0.5,0c0.3-0.1,0.6-0.1,0.7-0.1c0,0,0.2,0,0.7,0.1c0,0,0.1,0,0.1,0
			c0.1,0,0.4,0,0.9-0.1c0.1,0,0.3,0,0.4,0c0.3,0,0.7,0,1.2,0c0.8,0,1.5-0.1,1.9-0.2c0,0,0.1,0,0.1,0c0.1,0,0.3,0,0.5,0
			c0.1,0,0.3,0,0.6,0v-0.2c0.3,0,0.5-0.1,0.6-0.1l0.1-0.1l0.7,0.9c0.2-0.3,0.3-0.5,0.4-0.6c0.1-0.1,0.2-0.2,0.4-0.3
			c0.3-0.2,0.5-0.3,0.6-0.3c0.1,0,0.3,0,0.5,0.1c0,0.4-0.1,0.6-0.1,0.6c0,0.1-0.2,0.2-0.5,0.4v0.5c-0.2,0.1-0.4,0.3-0.6,0.5
			c-0.3,0.1-0.5,0.1-0.6,0.1c-0.2,0-0.3-0.1-0.5-0.2c-0.4-0.5-0.7-0.7-0.7-0.7c0,0-0.2,0.3-0.6,0.8c0,0,0,0-0.1,0c0,0-0.1,0-0.1,0
			c-0.1,0-0.3-0.1-0.5-0.2c-0.1,0.1-0.4,0.1-0.9,0.2c-0.5-0.1-0.8-0.1-0.9-0.1s-0.4,0-1,0.1l-0.6-0.1l-0.7,0l-0.4,0l-1.2,0.2
			l-1.2-0.2l-1.5,0l-0.5-0.1l-0.6,0l-0.5,0l-0.4,0.1l-0.7,0c-0.4,0-0.7,0.1-1.1,0.1c0.1,0.3,0.2,0.6,0.2,1l0.1,0.5l0,1.5l0.1,0.9
			c0,0.1-0.1,0.2-0.2,0.4l-0.3,0.1l0-0.1c-0.1,0.2-0.1,0.4-0.1,0.5c0,0.1,0,0.1,0,0.3l0.1-0.1c0.2,0.2,0.3,0.3,0.4,0.4
			c0,0,0,0.2,0,0.5c0,0.2-0.1,0.3-0.3,0.5c0,0.2,0.1,0.6,0.3,1c0,0.1,0.1,0.3,0.1,0.5c0,0.1,0,0.2,0,0.3l-0.4,0.2c0,0.1,0,0.3,0,0.4
			c0,0.2,0.2,0.4,0.5,0.6c-0.1,0.2-0.1,0.3-0.1,0.3l0.2,0.8l0,0.7l0.1,0.4l-0.1,0.5l0,0.6l-0.1,0.4l-0.1,1.1c0,0.3,0,0.4,0,0.4
			c0,0.1,0,0.2,0.1,0.4l-0.6,0.4c0,0.2,0.1,0.4,0.2,0.7h0.1c0.1-0.1,0.2-0.2,0.3-0.2c0.1,0,0.2,0.1,0.4,0.2
			c-0.1,0.4-0.2,0.7-0.2,0.8c0,0,0.1,0.2,0.2,0.5l0,1.2l0.1,1.4c0,0.4-0.3,0.9-0.9,1.4c0,0.3,0,0.5,0.1,0.7c0,0.1,0.1,0.1,0.3,0.2
			c0.1,0,0.2,0.1,0.4,0.3l0.7-0.6h0.7l1.3-0.3l0.6,0.1c0.6,0,0.9,0,0.9,0c0,0,0.2,0.1,0.6,0.3c0,0,0.1,0,0.1,0
			c0.2,0,0.4-0.1,0.7-0.3l0.1,0l0.1,0l0.5,0.7l0.6-0.5c0.1-0.1,0.2-0.2,0.2-0.2h0.1l1.9,0.1l0.6,0c0.3,0,0.5,0,0.6,0
			c0.1,0,0.2,0,0.2,0c0,0,0.2,0,0.6-0.1c0,0,0.1,0,0.1,0c0.1,0,0.1,0,0.2,0c0.7,0.1,1,0.1,1.1,0.1c0,0,0.2,0,0.7-0.1h0.3l3-0.1
			l0.2,0c0,0,0.1,0,0.2,0c0.1,0,0.1,0,0.2,0c0,0,0.2,0,0.5,0.1c0.1,0,0.2,0,0.5,0l0.2,0.6l0.5,0.1v-0.6l0-0.1l0.2-0.1
			c0.3,0.5,0.5,0.8,0.6,0.8c0,0,0.4-0.2,1-0.7c0.1-0.1,0.3-0.2,0.4-0.2c0.1,0,0.3,0.1,0.5,0.2c0.3-0.1,0.4-0.1,0.5-0.1
			c0.2,0,0.3-0.1,0.4-0.1c0-0.2,0.1-0.3,0.2-0.3c0.1-0.1,0.3-0.1,0.4-0.2c0.3,0,0.5,0,0.7,0c1-0.2,1.5-0.3,1.7-0.4
			c0.3-0.2,0.4-0.2,0.5-0.2c0.2,0,0.3,0.1,0.3,0.4c0,0.1,0,0.2-0.2,0.5c-0.1,0.2-0.2,0.4-0.2,0.6c-0.2,0.1-0.3,0.2-0.3,0.2l-0.1,0.4
			c-0.3,0.4-0.9,0.5-1.7,0.5l-0.5,0.1l-0.9-0.8l-1.2,0.9l-0.7-0.1l-0.9,0L659,212h-0.8l-0.9-0.1c0,0-0.1,0-0.2,0.1l-0.2-0.2
			c-0.3,0.2-0.5,0.2-0.7,0.2c-0.1,0-0.5-0.1-1.2-0.2c-0.1,0-0.5,0-1.1,0c-0.3,0-0.6,0-0.8,0c-0.3,0-0.5,0.1-0.7,0.1
			c0,0-0.5-0.1-1.5-0.2c-0.2,0-0.3,0-0.3,0c-0.1,0-0.2,0-0.3,0L650,212c-0.2,0-0.4-0.1-0.4-0.1l-1.8,0h-0.7l-1,0.1
			c-0.1,0-0.2,0-0.4-0.1l0.1-0.3c-0.3,0-0.6,0-0.9,0.1l-0.1,0.5h-0.3h-0.1l0,0h0c0,0,0,0-0.1,0c-0.2-0.1-0.5-0.2-0.7-0.2
			c-0.2,0-0.3,0-0.4,0.1l0,0c0,0-0.2-0.2-0.5-0.6c-0.1-0.1-0.2-0.2-0.3-0.2c-0.1,0-0.5,0.2-1.2,0.7c-0.2,0.1-0.4,0.2-0.6,0.2
			c-0.1,0-0.3-0.1-0.8-0.2c0,0-0.1,0-0.2,0c-0.1,0-0.4,0-1.1,0.2l-0.9,0c-0.8,0.2-1.2,0.3-1.3,0.3c-0.1,0-0.3,0-0.6-0.1
			c0-0.1,0-0.2,0-0.3c0-0.1,0-0.3,0.1-0.5c0.1,0,0.1,0,0.1,0c0.1,0,0.3-0.1,0.4-0.2c0.1-0.1,0.3-0.5,0.6-1.2l0-0.9c0,0,0,0,0-0.1
			c0.2-0.2,0.2-0.3,0.2-0.3c-0.1-0.2-0.1-0.3-0.1-0.4c0,0,0-0.1,0-0.2c0.1-0.7,0.1-1.4,0.1-2.3c0-0.3,0.1-0.7,0.2-1.2
			c0-0.1,0.1-0.2,0.3-0.3c0.1-0.1,0.2-0.2,0.2-0.3c0-0.2,0-0.4,0.1-0.5l-0.2,0.4h-0.1c0-0.2-0.1-0.3-0.3-0.5c0-0.2,0-0.3,0-0.4
			l0-0.7v0l0.4-0.5l0.3-0.9c0-0.1,0.3-0.2,0.7-0.4l0.1,0c0-0.1-0.4-0.2-1.3-0.5l0.6-0.2v-0.2l-0.4-0.2c-0.1-0.2-0.2-0.4-0.3-0.5
			c0-0.3,0-0.5,0.1-0.8l-0.2-1.5l1.3-1l-1.3-1.7l1-0.4l-1.1-0.4l0.4-0.2c0-0.3,0-0.6,0.1-0.9c-0.1-0.1-0.2-0.2-0.4-0.3
			c-0.1-0.1-0.1-0.1-0.2-0.2c0-0.4-0.1-0.6-0.1-0.7c0-0.4,0-0.7-0.1-0.8c0-0.1,0-0.1,0-0.2c0-0.1,0.1-0.3,0.3-0.5
			c-0.1-0.1-0.1-0.2-0.3-0.2c0,0-0.1,0-0.1,0c0-0.2-0.1-0.4-0.1-0.5c0-0.2,0.1-0.4,0.3-0.6c-0.3-0.2-0.4-0.4-0.4-0.7v-2.1
			c0-0.3,0-0.7-0.1-1.3c-0.1-0.6-0.1-1-0.1-1c0,0-0.1-0.1-0.2-0.2v-0.8l-0.6,0.1v-0.1l-0.1-0.1c-0.2,0-0.3,0-0.3,0
			C635.4,182.3,635.3,182.3,635.1,182.3z"/>
		<path class="st3" d="M671.7,201.1c0.1-0.2,0.3-0.4,0.4-0.4c0.1-0.1,0.4-0.1,1-0.3c0.4-0.2,0.7-0.3,0.9-0.4c0.1,0,0.4-0.1,1-0.1
			l0.5-0.2l0.3,0l0.3,0h0.7l1.3-0.2c0.4,0,0.6-0.1,0.7-0.2c0.2-0.1,0.3-0.4,0.3-0.6c0-0.1,0-0.2-0.1-0.5l0.9-1.1c0,0-0.3-0.1-1-0.3
			c-0.1,0-0.2,0-0.5,0c-0.5-0.6-0.8-1-0.9-1c-0.1,0-0.5-0.1-1.3-0.2h-0.5c-0.2-0.1-0.4-0.1-0.5-0.1c-0.1,0-0.2,0-0.4,0l-0.3-0.4
			c-0.2,0.1-0.4,0.2-0.6,0.4c-0.1,0.1-0.3,0.2-0.5,0.3c-0.6,0.2-1.1,0.5-1.4,0.8l-0.2,0.2c-0.1,0.2-0.2,0.3-0.3,0.4
			c-0.1,0.1-0.3,0.1-0.5,0.1c-0.1,0-0.3-0.1-0.6-0.2c-0.4-0.1-0.6-0.2-0.7-0.2c-0.1-0.1-0.2-0.2-0.4-0.4c0.2-0.1,0.3-0.2,0.4-0.3
			c0.2-0.2,0.3-0.3,0.4-0.3l0.8-0.2l0.5-0.3l1.1-0.3l0.7-0.3h0.7l0.8-0.2l0.3,0l0.6-0.1c0.5,0,0.9,0,1,0c0.2,0,0.5,0.1,0.9,0.2
			l0.4,0.1c0.4,0.1,0.7,0.1,0.9,0.2c0.2,0,0.4,0.1,0.6,0.4c-0.2,0.2-0.3,0.3-0.3,0.4c0,0.2,0.1,0.2,0.2,0.2c0.1,0,0.2,0,0.4-0.1
			c0.1,0,0.3-0.1,0.5-0.2c0.1,0.1,0.2,0.3,0.2,0.6l0.4,0.3c0,0.1,0,0.2,0,0.2l-0.1,0.7c0.1,0.5,0.2,0.8,0.4,0.9h0.1
			c0,0.2,0.1,0.5,0.1,0.8c0,0.6,0.1,1.1,0.1,1.3c-0.3,0.2-0.4,0.3-0.4,0.5c0,0.2,0.2,0.3,0.5,0.5c0,0.1,0,0.3,0,0.4
			c0,0.1,0,0.3-0.1,0.6c0,0.1,0,0.2,0,0.4c0,0.4,0.1,0.8,0.2,1.4c-0.2,0.2-0.3,0.4-0.3,0.6c0,0.2,0.1,0.4,0.3,0.7
			c0,0,0.1,0.2,0.1,0.3c0,0.1,0.1,0.2,0.2,0.5c-0.1,0.1-0.2,0.3-0.3,0.4c-0.1,0.1-0.3,0.2-0.5,0.3l-0.6,0.3l-0.4,0.1
			c-0.4,0.1-0.6,0.2-0.7,0.2c-0.1,0-0.2-0.1-0.4-0.2l0.3-1.1c-0.3,0.1-0.8,0.2-1.4,0.5l-0.5,0.1c-0.3,0.1-0.4,0.1-0.5,0.1l-0.6-0.1
			l-0.6,0.3l-0.3,0l-1.4,0.3l-0.7-0.1c-0.3,0.1-0.6,0.2-0.7,0.2c-0.2,0-0.6-0.1-1.3-0.2l-0.7-0.1l-0.5-0.2c-0.4-0.1-0.7-0.3-0.9-0.4
			c-0.2-0.1-0.3-0.3-0.4-0.6l-0.4-0.1c0-0.1-0.1-0.3-0.2-0.6l-0.2-0.7v0c0-0.1,0.1-0.3,0.2-0.5c0.1-0.2,0.3-0.5,0.5-0.9
			c0.5-0.5,0.9-0.9,1.1-1c0.2-0.1,0.5-0.3,1.1-0.5c0.3-0.2,0.5-0.3,0.6-0.3C671.5,201,671.6,201.1,671.7,201.1z M670.7,204.6
			c-0.1,0.1-0.2,0.3-0.3,0.5c-0.1,0.2-0.2,0.3-0.2,0.4l0.2,0.3l0.5-0.4c0.4,0.3,0.6,0.4,0.8,0.4c0.4,0.1,0.6,0.2,0.7,0.2
			c0.1,0,0.2,0.2,0.3,0.4c0.3,0,0.4,0.1,0.5,0.1c0.1,0,0.2,0,0.2,0c0.1,0,0.3-0.1,0.5-0.2c0.2,0.1,0.3,0.2,0.4,0.2
			c0,0,0.1-0.1,0.4-0.2l0.5,0.1l0.9-0.3l0.4-0.2l0.4,0.1l0.6-0.3l0.7-0.3c0.2-0.3,0.3-0.5,0.4-0.5c0.1-0.1,0.3-0.2,0.6-0.3l0.1-0.5
			c0.2-0.1,0.3-0.3,0.4-0.5c-0.2-0.1-0.3-0.2-0.3-0.4c0-0.2,0-0.3,0-0.4v-0.3c0-0.3,0-0.6,0-0.8c0-0.1,0-0.1,0-0.2
			c0-0.1,0-0.3,0.1-0.6c-0.1,0-0.2-0.1-0.4-0.2l-0.7,0l-0.7,0l-0.5,0h-0.3c0,0-0.2-0.1-0.5-0.3l-0.4,0.1c-0.4,0-0.8,0-1,0.1
			c-0.1,0.1-0.2,0.1-0.3,0.1c0,0-0.2,0-0.4-0.1c0,0,0,0,0,0c-0.1,0-0.2,0.1-0.5,0.3c0,0-0.3,0.1-0.9,0.3c-0.7,0.3-1.2,0.6-1.5,0.9
			c0,0-0.2,0.2-0.4,0.5c-0.1,0.1-0.3,0.2-0.6,0.3c0,0.1-0.1,0.1-0.1,0.2c0,0,0,0.1,0.1,0.2l0.1,0.9
			C670.4,204.3,670.5,204.4,670.7,204.6z"/>
		<path class="st3" d="M685.4,195.2c0.1-0.4,0.2-0.7,0.5-0.7h0l0.8,0.1h0c0.6-0.1,1-0.1,1.1-0.2c0-0.2,0-0.3,0-0.4
			c0-1,0-1.9-0.1-2.6c0-0.3-0.1-0.6-0.2-0.8l-0.2-0.4c0-0.1-0.1-0.2-0.1-0.3c0-0.2,0.1-0.4,0.4-0.6c0.4-0.4,0.9-0.6,1.6-0.8
			c0.1-0.3,0.3-0.5,0.5-0.5c0.1,0,0.1,0,0.2,0.1c0.2,0.2,0.2,0.4,0.2,0.7c0,0-0.1,0.9-0.2,2.6c-0.1,0.5-0.2,0.7-0.3,0.8
			c0,0.2-0.2,0.3-0.4,0.5c0,0.2,0,0.4,0.1,0.7h0.4l-0.1,0.9c0.3,0,0.9,0.2,1.7,0.4c0.1,0,0.2,0,0.6,0c0.2,0,0.5-0.1,1-0.2l1.1-0.1
			c0.6-0.2,0.9-0.3,1-0.3c0.1,0,0.3,0,0.5,0.1c0,0.3-0.1,0.5-0.1,0.7c0,0.2-0.4,0.5-1.1,0.9c-0.2,0.1-0.3,0.2-0.3,0.2
			c-0.2,0.2-0.3,0.3-0.3,0.3c-0.1,0-0.2,0.1-0.4,0.1c-0.2,0-0.3,0-0.4-0.1l-0.7-0.4l-0.4-0.1l-0.5-0.4l-0.9,0.7L690,196
			c-0.1,0-0.2,0.1-0.3,0.2c0.1,0.5,0.1,1,0.1,1.4c0,0.2,0,0.4,0,0.8c-0.4,0.1-0.6,0.2-0.6,0.5c0,0.1,0,0.2,0.1,0.4
			c0.2,0,0.5,0.1,0.6,0.1l0,2.1c-0.2,0-0.3-0.1-0.4-0.1c-0.2,0-0.3,0.1-0.3,0.2c0,0.1,0,0.3,0.2,0.5c0.2-0.1,0.3-0.2,0.4-0.2
			c0.2,0,0.3,0.1,0.3,0.3l-0.1,0.7v0c0,0.5,0,0.8,0.1,1c0,0.2,0.1,0.4,0.2,0.6l0.2,0.4c0,0,0,0.1,0,0.2c0,0.1,0,0.2,0,0.4
			c0.3,0.2,0.7,0.3,1.2,0.3c0.4,0,0.7-0.1,1.1-0.3c0.3-0.2,0.4-0.2,0.5-0.3l0.9-0.8c0.5-0.4,0.7-0.6,0.8-0.6c0.1,0,0.2,0.1,0.4,0.2
			c0,0.2-0.1,0.4-0.1,0.4c-0.1,0.6-0.2,0.9-0.2,1c-0.1,0.1-0.4,0.2-1,0.4c-0.5,0.2-1.1,0.5-2.1,0.8l-0.6,0.2
			c-0.4,0.2-0.6,0.3-0.7,0.3c-0.1,0-0.2-0.1-0.3-0.3l-0.3-0.1l-0.2,0.4c-0.2,0-0.3,0-0.4,0c-0.3,0-0.6-0.2-1-0.6
			c-0.2-0.2-0.3-0.4-0.4-0.6c0,0-0.1-0.2-0.1-0.4c-0.1-0.4-0.2-0.6-0.2-0.6c0-0.1,0-0.3,0-0.5c0-0.2,0-0.6,0-1.1
			c0-0.4,0.1-0.6,0.3-0.8c-0.1-0.2-0.1-0.5-0.1-0.8c-0.1-0.5-0.1-1.5-0.1-2.9c0.3-0.2,0.4-0.3,0.4-0.5c0-0.1,0-0.2,0-0.3l-0.5-0.1
			l0-0.2v0c0-0.1,0-0.2,0.1-0.4c0.1-0.3,0.1-0.8,0.1-1.5c-0.5-0.1-0.8-0.2-1-0.2c-0.1,0-0.4,0-0.9,0.1l-0.4,0
			c-0.3,0.1-0.5,0.2-0.5,0.2c-0.2,0-0.2-0.1-0.2-0.2C684.7,195.7,685,195.5,685.4,195.2z"/>
		<path class="st3" d="M706.1,181.2c0.1-0.1,0.2-0.2,0.2-0.2l0.7-0.4c0.5-0.3,0.9-0.5,1.2-0.6c0.5-0.1,0.9-0.4,1.3-0.7
			c0,0,0.1,0,0.1,0l0.3,0.2c0,0.2-0.1,0.3-0.3,0.5l0.4,0.2c-0.4,0.3-0.7,0.5-0.7,0.7l-0.4,1.3l-0.5,0.5l1.3,0.4
			c-0.1,0.1-0.1,0.1-0.1,0.1c0,0,0,0-0.1,0h0l-0.4-0.1c0,0.2,0,0.4,0.1,0.4c0,0.1,0.1,0.1,0.4,0.2l0.1,0.1v2.6v0.4l0,0.4
			c0,0,0,0.1-0.1,0.2c0,0.1-0.1,0.2-0.1,0.4c0.2,0.1,0.4,0.3,0.4,0.4c0,0.1,0,0.3-0.1,0.5c0.6-0.2,1-0.3,1.3-0.3
			c0.5,0,1,0.1,1.6,0.3c0.1,0,0.3,0.2,0.6,0.6c0.1,0,0.4,0.1,1,0.3l1.9-0.8l0,0c0.1,0.3,0.2,0.4,0.4,0.6l0.4-0.3l0.4,0.1
			c0.1-0.1,0.2-0.2,0.3-0.2c0,0,0.1,0,0.2,0l0.3-0.3v-0.1c0.2,0,0.3,0.1,0.3,0.1c0.2,0.1,0.4,0.2,0.5,0.2h0c0.4-0.1,0.6-0.2,0.7-0.2
			l1.5,0.1h0.4l0.4,0c0.6,0,1,0,1.1,0c0.1,0,0.2-0.1,0.5-0.2c0.3,0.1,0.5,0.1,0.5,0.1c0,0,0.2,0,0.5-0.1l0.5,0
			c0.4-0.1,0.7-0.2,0.7-0.2c0.1,0,0.3,0.1,0.5,0.2c0.1,0,0.2,0,0.3,0c0.1,0,0.3,0,0.4,0.1c0.2,0.1,0.3,0.2,0.5,0.2
			c0.3-0.3,0.5-0.5,0.6-0.6c0.1,0,0.5-0.1,1.3-0.1l0.7-0.1l0.5,0.1l0.6,0l0.5,0c0.2,0,0.3-0.1,0.4-0.3c0-0.1,0.1-0.3,0.2-0.7
			c-0.3-0.5-0.4-0.8-0.4-0.9c0,0,0-0.2,0.2-0.6l0-0.7c0-0.1,0.1-0.2,0.1-0.3c0-0.1-0.1-0.2-0.2-0.4l0.1-0.5v0c0-0.1-0.1-0.2-0.4-0.4
			c0,0,0-0.1,0-0.1c0-0.1,0-0.2,0.1-0.5c0.1-0.2,0.1-0.4,0.1-0.7c0-0.1-0.1-0.3-0.2-0.5c0-0.1,0-0.2,0-0.2c0-0.1,0-0.2,0-0.4
			c-0.4-0.1-0.5-0.2-0.5-0.4c0-0.1,0-0.2,0.1-0.2c0,0,0.2-0.2,0.5-0.3c0.4-0.2,0.6-0.4,0.7-0.4c0.2-0.1,0.4-0.2,0.4-0.3
			c0.3-0.1,0.5-0.1,0.6-0.2c0.5-0.2,0.8-0.3,0.9-0.3c0,0,0.1,0,0.2,0.1c0,0.3-0.1,1-0.1,2.2c0,0.1-0.1,0.4-0.2,0.9l-0.4,0.1
			c-0.1,0.2-0.1,0.4-0.1,0.5c0,0.1,0,0.2,0.1,0.3c0.2,0.1,0.4,0.2,0.4,0.3l0.1,0.2l0.2,0.4c-0.1,0.4-0.1,0.6-0.1,0.7
			c0,0,0,0.1,0,0.2c0,0.4,0,0.6,0,0.7c0,0.9-0.1,1.5-0.2,1.8c0.2,0.2,0.3,0.4,0.3,0.5c0,0.1-0.1,0.3-0.4,0.6
			c-0.1,0.1-0.1,0.4-0.2,0.8l0.4,0v3.3c0,0.1-0.1,0.3-0.2,0.6c-0.1,0.2-0.1,0.3-0.1,0.5l0.3,0.2c-0.1,0.2-0.1,0.3-0.1,0.4
			c0,0.1,0,0.3,0,0.4c-0.1,0.1-0.2,0.1-0.2,0.1c-0.1,0-0.1,0-0.2,0c0,0.3,0.1,0.5,0.2,0.5c0.2,0.1,0.3,0.2,0.4,0.2
			c-0.1,0.5-0.2,0.9-0.2,1.1c0,0.1,0,0.2,0,0.3c0.1,0.5,0.1,0.7,0.1,0.8c0,0.1,0,0.2-0.2,0.4l-0.4-0.1v0.2l0.3,0.2
			c0.1,1.1,0.2,2,0.2,2.7c-0.3,0.2-0.5,0.3-0.5,0.5c0,0.4,0.2,0.8,0.5,1.1c0,0.1,0,0.3-0.1,0.5c0.1,0.5,0.2,0.8,0.2,0.8
			c0,0.1,0,0.2,0,0.4c0,0.2,0,0.4,0,0.6c0,0.3,0,0.5,0,0.6c0,0.1,0,0.3,0,0.3c0,0.1,0,0.2-0.1,0.2l-1.3,0.4l1.3,0.6l0,0.4
			c0,0,0,0.1,0.1,0.3v0c0,0,0,0.1-0.1,0.1c-0.9,0.4-1.3,0.7-1.3,1c0,0.3,0.4,0.6,1.1,0.9c0.4,0.2,0.6,0.3,0.6,0.5
			c-0.2,0.1-0.4,0.2-0.5,0.3c-0.3,0.2-0.6,0.3-1,0.5l-0.4,0.2c-0.5,0.4-0.8,0.6-0.9,0.6c-0.2,0.1-0.4,0.1-0.5,0.1
			c-0.2,0-0.3-0.1-0.3-0.2l0-1.1c0-0.1,0-0.2-0.1-0.4c0.3-0.3,0.4-0.5,0.4-0.7c0-0.2,0-0.4,0-0.9c0-0.3,0-0.5,0-0.6
			c0.1-0.4,0.2-0.7,0.5-0.8l1-0.5c-0.8-0.3-1.3-0.5-1.3-0.6c0,0,0.4-0.3,1.3-0.7l-1.2-1.2c0.2-0.3,0.2-0.5,0.3-0.8v0
			c0-0.1,0-0.2-0.1-0.3c-0.1-0.2-0.1-0.3-0.1-0.4l0-2.9c0,0,0-0.1,0-0.3c0.3-0.2,0.4-0.4,0.4-0.5c0-0.1,0-0.2-0.1-0.4
			c-0.1-0.1-0.1-0.3-0.2-0.5l-0.4-0.1c0.1-0.5,0.1-0.8,0.1-0.8c0-1.2,0-2,0-2.2h0.1c0.1-0.1,0.2-0.3,0.2-0.5c0-0.2,0.1-0.5,0.1-0.7
			c-0.2-0.2-0.3-0.3-0.3-0.5c0-0.1,0-0.3,0-0.6c0,0,0-0.1,0-0.4l-0.1-0.9c0,0,0-0.3,0.1-0.7c0.1-0.5,0.3-0.7,0.7-0.8l0.1-0.4h-0.1
			c-0.1,0-0.3-0.1-0.5-0.2c-0.8,0-1.3,0-1.5,0.1c-0.3,0-0.5,0.1-0.6,0.1c-0.1,0-0.5,0-1.1-0.1c-0.2,0-0.5,0-0.8,0
			c-0.3,0-0.7,0-1.1,0l-0.3,0c-0.4,0-0.6,0-0.7,0.1c-0.4,0.1-0.6,0.1-0.7,0.1c-0.1,0-0.3-0.1-0.6-0.2c-0.3-0.2-0.5-0.3-0.6-0.3
			c-0.1,0-0.2,0.1-0.5,0.3c-0.2,0.1-0.4,0.2-0.6,0.2c-0.1,0-0.5,0-1.2-0.1c-0.1,0-0.2,0-0.4,0c-0.4,0-0.8,0.1-1.3,0.2
			c-1.1,0-1.6,0-1.7,0c-0.1,0-0.3,0-0.6-0.1c-0.4,0.3-0.7,0.4-0.8,0.4c0,0-0.4-0.1-1.2-0.2l-0.5-0.7l-0.7,0.8l-0.8-0.1l-0.4,0.1
			h-0.5l-0.9,0.1l-0.4,0c-0.3,0-0.6,0-0.9-0.1c-0.1,0-0.1,0-0.2,0c-0.1,0-0.2,0-0.4,0.2v2.4c0,0.7,0,1.1,0.1,1.3
			c0,0.3,0.1,0.4,0.1,0.6v0c0,0.1,0,0.1,0,0.2l0,0.9c0,0,0,0-0.1,0.1c-0.1,0.2-0.2,0.3-0.2,0.3l0.1,0.6c0,0,0,0.2-0.1,0.4v0
			c0.1,0.7,0.2,1,0.2,1.1c0,0.3-0.1,0.7-0.4,1.3c0.2,0.2,0.3,0.3,0.3,0.4l0.1,0.3c0,0,0,0.1,0.1,0.2c0,0.1,0.1,0.2,0.1,0.2
			c0,0,0,0.2,0,0.6l-0.3,0.5v1c-0.1,0.3-0.1,0.6-0.1,0.8s0,0.3,0,0.3c0.1,0.1,0.2,0.2,0.4,0.3c-0.1,0.3-0.1,0.7-0.2,1.3l0,0.6l0.1,1
			v3.1l0,0.2l-0.2,0.2l0.2,0.4c-0.2,0.1-0.3,0.2-0.4,0.3c-0.4,0.3-0.8,0.5-1.2,0.7l0-0.1v-0.1c-0.4,0-0.6,0-0.7,0.1
			c-0.1,0-0.1,0.2-0.2,0.4l-0.6,0.1c0-0.4,0-0.7,0-0.8c0-0.2,0.1-0.6,0.2-1c0-0.3,0-0.5,0-0.6c0.1-0.2,0.2-0.6,0.2-1.3l0.1-2
			c0-0.2,0-0.4,0.1-0.4l0.3-0.2c0.1,0,0.1-0.1,0.1-0.2c0-0.2,0-0.3-0.1-0.6h-0.2c-0.1-0.2-0.1-0.3-0.1-0.4l0.1-0.7v-0.8
			c0.1-0.2,0.1-0.5,0.2-0.8c0.2,0,0.4-0.1,0.5-0.2l-0.1-1l-0.4,0c0-0.2,0-0.6,0-1.3c-0.1-0.5-0.2-0.8-0.2-1c0-0.1,0-0.5,0.1-1.2
			c0-0.2,0-0.4,0-0.6c0-0.2,0-0.4,0-0.6c0-0.3-0.1-0.6-0.1-0.8c0-0.3,0.2-0.5,0.5-0.5c0-0.3,0-0.5,0-0.6c0-0.2,0-0.4-0.1-0.5
			c-0.1-0.1-0.2-0.2-0.5-0.3c0-0.2,0.1-0.5,0.2-0.9c0-0.1,0-0.3,0-0.4c0-0.1-0.1-0.4-0.2-0.8c0-0.2,0.1-0.4,0.1-0.4v-0.1l0-1.8
			l0-0.2c0-0.1,0-0.2,0.1-0.4l0.2,0.1c0-0.2,0.1-0.3,0.1-0.4c0-0.1-0.1-0.3-0.4-0.8c0-0.1-0.1-0.1-0.1-0.2c0-0.2,0.1-0.4,0.3-0.7
			l-0.4,0l-0.1-0.5l0.3-0.1l0.1-0.6c-0.2-0.1-0.3-0.3-0.4-0.5c-0.1-0.4-0.1-0.7-0.1-0.9c0-0.1,0-0.3,0.1-0.4
			c0.1-0.2,0.1-0.3,0.1-0.4l-0.1-0.5l0-0.4v0c0-0.1-0.1-0.2-0.2-0.4c0-0.1-0.1-0.2-0.2-0.5c-0.2,0-0.3,0-0.3-0.1
			C706.4,181.5,706.3,181.4,706.1,181.2z"/>
		<path class="st3" d="M748.8,194.6l0.5-0.3c0.2,0.2,0.3,0.3,0.4,0.4c0,0,0.1,0.1,0.4,0.2c0.1,0.1,0.6,0.5,1.4,1.4
			c0.3,0.3,0.5,0.5,0.6,0.8c0.1,0.2,0.2,0.5,0.3,0.8c0.1,0.2,0.1,0.4,0.2,0.6l-0.1,0.1c-0.1,0-0.3-0.1-0.5-0.2l-0.6,0.2l-0.6-0.1
			l-0.5,0.1c-0.7-0.5-1.1-0.7-1.1-0.7c-0.1,0-0.3,0.2-0.8,0.7c-0.7-0.1-1.1-0.2-1.1-0.2c-0.2,0-0.4,0-0.6,0l-0.1-0.1
			c-0.2,0-0.7,0-1.5,0l-0.6,0.1l-0.8,0.1l-0.8,0.1l-0.7,0c-0.6,0.2-1.1,0.3-1.3,0.3c-0.1,0.4-0.1,0.6-0.2,0.8
			c-0.1,0.2-0.2,0.3-0.4,0.6c0.4,0.2,0.5,0.4,0.6,0.5c0.1,0.7,0.2,1.2,0.3,1.4l0.3,0.2l-0.1,0.6l0.5,0.1c0.1,0.5,0.3,0.8,0.4,0.9
			c0.2,0.1,0.4,0.2,0.8,0.3c0.1,0.3,0.1,0.6,0.3,0.6c0.1,0.1,0.3,0.1,0.6,0.1l0.3,0.4c0.1,0,0.2,0,0.3,0c0.1,0,0.4,0.1,1,0.4
			c0.1,0.1,0.3,0.1,0.4,0.1c0.1,0,0.4-0.1,0.9-0.2l1.1-0.1l0.8-0.2c0.4,0,0.7-0.1,0.8-0.1c0.2-0.1,0.5-0.3,1-0.6
			c0.5-0.3,0.8-0.5,0.9-0.6c0.2-0.2,0.4-0.5,0.6-0.8c0.1-0.1,0.2-0.2,0.5-0.2c0.1,0,0.2,0.1,0.4,0.2c-0.1,0.4-0.2,0.7-0.2,0.8
			c-0.5,0.8-0.8,1.3-0.9,1.6c-0.1-0.1-0.3-0.1-0.4-0.1c-0.1,0-0.3,0.1-0.6,0.3c-0.2,0.1-0.5,0.2-0.8,0.2c-0.7,0.2-1.2,0.3-1.4,0.3
			c-0.5,0-0.7,0.1-0.9,0.1c-0.3,0.1-0.5,0.2-0.5,0.2l-1-0.2l-0.6,0.1l-0.3,0c-0.3,0-0.5,0-0.6,0c-0.1,0-0.6,0-1.2-0.1l-0.3,0
			l-0.4-0.2c-0.8-0.3-1.3-0.4-1.4-0.5c-0.1,0-0.2-0.2-0.6-0.5c0,0-0.2-0.1-0.6-0.4c-0.3-0.2-0.5-0.3-0.5-0.4l-0.3-0.5
			c0-0.1-0.2-0.3-0.6-0.6c0.1-0.2,0.2-0.3,0.2-0.4c0,0-0.1-0.3-0.4-0.9c-0.1-0.2-0.1-0.6-0.1-1.4c0-0.2,0.1-0.6,0.2-1.2
			c0.1-0.4,0.2-0.7,0.3-0.8l0.6-0.7l0.4-0.8c0.4-0.4,0.8-0.8,1.3-1.2l1.2-0.8l1.2-0.9l0.5-0.1l1.3-0.4l0.8-0.1
			c0.7-0.2,1-0.4,1.1-0.4C748.2,193.8,748.6,194,748.8,194.6z M746.9,197.1l0.3,0.3c0.2,0,0.4-0.1,0.5-0.1c0.3,0,0.6-0.1,0.9-0.2
			l1,0.1c0,0,0-0.1,0.1-0.2c0-0.1,0-0.1,0-0.2c0-0.1-0.1-0.2-0.2-0.4c0,0-0.1-0.1-0.2-0.2c-0.3-0.4-0.4-0.5-0.5-0.5l-0.6-0.3
			c-0.1,0-0.2-0.2-0.3-0.4c-0.3,0-0.9-0.1-1.7-0.1l-0.3,0l-0.6,0.3c0,0-0.3,0.1-0.9,0.2c-0.5,0.2-0.9,0.3-1.2,0.5
			c-0.1,0.1-0.3,0.2-0.7,0.6c-0.1,0.1-0.2,0.2-0.4,0.3v0.1l0,0l1.2,0.5l0.4,0.4l0.7-0.8c0.1,0,0.1-0.1,0.2-0.1c0,0,0.3,0.1,0.8,0.2
			c0,0,0,0,0,0c0.1,0,0.5-0.1,1-0.2C746.4,197.2,746.6,197.2,746.9,197.1z"/>
		<path class="st3" d="M759.8,201.1c0.1-0.2,0.3-0.4,0.4-0.4c0.1-0.1,0.4-0.1,1-0.3c0.4-0.2,0.7-0.3,0.9-0.4c0.1,0,0.4-0.1,1-0.1
			l0.5-0.2l0.3,0l0.3,0h0.7l1.3-0.2c0.4,0,0.6-0.1,0.7-0.2c0.2-0.1,0.3-0.4,0.3-0.6c0-0.1,0-0.2-0.1-0.5l0.9-1.1c0,0-0.3-0.1-1-0.3
			c-0.1,0-0.2,0-0.5,0c-0.5-0.6-0.8-1-0.9-1c-0.1,0-0.5-0.1-1.3-0.2h-0.5c-0.2-0.1-0.4-0.1-0.5-0.1c-0.1,0-0.2,0-0.4,0l-0.3-0.4
			c-0.2,0.1-0.4,0.2-0.6,0.4c-0.1,0.1-0.3,0.2-0.5,0.3c-0.6,0.2-1.1,0.5-1.4,0.8l-0.2,0.2c-0.1,0.2-0.2,0.3-0.3,0.4
			c-0.1,0.1-0.3,0.1-0.5,0.1c-0.1,0-0.3-0.1-0.6-0.2c-0.4-0.1-0.6-0.2-0.7-0.2c-0.1-0.1-0.2-0.2-0.4-0.4c0.2-0.1,0.3-0.2,0.4-0.3
			c0.2-0.2,0.3-0.3,0.4-0.3l0.8-0.2l0.5-0.3l1.1-0.3l0.7-0.3h0.7l0.8-0.2l0.3,0l0.6-0.1c0.5,0,0.9,0,1,0c0.2,0,0.5,0.1,0.9,0.2
			l0.4,0.1c0.4,0.1,0.7,0.1,0.9,0.2c0.2,0,0.4,0.1,0.6,0.4c-0.2,0.2-0.3,0.3-0.3,0.4c0,0.2,0.1,0.2,0.2,0.2c0.1,0,0.2,0,0.4-0.1
			c0.1,0,0.3-0.1,0.5-0.2c0.1,0.1,0.2,0.3,0.2,0.6l0.4,0.3c0,0.1,0,0.2,0,0.2l-0.1,0.7c0.1,0.5,0.2,0.8,0.4,0.9h0.1
			c0,0.2,0.1,0.5,0.1,0.8c0,0.6,0.1,1.1,0.1,1.3c-0.3,0.2-0.4,0.3-0.4,0.5c0,0.2,0.2,0.3,0.5,0.5c0,0.1,0,0.3,0,0.4
			c0,0.1,0,0.3-0.1,0.6c0,0.1,0,0.2,0,0.4c0,0.4,0.1,0.8,0.2,1.4c-0.2,0.2-0.3,0.4-0.3,0.6c0,0.2,0.1,0.4,0.3,0.7
			c0,0,0.1,0.2,0.1,0.3c0,0.1,0.1,0.2,0.2,0.5c-0.1,0.1-0.2,0.3-0.3,0.4c-0.1,0.1-0.3,0.2-0.5,0.3l-0.6,0.3l-0.4,0.1
			c-0.4,0.1-0.6,0.2-0.7,0.2c-0.1,0-0.2-0.1-0.4-0.2l0.3-1.1c-0.3,0.1-0.8,0.2-1.4,0.5l-0.5,0.1c-0.3,0.1-0.4,0.1-0.5,0.1l-0.6-0.1
			l-0.6,0.3l-0.3,0l-1.4,0.3l-0.7-0.1c-0.3,0.1-0.6,0.2-0.7,0.2c-0.2,0-0.6-0.1-1.3-0.2l-0.7-0.1l-0.5-0.2c-0.4-0.1-0.7-0.3-0.9-0.4
			c-0.2-0.1-0.3-0.3-0.4-0.6l-0.4-0.1c0-0.1-0.1-0.3-0.2-0.6l-0.2-0.7v0c0-0.1,0.1-0.3,0.2-0.5c0.1-0.2,0.3-0.5,0.5-0.9
			c0.5-0.5,0.9-0.9,1.1-1c0.2-0.1,0.5-0.3,1.1-0.5c0.3-0.2,0.5-0.3,0.6-0.3C759.6,201,759.7,201.1,759.8,201.1z M758.8,204.6
			c-0.1,0.1-0.2,0.3-0.3,0.5c-0.1,0.2-0.2,0.3-0.2,0.4l0.2,0.3l0.5-0.4c0.4,0.3,0.6,0.4,0.8,0.4c0.4,0.1,0.6,0.2,0.7,0.2
			c0.1,0,0.2,0.2,0.3,0.4c0.3,0,0.4,0.1,0.5,0.1s0.2,0,0.2,0c0.1,0,0.3-0.1,0.5-0.2c0.2,0.1,0.3,0.2,0.4,0.2c0,0,0.1-0.1,0.4-0.2
			l0.5,0.1l0.9-0.3l0.4-0.2l0.4,0.1l0.6-0.3l0.7-0.3c0.2-0.3,0.3-0.5,0.4-0.5c0.1-0.1,0.3-0.2,0.6-0.3l0.1-0.5
			c0.2-0.1,0.3-0.3,0.4-0.5c-0.2-0.1-0.3-0.2-0.3-0.4c0-0.2,0-0.3,0-0.4v-0.3c0-0.3,0-0.6,0-0.8c0-0.1,0-0.1,0-0.2
			c0-0.1,0-0.3,0.1-0.6c-0.1,0-0.2-0.1-0.4-0.2l-0.7,0l-0.7,0l-0.5,0h-0.3c0,0-0.2-0.1-0.5-0.3l-0.4,0.1c-0.4,0-0.8,0-1,0.1
			c-0.1,0.1-0.2,0.1-0.3,0.1c0,0-0.2,0-0.4-0.1c0,0,0,0,0,0c-0.1,0-0.2,0.1-0.5,0.3c0,0-0.3,0.1-0.9,0.3c-0.7,0.3-1.2,0.6-1.5,0.9
			c0,0-0.2,0.2-0.4,0.5c-0.1,0.1-0.3,0.2-0.6,0.3c0,0.1-0.1,0.1-0.1,0.2c0,0,0,0.1,0.1,0.2l0.1,0.9
			C758.6,204.3,758.7,204.4,758.8,204.6z"/>
		<path class="st3" d="M774.2,180c0.2,0,0.3-0.1,0.4-0.2c0.3-0.2,0.5-0.3,0.6-0.4c0.3-0.1,0.6-0.4,0.8-0.7c0.1,0,0.1,0,0.2,0
			c0.3,0,0.4,0.2,0.4,0.5v0c0,0.1,0,0.1,0,0.2c0,0.1,0,0.1,0,0.1l0.2,0.6l-0.1,1.4c0,0.9,0,1.4,0,1.4c0,0.1-0.1,0.3-0.3,0.5
			l-0.1,0.5l0.4,0.1c0.1,0.3,0.1,0.5,0.1,0.6c0,0.2-0.1,0.4-0.4,0.7c0,0.3,0,0.5,0,0.6c0,0.1,0.1,0.2,0.2,0.4c0,0.2,0,0.4,0,0.5
			l-0.1,2.1v2.1c0,0.1-0.1,0.3-0.3,0.7c-0.1,0.1-0.1,0.2-0.1,0.3c0,0,0.1,0.3,0.2,0.8c0,0,0,0,0,0.1c0,0.2-0.1,0.4-0.4,0.6l0.4,0.8
			l0.2,0.1v1l0,3.8l-0.3,0.2c0,0.2,0,0.4,0,0.6c0,0,0,0.3-0.1,0.8c0,0,0,0.2,0,0.5l0.5,0.1l0,0.1l0.3,2.7l0,0.7l0.1,0.5
			c-0.2,0.4-0.3,0.6-0.3,0.6c0,0.1,0,0.1,0.1,0.2c-0.2,0.1-0.5,0.3-0.9,0.5c-0.2,0.1-0.4,0.2-0.4,0.2c0,0-0.1,0-0.3,0
			c-0.3,0.2-0.5,0.3-0.7,0.3c0,0-0.1,0-0.2-0.1c0-0.2,0-0.3,0-0.4c0-0.1,0-0.3-0.1-0.5c0-0.1,0-0.2,0-0.3c0,0,0-0.2,0.1-0.5l0-0.4
			l0.1-0.5l0-0.3l1.4-0.9l-1.4-0.9l0-0.2l0.1-0.6l0.2-0.4c0,0-0.1-0.2-0.3-0.6c0-0.1,0-0.1,0-0.2c0,0,0.1-0.3,0.2-0.7
			c0.1-0.3,0.2-0.6,0.2-0.9l-0.4-0.2c0-0.3,0-0.5,0-0.6c0-0.3,0-0.4,0-0.5c0,0,0.1-0.3,0.2-0.7c0,0,0-0.1,0-0.3c0-0.4,0-0.8-0.1-1.3
			c0-0.2,0-0.3,0-0.5c0-0.1,0.1-0.4,0.3-0.8c0-0.3,0-0.6,0.1-0.8l-0.4-0.4V189c0.1-0.1,0.2-0.2,0.3-0.3c0.1-0.2,0.2-0.4,0.3-0.7
			c-0.2-0.1-0.4-0.2-0.6-0.3c0.1-0.3,0.1-0.5,0.1-0.6c0-0.1-0.1-0.2-0.3-0.3c0-0.2,0-0.4,0-0.6l0-0.7c0-0.1,0.1-0.3,0.2-0.5
			c0,0,0.1-0.1,0.1-0.1c0,0,0-0.1-0.1-0.3c-0.1-0.2-0.1-0.3-0.1-0.3l0-0.1l1.3-0.9l-0.9-1.2c-0.4-0.6-0.7-0.9-0.7-1
			c0-0.1,0-0.3,0.1-0.6C774.2,180.4,774.2,180.2,774.2,180z"/>
		<path class="st3" d="M780.4,195.2c0.1-0.4,0.2-0.7,0.5-0.7h0l0.8,0.1h0c0.6-0.1,1-0.1,1.1-0.2c0-0.2,0-0.3,0-0.4
			c0-1,0-1.9-0.1-2.6c0-0.3-0.1-0.6-0.2-0.8l-0.2-0.4c0-0.1-0.1-0.2-0.1-0.3c0-0.2,0.1-0.4,0.4-0.6c0.4-0.4,0.9-0.6,1.6-0.8
			c0.1-0.3,0.3-0.5,0.5-0.5c0.1,0,0.1,0,0.2,0.1c0.2,0.2,0.2,0.4,0.2,0.7c0,0-0.1,0.9-0.2,2.6c-0.1,0.5-0.2,0.7-0.3,0.8
			c0,0.2-0.2,0.3-0.4,0.5c0,0.2,0,0.4,0.1,0.7h0.4l-0.1,0.9c0.3,0,0.9,0.2,1.7,0.4c0.1,0,0.2,0,0.6,0c0.2,0,0.5-0.1,1-0.2l1.1-0.1
			c0.6-0.2,0.9-0.3,1-0.3c0.1,0,0.3,0,0.5,0.1c0,0.3-0.1,0.5-0.1,0.7c0,0.2-0.4,0.5-1.1,0.9c-0.2,0.1-0.3,0.2-0.3,0.2
			c-0.2,0.2-0.3,0.3-0.3,0.3c-0.1,0-0.2,0.1-0.4,0.1c-0.2,0-0.3,0-0.4-0.1l-0.7-0.4l-0.4-0.1l-0.5-0.4l-0.9,0.7L785,196
			c-0.1,0-0.2,0.1-0.3,0.2c0.1,0.5,0.1,1,0.1,1.4c0,0.2,0,0.4,0,0.8c-0.4,0.1-0.6,0.2-0.6,0.5c0,0.1,0,0.2,0.1,0.4
			c0.2,0,0.5,0.1,0.6,0.1l0,2.1c-0.2,0-0.3-0.1-0.4-0.1c-0.2,0-0.3,0.1-0.3,0.2c0,0.1,0,0.3,0.2,0.5c0.2-0.1,0.3-0.2,0.4-0.2
			c0.2,0,0.3,0.1,0.3,0.3l-0.1,0.7v0c0,0.5,0,0.8,0.1,1c0,0.2,0.1,0.4,0.2,0.6l0.2,0.4c0,0,0,0.1,0,0.2c0,0.1,0,0.2,0,0.4
			c0.3,0.2,0.7,0.3,1.2,0.3c0.4,0,0.7-0.1,1.1-0.3c0.3-0.2,0.4-0.2,0.5-0.3l0.9-0.8c0.5-0.4,0.7-0.6,0.8-0.6s0.2,0.1,0.4,0.2
			c0,0.2-0.1,0.4-0.1,0.4c-0.1,0.6-0.2,0.9-0.2,1c-0.1,0.1-0.4,0.2-1,0.4c-0.5,0.2-1.1,0.5-2.1,0.8l-0.6,0.2
			c-0.4,0.2-0.6,0.3-0.7,0.3c-0.1,0-0.2-0.1-0.3-0.3l-0.3-0.1l-0.2,0.4c-0.2,0-0.3,0-0.4,0c-0.3,0-0.6-0.2-1-0.6
			c-0.2-0.2-0.3-0.4-0.4-0.6c0,0-0.1-0.2-0.1-0.4c-0.1-0.4-0.2-0.6-0.2-0.6c0-0.1,0-0.3,0-0.5c0-0.2,0-0.6,0-1.1
			c0-0.4,0.1-0.6,0.3-0.8c-0.1-0.2-0.1-0.5-0.1-0.8c-0.1-0.5-0.1-1.5-0.1-2.9c0.3-0.2,0.4-0.3,0.4-0.5c0-0.1,0-0.2,0-0.3l-0.5-0.1
			l0-0.2v0c0-0.1,0-0.2,0.1-0.4c0.1-0.3,0.1-0.8,0.1-1.5c-0.5-0.1-0.8-0.2-1-0.2c-0.1,0-0.4,0-0.9,0.1l-0.4,0
			c-0.3,0.1-0.5,0.2-0.5,0.2c-0.2,0-0.2-0.1-0.2-0.2C779.7,195.7,780,195.5,780.4,195.2z"/>
		<path class="st3" d="M792.8,180.3c0.1-0.2,0.3-0.4,0.7-0.6l1.1-0.6c0.3-0.1,0.6-0.2,0.9-0.2c0.1,0,0.2,0.1,0.4,0.2
			c-0.5,0.2-0.8,0.4-0.9,0.5l-0.6,0.7l1.3,1.2c0.1,0.1,0.1,0.2,0.1,0.3c0,0.1-0.1,0.3-0.2,0.6l-0.2,0.3l-0.3,0.1
			c0,0-0.1,0.1-0.1,0.2s-0.1,0.2-0.1,0.3c0,0.1,0,0.2,0.1,0.4c0.1,0,0.3-0.1,0.4-0.2c0.1-0.1,0.2-0.1,0.3-0.1l-0.2,2.9
			c0,0.1,0,0.2,0,0.4c0,0.2,0,0.3,0,0.4c0,0.2-0.1,0.5-0.4,0.8c0,0.2,0,0.4,0.1,0.5l0.3,0.4c0.1,0.1,0.1,0.2,0.1,0.4
			c0,0.1-0.1,0.4-0.2,0.8l0.1,0.7c0.1,0.6,0.1,0.9,0.1,1c0,0-0.1,0.2-0.2,0.6l0.1,0.7l0,0.3c0.1,0.3,0.1,0.5,0.1,0.5
			c0,0.1,0,0.1,0,0.2c-0.1,0.6-0.2,1.2-0.2,1.8c0,0.2,0.1,0.5,0.2,0.7c0.6-0.3,1.3-0.9,2.2-1.7l0.7,0.1c0.3-0.2,0.5-0.3,0.9-0.3
			c0.5-0.1,0.8-0.2,0.9-0.2c0.1,0,0.3,0.1,0.4,0.2l0.1,0.4h0.4c0.1-0.1,0.2-0.2,0.3-0.4c0-0.1,0.1-0.1,0.2-0.1l1,0.1
			c1,0.1,1.5,0.1,1.6,0.2c0,0,0.2,0.2,0.6,0.6c0.1,0.2,0.4,0.3,0.7,0.5l-0.2,0.5c0.1,0.1,0.3,0.2,0.6,0.2c0.2,0.3,0.4,0.6,0.4,0.9
			c0,0.4,0,0.7,0,1.2c0,0.4-0.1,0.6-0.2,0.8c-0.1,0.1-0.1,0.1-0.2,0.2l0.3,0.7l-0.3,0.4l0,0.2l0.5,0.5c-0.1,0.2-0.1,0.3-0.1,0.3
			l0,0.4l0,1l0,0.2c-0.2,0.3-0.3,0.5-0.3,0.6s0.1,0.5,0.2,1.2l0,1.4c0,0,0,0.1,0,0.2c-0.3,0.2-0.6,0.3-0.9,0.3
			c-0.2,0.1-0.4,0.3-0.6,0.3c-0.2,0.1-0.5,0.2-0.6,0.3l-0.6-0.5c0.1-0.3,0.2-0.6,0.4-0.9c0.2-0.4,0.3-0.9,0.3-1.3
			c0-0.1-0.1-0.4-0.2-0.8l0-0.2l0.1-0.6c0.1-0.4,0.2-0.8,0.3-1.4l-0.3-0.2c0-0.4,0.1-1,0.2-2c0-0.1,0-0.1,0-0.2c0,0,0-0.1,0-0.1
			c-0.1-0.5-0.1-0.8-0.1-0.8c0,0,0-0.1,0.1-0.2c0-0.1,0.1-0.2,0.1-0.2v0c0-0.1-0.1-0.2-0.2-0.6c-0.1-0.2-0.2-0.4-0.4-0.5
			c-0.1,0-0.2-0.1-0.6-0.2c-0.4-0.2-0.7-0.3-0.8-0.4c-0.1,0-0.3,0-0.7,0c-0.6-0.1-1-0.1-1.1-0.1c-0.1,0-0.2,0-0.3,0
			c-0.5,0-0.8,0.1-0.8,0.1c-0.4,0-0.9,0.1-1.4,0.2l-0.2,0.1l-1,0.5l-0.6,0.2c-0.8,0.7-1.2,1.1-1.2,1.2c0,0.3,0.4,0.5,1.1,0.7
			c0,0.2-0.1,0.4-0.1,0.5c-0.1,0.3-0.1,0.9-0.2,1.8c-0.2,0-0.4,0-0.5,0.1v0.1c0.3,0.3,0.5,0.6,0.5,0.9c0.1,0.3,0.1,0.8,0.2,1.4
			l0.1,0.5l-0.2,0.7l0.1,0.5v0.3l0,0.3c0,0.1-0.1,0.2-0.2,0.3c0,0-0.4,0.1-1.1,0.4c-0.2,0.1-0.4,0.3-0.8,0.6l-0.4-0.3
			c0-0.3,0.1-0.8,0.2-1.3v-0.5c0,0,0.1-0.2,0.2-0.5c0.1-0.1,0.1-0.3,0.1-0.4c0-0.1,0-0.2-0.1-0.3c-0.1-0.2-0.2-0.4-0.2-0.4v0l0-0.9
			v0.4v-1.2c0-0.1,0-0.1,0-0.3c0-0.1,0-0.2,0-0.2l0-0.6l0.1-1.3l-0.1-1c0-0.1,0-0.2,0.1-0.3c0,0,0.2-0.2,0.4-0.4
			c0.1-0.1,0.1-0.1,0.1-0.3c0-0.2,0-0.3-0.1-0.5l-0.4,0.1c-0.1-0.5-0.2-1.1-0.2-1.8c0-0.8,0-1.8,0.1-2.8l0.6-0.1
			c-0.1-0.2-0.2-0.5-0.3-0.8l-0.4-0.3c0-0.3,0.1-0.6,0.1-0.7c0-0.2,0-0.4,0-0.6c-0.1-0.8-0.2-1.3-0.2-1.7c0-0.3,0.1-0.5,0.3-0.7
			c0.5-0.4,0.8-0.6,0.8-0.7v0c-0.2-0.2-0.6-0.4-1.2-0.4c0-0.2,0.1-0.4,0.1-0.6c0.1-0.4,0.2-0.6,0.2-0.7c0-0.2-0.1-0.3-0.4-0.5
			c0-0.3,0-0.5,0-0.7c0-0.2,0-0.4,0-0.6c0-0.4,0-0.6,0-0.8c0-0.1,0-0.3,0.1-0.7c-0.3-0.8-0.4-1.3-0.4-1.4s0-0.2,0-0.4L792.8,180.3z"
			/>
		<path class="st3" d="M809,214.7c0.1,0.2,0.3,0.6,0.5,1l0.5,0.6c0.4,0.6,0.7,1,0.8,1.1c0.3,0,0.5,0.1,0.6,0.1l1.2,0.5
			c0.1,0,0.2,0,0.4,0c0.1,0,0.3,0,0.5,0c0.2,0.1,0.3,0.2,0.4,0.2s0.2-0.1,0.4-0.2c0.2,0,0.3,0.1,0.4,0.1c0.1,0,0.5-0.1,1.4-0.4
			l0.6-0.4c0.6-0.4,1-0.6,1.1-0.7c0.1-0.1,0.3-0.3,0.6-0.7c0.1-0.1,0.3-0.3,0.7-0.4c0.4-0.2,0.6-0.7,0.8-1.3
			c0.3-0.8,0.4-1.2,0.5-1.3c0.1-0.1,0.2-0.3,0.5-0.5c-0.1-0.4-0.1-0.7-0.1-0.7c0,0,0.1-0.6,0.3-1.7c0-0.1,0-0.2,0-0.3
			c0,0,0-0.2-0.1-0.6c0.1-0.3,0.1-0.6,0.2-1.1c0.1-0.4,0.2-0.7,0.2-0.8c0-0.1-0.1-0.3-0.2-0.8c0-0.1-0.1-0.6-0.1-1.7
			c0-0.2,0-0.3,0-0.5c0-0.2,0-0.4,0.1-0.5c0.1-0.2,0.1-0.3,0.1-0.3c0-0.1,0-0.2,0-0.3c-0.1,0-0.1-0.1-0.1-0.1
			c-0.1,0-0.4,0.2-0.9,0.5l-0.4,0.4l-0.5,0.3l-0.5,0.4l-0.5,0.3l-0.7,0.7l-0.3,0.2c-0.8,0.6-1.3,0.9-1.4,0.9c-0.1,0-0.4,0.1-0.9,0.2
			c-0.4,0.1-0.8,0.2-1.3,0.2c-0.2,0-0.7-0.1-1.5-0.4c-0.5-0.2-0.9-0.5-1.3-1c0,0-0.1-0.2-0.3-0.7c-0.1-0.2-0.1-0.4-0.1-0.5
			c0-0.1,0.1-0.3,0.4-0.5c-0.2-0.3-0.4-0.6-0.4-1c0-0.3,0.2-0.7,0.7-1.4l-0.1-0.5v0l0-0.5c0-0.4,0.2-1.2,0.5-2.1V198
			c0.2-0.8,0.3-1.3,0.3-1.4c0-0.1,0-0.2-0.1-0.3h-0.4l-0.1-0.2V196c0.2-0.2,0.3-0.3,0.5-0.6l1-0.3c0.9-0.5,1.3-0.8,1.4-0.8
			c0.1,0,0.3,0.1,0.4,0.2c0.1,0.1,0.2,0.3,0.2,0.4c0,0-0.1,0.3-0.3,0.7c-0.1,0.2-0.2,0.7-0.3,1.3l-0.5,1.7c0,0.5-0.1,0.9-0.2,1
			c-0.1,0.1-0.3,0.2-0.6,0.2c-0.1,0.2-0.2,0.3-0.2,0.5c0,0.1,0.2,0.2,0.6,0.3c-0.1,0.2-0.1,0.5-0.1,0.8l-0.2,1.1
			c0,0.3,0,0.6-0.1,1.1c-0.1,0.3-0.1,0.4-0.1,0.5c0,0.1,0.1,0.3,0.3,0.6c0.2,0.3,0.3,0.5,0.4,0.6c0,0,0.4,0.2,1,0.5
			c0.2,0.3,0.4,0.5,0.5,0.5c0.2,0,0.4-0.1,0.6-0.4c0.6-0.1,1-0.2,1.2-0.3c0.2-0.1,0.8-0.5,1.8-1.3l1-0.9l0.9-0.6l0.7-1.4
			c0-0.1,0.1-0.2,0.3-0.3c0-0.3,0-0.4-0.1-0.5c0-0.1,0-0.2,0-0.3c0,0,0-0.1,0.1-0.3l-0.1-0.5l0-0.4l-0.2-0.6l0.1-1.2l-0.1-0.4
			l-0.1-0.6c-0.3-0.5-0.4-0.8-0.4-0.8c0-0.2,0.2-0.4,0.7-0.4l0.5-0.5h0.1c0.2,0,0.4,0,0.5-0.1c0.2,0,0.4-0.1,0.6-0.1
			c0.2,0.3,0.3,0.5,0.3,0.5l-1.5,0.6l1.1,0.4c0.2,0.1,0.3,0.2,0.3,0.4c0,0.1-0.1,0.4-0.4,0.6c-0.2,0.2-0.5,0.5-0.7,0.6l-0.1,0.1
			c0,0.1,0.3,0.3,0.9,0.5c0.2,0.2,0.4,0.4,0.4,0.6c0,0.1,0,0.2,0,0.3l0.1,1c-0.2,0.4-0.2,0.6-0.2,0.7c0,0.4,0.2,0.7,0.5,1
			c-0.1,0.4-0.1,0.7-0.1,0.9l0.1,0.9v0c0,0-0.1,0.3-0.2,0.9c-0.2,0.3-0.2,0.5-0.2,0.6c0,0.1,0,0.2,0,0.2l0.4,0.3
			c-0.1,0.4-0.1,0.8-0.1,1c0,0.1,0,0.2,0,0.2c0,0.3,0.1,0.5,0.1,0.6c0,0-0.1,0.2-0.2,0.5v0.4l0,0.5l0.1,0.7L823,210l-0.1,0.6
			c-0.2,0.3-0.3,0.5-0.3,0.6c0,0.1,0,0.1,0,0.2c0,0.2,0,0.3,0,0.4c0,0.1-0.1,0.3-0.3,0.6c-0.1,0.1-0.2,0.4-0.3,0.9
			c0,0.1-0.2,0.2-0.5,0.4c0,0-0.2,0.2-0.5,0.6l-0.3,0.4l-0.3,0.3c-0.5,0.8-0.9,1.3-1.1,1.5c-0.1,0.1-0.4,0.3-0.7,0.5l-0.4,0.4
			l-0.5,0.3l-0.2,0.2l-0.6,0.2l-0.4,0.2l-0.4,0.1l-1.1,0.4l-0.5,0.1c-0.6,0.2-0.9,0.2-1,0.2c-0.1,0-0.4-0.1-1.1-0.2
			c-1,0-1.9-0.3-2.6-1l-0.5,0c-0.1-0.2-0.2-0.4-0.3-0.5c0,0-0.2-0.1-0.6-0.3c-0.1,0-0.2-0.1-0.2-0.3c-0.1-0.2-0.2-0.4-0.2-0.6
			c0-0.2,0.1-0.6,0.2-1c0.1-0.3,0.3-0.5,0.6-0.5C808.9,214.7,809,214.7,809,214.7z"/>
		<path class="st3" d="M826.8,212.3c0,0,0-0.1,0-0.1c0,0,0-0.1,0.1-0.1c0.3-0.2,0.5-0.3,0.6-0.3c0,0,0.1,0,0.1,0l0,0h0.4l0.2-0.3
			c0.3-0.1,0.6-0.2,0.9-0.4c0-0.2,0.1-0.3,0.1-0.4c0.1-0.1,0.2-0.2,0.5-0.4c0-0.2,0-0.3,0-0.4c0-0.3,0.1-0.6,0.2-0.8l0-0.5l0.1-0.4
			l-0.1-0.1c0,0-0.1-0.1-0.1-0.3c-0.1-0.7-0.3-1.1-0.6-1.3c-0.2-0.1-0.3-0.2-0.4-0.3l-0.2-0.1c0-0.2-0.1-0.3-0.2-0.4l-0.7,0.1
			l-0.1-0.1c0-0.2,0.3-0.6,1-1c0.2-0.2,0.5-0.5,0.7-0.8c0.4,0,0.7,0.2,0.9,0.3c0.3,0.2,0.4,0.4,0.6,0.6l0,0.4l0.1,0.4l0.1,0.5l0,0.3
			c0.1,0.4,0.1,0.6,0.1,0.7c0,0.1-0.1,0.3-0.2,0.5c0,0.1,0,0.2,0,0.3c0,0.1,0,0.2,0,0.2l0.1,0.6c0,0.2-0.1,0.5-0.4,0.9
			c-0.1,0.2-0.3,0.4-0.5,0.6v0.1l0.1,0.1v0.1l0,0.1c-0.2,0.3-0.3,0.5-0.4,0.6c-0.3,0.4-0.6,0.8-1,1.1c-0.2,0.2-0.4,0.3-0.6,0.3
			l-0.6,0c0,0-0.2,0-0.5,0C827,212.5,826.9,212.4,826.8,212.3z"/>
		<path class="st3" d="M842.7,181.2v-0.2c0.1-0.1,0.3-0.2,0.6-0.2c0.2-0.2,0.4-0.3,0.8-0.5c0.5-0.3,0.8-0.4,0.9-0.4
			c0.1,0,0.2,0.1,0.5,0.2c0.2-0.1,0.3-0.2,0.4-0.3c0.1-0.1,0.3-0.2,0.4-0.2c0.2,0.2,0.5,0.4,0.8,0.4c0.6,0.1,1,0.2,1.2,0.2
			c0,0,0,0,0.1,0l1.1-0.1l1,0.8c0.4-0.5,0.6-0.7,0.7-0.7c0.1,0,0.3,0.1,0.5,0.2c0.1,0,0.1,0,0.2,0l0.4,0l1.1,0.2l0.7-0.1l0.7,0.1
			l0.7,0l1.1,0l0.5-0.1l1,0l0.4,0h0.5l1.6-0.2c0.8,0.1,1.2,0.1,1.4,0.1c0.4,0,0.6,0,0.8-0.1c0.2-0.1,0.3-0.2,0.5-0.2l2.7-0.6
			c0,0.1,0,0.1,0,0.2c0,0.1,0,0.2-0.1,0.3c-0.1,0.3-0.2,0.5-0.3,0.6s-0.2,0.2-0.4,0.4c-0.4,0.4-0.8,0.7-1.1,1.1
			c-0.2-0.2-0.3-0.4-0.4-0.4h-0.4c0,0-0.2-0.2-0.5-0.6l0,0c-0.1,0-0.2,0.2-0.3,0.7v0.3c-0.3-0.1-0.5-0.2-0.5-0.3
			c-0.1-0.2-0.3-0.4-0.5-0.6c0,0,0,0,0,0l-1,0.8c0,0-0.1,0.1-0.2,0.1c-0.3,0-0.6,0-1-0.1c-0.2,0-0.4,0-0.7-0.1
			c-0.2-0.2-0.3-0.3-0.5-0.3h-0.1c-0.2,0-0.4,0-0.4,0c-0.1,0-0.4,0.1-0.8,0.2c-0.2,0.1-0.5,0.1-0.9,0.1c-0.2,0-0.5-0.1-1-0.3
			l-0.5,0.1h-0.5c-0.3,0.1-0.4,0.2-0.4,0.2s-0.5-0.1-1.6-0.4l-0.4-0.5l-0.5,0.7l-0.9-0.8l-0.3,0.5c-0.2,0.3-0.4,0.5-0.8,0.5h0
			c-0.1,0-0.2-0.1-0.4-0.3c-0.3-0.4-0.6-0.6-0.8-0.6c-0.2,0-0.4,0.3-0.5,0.9l0.1,0.1l-1.6,1.7l1.5,0.4l0,0.5v0.3
			c0,0.1-0.1,0.3-0.3,0.5l0.3,0.3l0.1,1.6c0.3,0,0.5,0,0.7,0c0.2,0,0.8,0.1,1.7,0.2l2.1,0.1l0.4,0.2l0.6-0.2
			c0.5,0.1,0.8,0.1,0.9,0.1c0.1,0,0.3-0.1,0.5-0.2c0,0,0.1,0,0.1,0c0.1,0,0.2,0,0.4,0.2l0.1-0.2c0.1,0,0.2,0,0.2,0l1.1,0.1
			c0.5,0,0.7,0,0.8,0c0,0,0.2-0.1,0.4-0.3l0.2,0.6c0,0.1,0.1,0.1,0.2,0.1c0.1,0,0.4-0.2,1.1-0.7c0.1-0.1,0.2-0.1,0.3-0.1
			c0,0,0.2,0.1,0.7,0.2c0,0,0.1,0,0.1,0c0.2,0,0.4,0,0.6-0.1c0.3-0.1,1-0.2,2.1-0.4c0.7-0.2,1.2-0.3,1.5-0.4c0,0.1,0,0.1,0,0.2
			c0,0.2,0,0.4-0.1,0.5c-0.1,0.1-0.2,0.2-0.5,0.3l0.1,0.6c-0.3,0.2-0.6,0.4-0.9,0.7c-0.3,0-0.6,0-0.7,0c-0.6,0-1-0.1-1.2-0.2
			c-0.3-0.1-0.5-0.2-0.8-0.3c-0.3,0.2-0.5,0.3-0.7,0.3c-0.1,0-0.5,0-1.3,0l-0.4,0c-0.4-0.1-0.7-0.2-0.8-0.2s-0.2,0-0.3,0
			c-0.6,0.1-0.9,0.1-0.9,0.1c0,0-0.2,0-0.7-0.1c-0.1,0-0.1,0-0.2,0c-0.1,0-0.3,0-0.6,0c-0.1,0-0.2,0-0.3,0c-0.1,0-0.3,0-0.6-0.1
			l-1,0.2l-0.6-0.1l-0.6,0.1H850l-0.7,0c-0.4-0.1-0.7-0.2-0.9-0.3l-0.1,0.1l0,0.4l-0.9-0.1c0,0-0.1,0.2-0.1,0.5
			c-0.1,0.2-0.1,0.4-0.1,0.4c0,0.1,0,0.3,0.1,0.6c0,0.8,0.1,1.4,0.1,1.7c-0.1,0.1-0.3,0.2-0.4,0.2c-0.1,0.1-0.2,0.3-0.2,0.4
			c0,0.3,0.2,0.5,0.5,0.7c-0.5,0.2-0.9,0.4-1.1,0.6c-0.1,0.2-0.2,0.5-0.2,0.9c0,0.5,0.2,0.8,0.6,1c0.5,0.2,0.8,0.4,0.8,0.5l0,0
			c-0.2,0.3-0.3,0.5-0.3,0.7c0,0.1,0,0.2,0,0.4l0.3,0.2l0,0.2l-0.1,0.1c-0.2,0-0.3,0-0.4,0.1c0,0.1,0.2,0.2,0.3,0.4
			c0,0.1,0,0.2,0,0.2l0,2.5c0,0.1,0,0.2-0.1,0.3c0,0-0.2,0.2-0.5,0.5c0,0-0.1,0.1-0.1,0.2c0,0.2,0.2,0.4,0.7,0.4l0,1.5l0,2.7
			c0.1,0.4,0.1,0.6,0.1,0.6c0,0.3-0.2,0.5-0.5,0.8c0.1,0.7,0.4,1.1,0.7,1c0,0.3,0,0.5,0,0.6c0,0.7,0.1,1.1,0.1,1.2
			c0,0.3-0.1,0.5-0.3,0.5c-0.1,0-0.2,0-0.4-0.1c0,0.3-0.1,0.5-0.1,0.5c0,0-0.1,0.1-0.4,0.1l-0.5,0.2l-0.7,0.2l-0.6,0.2
			c-0.1,0-0.2-0.1-0.4-0.2c0-0.1,0.1-0.2,0.1-0.2c0-0.1-0.1-0.3-0.2-0.5c0.1-0.2,0.3-0.5,0.4-0.8c0.2-0.3,0.3-0.4,0.3-0.5
			c0,0,0-0.2,0-0.4c0.1-0.8,0.2-1.5,0.2-2.2c0-0.1,0-0.2,0-0.5c0.1-0.1,0.1-0.1,0.2-0.1c0.1,0,0.2,0,0.4,0.1l-0.1-0.3
			c-0.1,0-0.2-0.1-0.3-0.1c-0.2,0-0.3-0.1-0.3-0.1c0-0.1-0.1-0.3-0.1-0.8c0-0.7,0-1.1,0-1.1c0-0.1,0.1-0.2,0.3-0.4
			c0-0.1,0-0.2,0-0.2c0-0.1,0.1-0.2,0.2-0.2l0,0.1l0.1-0.1v-0.4l-0.1,0.1l-0.1-0.4c-0.1,0-0.1,0-0.2,0c-0.2,0-0.3-0.1-0.3-0.3v0
			c0-0.2,0-0.3,0-0.5c0-0.2,0-0.6,0-1.2c0.1-0.2,0.2-0.4,0.2-0.4c0-0.1,0-0.2-0.1-0.3c0.2-0.2,0.3-0.4,0.3-0.6
			c0-0.1-0.1-0.3-0.3-0.4c0-0.3,0-0.5,0-0.7c0-0.2,0-0.3,0-0.5c0-0.2,0-0.3,0-0.4c0,0,0-0.2-0.1-0.6c0-0.1-0.1-0.3-0.1-0.5
			c0-0.2,0.1-0.4,0.3-0.5v-0.3h0.1l0.3-0.2l-0.2-0.6l-0.3-0.1c-0.1-0.3-0.2-0.5-0.2-0.5c0-0.1,0-0.5,0-1.4l-0.1-0.7l0-0.5
			c0-0.4,0-0.6,0-0.7c0-0.2,0-0.5,0-0.9c0.2,0,0.4,0,0.4-0.1c0,0,0.1-0.2,0.1-0.4l-0.5-1.1c0.1-0.3,0.1-0.5,0.1-0.6
			c0-0.1-0.1-0.3-0.2-0.8l-0.1-0.9l-0.2-0.8l-0.1-1l-0.1-0.6l0.1-0.5v0c0-0.1-0.1-0.4-0.3-0.8c-0.1-0.1-0.1-0.4-0.1-0.7
			c0-0.1,0-0.3,0-0.5l-0.6,0.1L842.7,181.2z"/>
		<path class="st3" d="M877.9,194.6l0.5-0.3c0.2,0.2,0.3,0.3,0.4,0.4c0,0,0.1,0.1,0.4,0.2c0.1,0.1,0.6,0.5,1.4,1.4
			c0.3,0.3,0.5,0.5,0.6,0.8c0.1,0.2,0.2,0.5,0.3,0.8c0.1,0.2,0.1,0.4,0.2,0.6l-0.1,0.1c-0.1,0-0.3-0.1-0.5-0.2l-0.6,0.2l-0.6-0.1
			l-0.5,0.1c-0.7-0.5-1.1-0.7-1.1-0.7c-0.1,0-0.3,0.2-0.8,0.7c-0.7-0.1-1.1-0.2-1.1-0.2c-0.2,0-0.4,0-0.6,0l-0.1-0.1
			c-0.2,0-0.7,0-1.5,0l-0.6,0.1l-0.8,0.1l-0.8,0.1l-0.7,0c-0.6,0.2-1.1,0.3-1.3,0.3c-0.1,0.4-0.1,0.6-0.2,0.8
			c-0.1,0.2-0.2,0.3-0.4,0.6c0.4,0.2,0.5,0.4,0.6,0.5c0.1,0.7,0.2,1.2,0.3,1.4l0.3,0.2l-0.1,0.6l0.5,0.1c0.1,0.5,0.3,0.8,0.4,0.9
			c0.2,0.1,0.4,0.2,0.8,0.3c0.1,0.3,0.1,0.6,0.3,0.6c0.1,0.1,0.3,0.1,0.6,0.1l0.3,0.4c0.1,0,0.2,0,0.3,0c0.1,0,0.4,0.1,1,0.4
			c0.1,0.1,0.3,0.1,0.4,0.1c0.1,0,0.4-0.1,0.9-0.2l1.1-0.1l0.8-0.2c0.4,0,0.7-0.1,0.8-0.1c0.2-0.1,0.5-0.3,1-0.6
			c0.5-0.3,0.8-0.5,0.9-0.6c0.2-0.2,0.4-0.5,0.6-0.8c0.1-0.1,0.2-0.2,0.5-0.2c0.1,0,0.2,0.1,0.4,0.2c-0.1,0.4-0.2,0.7-0.2,0.8
			c-0.5,0.8-0.8,1.3-0.9,1.6c-0.1-0.1-0.3-0.1-0.4-0.1c-0.1,0-0.2,0.1-0.6,0.3c-0.2,0.1-0.5,0.2-0.8,0.2c-0.7,0.2-1.2,0.3-1.4,0.3
			c-0.5,0-0.7,0.1-0.9,0.1c-0.3,0.1-0.5,0.2-0.5,0.2l-1-0.2l-0.6,0.1l-0.3,0c-0.3,0-0.5,0-0.6,0c-0.1,0-0.6,0-1.2-0.1l-0.3,0
			l-0.4-0.2c-0.8-0.3-1.3-0.4-1.4-0.5c-0.1,0-0.2-0.2-0.6-0.5c0,0-0.2-0.1-0.6-0.4c-0.3-0.2-0.5-0.3-0.5-0.4l-0.3-0.5
			c0-0.1-0.2-0.3-0.6-0.6c0.1-0.2,0.2-0.3,0.2-0.4c0,0-0.1-0.3-0.4-0.9c-0.1-0.2-0.1-0.6-0.1-1.4c0-0.2,0.1-0.6,0.2-1.2
			c0.1-0.4,0.2-0.7,0.3-0.8l0.6-0.7l0.4-0.8c0.4-0.4,0.8-0.8,1.3-1.2l1.2-0.8l1.2-0.9l0.5-0.1l1.3-0.4l0.8-0.1
			c0.7-0.2,1-0.4,1.1-0.4C877.3,193.8,877.7,194,877.9,194.6z M876,197.1l0.3,0.3c0.2,0,0.4-0.1,0.5-0.1c0.3,0,0.6-0.1,0.9-0.2
			l1,0.1c0,0,0-0.1,0.1-0.2c0-0.1,0-0.1,0-0.2c0-0.1-0.1-0.2-0.2-0.4c0,0-0.1-0.1-0.2-0.2c-0.3-0.4-0.4-0.5-0.5-0.5l-0.6-0.3
			c-0.1,0-0.2-0.2-0.3-0.4c-0.3,0-0.9-0.1-1.7-0.1l-0.3,0l-0.6,0.3c0,0-0.3,0.1-0.9,0.2c-0.5,0.2-0.9,0.3-1.2,0.5
			c-0.1,0.1-0.3,0.2-0.7,0.6c-0.1,0.1-0.2,0.2-0.4,0.3v0.1l0,0l1.2,0.5l0.4,0.4l0.7-0.8c0.1,0,0.1-0.1,0.2-0.1c0,0,0.3,0.1,0.8,0.2
			c0,0,0,0,0,0c0.1,0,0.5-0.1,1-0.2C875.5,197.2,875.7,197.2,876,197.1z"/>
		<path class="st3" d="M895.5,194.6l0.5-0.3c0.2,0.2,0.3,0.3,0.4,0.4c0,0,0.1,0.1,0.4,0.2c0.1,0.1,0.6,0.5,1.4,1.4
			c0.3,0.3,0.5,0.5,0.6,0.8c0.1,0.2,0.2,0.5,0.3,0.8c0.1,0.2,0.1,0.4,0.2,0.6l-0.1,0.1c-0.1,0-0.3-0.1-0.5-0.2l-0.6,0.2l-0.6-0.1
			l-0.5,0.1c-0.7-0.5-1.1-0.7-1.1-0.7c-0.1,0-0.3,0.2-0.8,0.7c-0.7-0.1-1.1-0.2-1.1-0.2c-0.2,0-0.4,0-0.6,0l-0.1-0.1
			c-0.2,0-0.7,0-1.5,0l-0.6,0.1l-0.8,0.1l-0.8,0.1l-0.7,0c-0.6,0.2-1.1,0.3-1.3,0.3c-0.1,0.4-0.1,0.6-0.2,0.8
			c-0.1,0.2-0.2,0.3-0.4,0.6c0.4,0.2,0.5,0.4,0.6,0.5c0.1,0.7,0.2,1.2,0.3,1.4l0.3,0.2l-0.1,0.6l0.5,0.1c0.1,0.5,0.3,0.8,0.4,0.9
			c0.2,0.1,0.4,0.2,0.8,0.3c0.1,0.3,0.1,0.6,0.3,0.6c0.1,0.1,0.3,0.1,0.6,0.1l0.3,0.4c0.1,0,0.2,0,0.3,0c0.1,0,0.4,0.1,1,0.4
			c0.1,0.1,0.3,0.1,0.4,0.1c0.1,0,0.4-0.1,0.9-0.2l1.1-0.1l0.8-0.2c0.4,0,0.7-0.1,0.8-0.1c0.2-0.1,0.5-0.3,1-0.6
			c0.5-0.3,0.8-0.5,0.9-0.6c0.2-0.2,0.4-0.5,0.6-0.8c0.1-0.1,0.2-0.2,0.5-0.2c0.1,0,0.2,0.1,0.4,0.2c-0.1,0.4-0.2,0.7-0.2,0.8
			c-0.5,0.8-0.8,1.3-0.9,1.6c-0.1-0.1-0.3-0.1-0.4-0.1c-0.1,0-0.2,0.1-0.6,0.3c-0.2,0.1-0.5,0.2-0.8,0.2c-0.7,0.2-1.2,0.3-1.4,0.3
			c-0.5,0-0.7,0.1-0.9,0.1c-0.3,0.1-0.5,0.2-0.5,0.2l-1-0.2l-0.6,0.1l-0.3,0c-0.3,0-0.5,0-0.6,0c-0.1,0-0.6,0-1.2-0.1l-0.3,0
			l-0.4-0.2c-0.8-0.3-1.3-0.4-1.4-0.5c-0.1,0-0.2-0.2-0.6-0.5c0,0-0.2-0.1-0.6-0.4c-0.3-0.2-0.5-0.3-0.5-0.4l-0.3-0.5
			c0-0.1-0.2-0.3-0.6-0.6c0.1-0.2,0.2-0.3,0.2-0.4c0,0-0.1-0.3-0.4-0.9c-0.1-0.2-0.1-0.6-0.1-1.4c0-0.2,0.1-0.6,0.2-1.2
			c0.1-0.4,0.2-0.7,0.3-0.8l0.6-0.7l0.4-0.8c0.4-0.4,0.8-0.8,1.3-1.2l1.2-0.8l1.2-0.9l0.5-0.1l1.3-0.4l0.8-0.1
			c0.7-0.2,1-0.4,1.1-0.4C894.9,193.8,895.3,194,895.5,194.6z M893.6,197.1l0.3,0.3c0.2,0,0.4-0.1,0.5-0.1c0.3,0,0.6-0.1,0.9-0.2
			l1,0.1c0,0,0-0.1,0.1-0.2c0-0.1,0-0.1,0-0.2c0-0.1-0.1-0.2-0.2-0.4c0,0-0.1-0.1-0.2-0.2c-0.3-0.4-0.4-0.5-0.5-0.5l-0.6-0.3
			c-0.1,0-0.2-0.2-0.3-0.4c-0.3,0-0.9-0.1-1.7-0.1l-0.3,0l-0.6,0.3c0,0-0.3,0.1-0.9,0.2c-0.5,0.2-0.9,0.3-1.2,0.5
			c-0.1,0.1-0.3,0.2-0.7,0.6c-0.1,0.1-0.2,0.2-0.4,0.3v0.1l0,0l1.2,0.5l0.4,0.4l0.7-0.8c0.1,0,0.1-0.1,0.2-0.1c0,0,0.3,0.1,0.8,0.2
			c0,0,0,0,0,0c0.1,0,0.5-0.1,1-0.2C893.2,197.2,893.3,197.2,893.6,197.1z"/>
		<path class="st3" d="M903.5,180c0.2,0,0.3-0.1,0.4-0.2c0.3-0.2,0.5-0.3,0.6-0.4c0.3-0.1,0.6-0.4,0.8-0.7c0.1,0,0.1,0,0.2,0
			c0.3,0,0.4,0.2,0.4,0.5v0c0,0.1,0,0.1,0,0.2c0,0.1,0,0.1,0,0.1l0.2,0.6l-0.1,1.4c0,0.9,0,1.4,0,1.4c0,0.1-0.1,0.3-0.3,0.5
			l-0.1,0.5l0.4,0.1c0.1,0.3,0.1,0.5,0.1,0.6c0,0.2-0.1,0.4-0.4,0.7c0,0.3,0,0.5,0,0.6c0,0.1,0.1,0.2,0.2,0.4c0,0.2,0,0.4,0,0.5
			l-0.1,2.1v2.1c0,0.1-0.1,0.3-0.3,0.7c-0.1,0.1-0.1,0.2-0.1,0.3c0,0,0.1,0.3,0.2,0.8c0,0,0,0,0,0.1c0,0.2-0.1,0.4-0.4,0.6l0.4,0.8
			l0.2,0.1v1l0,3.8l-0.3,0.2c0,0.2,0,0.4,0,0.6c0,0,0,0.3-0.1,0.8c0,0,0,0.2,0,0.5l0.5,0.1l0,0.1l0.3,2.7l0,0.7l0.1,0.5
			c-0.2,0.4-0.3,0.6-0.3,0.6c0,0.1,0,0.1,0.1,0.2c-0.2,0.1-0.5,0.3-0.9,0.5c-0.2,0.1-0.4,0.2-0.4,0.2c0,0-0.1,0-0.3,0
			c-0.3,0.2-0.5,0.3-0.7,0.3c0,0-0.1,0-0.2-0.1c0-0.2,0-0.3,0-0.4c0-0.1,0-0.3-0.1-0.5c0-0.1,0-0.2,0-0.3c0,0,0-0.2,0.1-0.5l0-0.4
			l0.1-0.5l-0.1-0.3l1.4-0.9l-1.4-0.9l0-0.2l0.1-0.6l0.2-0.4c0,0-0.1-0.2-0.3-0.6c0-0.1-0.1-0.1-0.1-0.2c0,0,0.1-0.3,0.3-0.7
			c0.1-0.3,0.2-0.6,0.2-0.9l-0.4-0.2c0-0.3,0-0.5,0-0.6c0-0.3,0-0.4,0-0.5c0,0,0.1-0.3,0.2-0.7c0,0,0-0.1,0-0.3c0-0.4,0-0.8-0.1-1.3
			c0-0.2,0-0.3,0-0.5c0-0.1,0.1-0.4,0.3-0.8c0-0.3,0-0.6,0.1-0.8l-0.4-0.4V189c0.1-0.1,0.2-0.2,0.3-0.3c0.1-0.2,0.2-0.4,0.3-0.7
			c-0.2-0.1-0.4-0.2-0.6-0.3c0.1-0.3,0.1-0.5,0.1-0.6c0-0.1-0.1-0.2-0.3-0.3c0-0.2,0-0.4,0-0.6l0-0.7c0-0.1,0.1-0.3,0.2-0.5
			c0,0,0-0.1,0-0.1c0,0,0-0.1-0.1-0.3s-0.1-0.3-0.1-0.3l0-0.1l1.3-0.9l-0.9-1.2c-0.4-0.6-0.7-0.9-0.7-1c0-0.1,0-0.3,0.1-0.6
			C903.4,180.4,903.5,180.2,903.5,180z"/>
		<path class="st3" d="M918.3,212.4l0.1-0.2c0.3-0.7,0.5-1.1,0.6-1.1s0-0.3,0.1-0.8c0.2-1.1,0.3-1.9,0.4-2.4l-0.3-0.2l0-0.1
			c0.8-0.4,1.2-0.6,1.4-0.7c0.1-0.1,0.2-0.2,0.2-0.3c0-0.3-0.5-0.7-1.5-1.2l0.4-0.1c0-0.3,0-0.5,0-0.6v0c0,0,0-0.2-0.1-0.4
			c-0.1-0.2-0.1-0.5-0.1-0.8l0.3-2.2V199c0-0.1,0.1-0.3,0.2-0.5c0.1-0.1,0.2-0.3,0.3-0.6l-0.6-0.2c-0.1-0.5-0.1-0.9-0.1-1.2
			c0-0.1,0-0.2,0-0.3c0.1-0.7,0.1-1.1,0.1-1.2c0,0,0,0,0-0.1l-0.2-1.5c0,0,0.1-0.1,0.2-0.2c0.1-0.1,0.2-0.2,0.4-0.3v-0.2l-0.5-0.3
			c0-0.2,0-0.4,0-0.6c0-0.4,0-0.8-0.1-1.2l0.3-0.4c-0.2-0.2-0.3-0.4-0.3-0.5c0-0.1,0-0.2,0-0.3l-0.3,0c0,0,0-0.1,0-0.1l0.9-1.5
			l0.1-1.4l0.5-0.5l-1.5-1.4l0-1.1c0-0.3-0.1-0.4-0.4-0.4c-0.1,0-0.2,0-0.4,0.1c-0.1-0.1-0.2-0.2-0.2-0.3c0-0.2,0.1-0.4,0.2-0.5
			c0.1-0.1,0.2-0.1,0.3-0.1c0.1,0,0.2,0,0.4,0c0.2-0.2,0.5-0.3,0.8-0.5c0.5-0.2,0.8-0.4,0.9-0.4c0.1,0,0.2,0.1,0.4,0.4
			c0.1,0,0.1,0,0.2,0c0.1,0,0.3,0,0.5,0.1l0.4-0.3c0.4,0,0.7,0.1,0.9,0.1c0.3,0,0.5,0.1,0.6,0.1c0,0,0.6-0.1,1.7-0.2h0
			c0,0,0.1,0,0.3,0.1c0.4,0.1,1.5,0.1,3.2,0.2l0.4,0.1l0.8,0.1c0.1,0,0.2,0,0.3,0c0.1,0,0.3-0.1,0.5-0.2c0.3,0.1,0.7,0.1,1.2,0.2
			l0.9,0.1l0.6,0.1l0.4,0.1h0.6l0.5,0.1c0.4,0.1,0.9,0.2,1.4,0.4c0.3,0.1,0.4,0.3,0.5,0.5L937,183h-0.3v0.4c0.1,0.1,0.2,0.1,0.3,0.2
			l0.1-0.1c0-0.1,0-0.1,0-0.2c0-0.1,0.1-0.2,0.2-0.3c0.1,0,0.2,0.1,0.3,0.2c0.1,0,0.1,0.1,0.2,0.1c0.3,0.2,0.5,0.4,0.5,0.6
			c0,0.3,0,0.8-0.2,1.3c0.2,0,0.4,0.1,0.4,0.2c0,0.1-0.1,0.3-0.3,0.6c-0.2,0.3-0.4,0.5-0.7,0.7c0,0-0.1,0.1-0.2,0.2
			c-0.1,0.1-0.5,0.5-1.2,1.2c-0.5,0.3-0.8,0.5-0.8,0.6c-0.1,0.1-0.2,0.2-0.2,0.5l-0.6,0.4l-0.3-0.1c-0.1,0.1-0.3,0.2-0.4,0.3
			c-0.2,0.1-0.5,0.3-0.7,0.5c-0.3,0.3-0.4,0.5-0.5,0.5c-0.1,0-0.2,0.1-0.5,0.1l-0.3,0.3l-0.5-0.1c-0.1,0.2-0.1,0.4-0.2,0.5
			c-0.4,0.1-0.7,0.2-1,0.4l0.1,0.1c-0.2,0.3-0.5,0.5-0.7,0.6c-0.1,0.1-0.4,0.1-0.7,0.2c-0.1,0-0.2,0.1-0.3,0.3
			c-0.4,0.2-0.7,0.4-0.9,0.6c0.2,0,0.4,0.1,0.4,0.1l0.6,1.3l0.6,0.6c0.1,0.1,0.1,0.2,0.2,0.4l-0.3,0.1l0.2,0.2c0.1,0,0.1,0,0.2,0
			c0.2,0,0.4,0.1,0.7,0.4c0.1,0.1,0.2,0.2,0.3,0.4c0.1,0.2,0.3,0.3,0.4,0.5c-0.2,0.2-0.3,0.3-0.4,0.5l0.2,0.2l0.7,0.1
			c0.1,0.1,0.2,0.2,0.2,0.4c0,0,0.1,0.2,0.4,0.4c0,0.1,0.2,0.4,0.6,1.1c0.2,0.3,0.6,0.9,1.4,1.8l0.5,0.8c0.4,0.4,0.6,0.7,0.6,0.8
			c0.1,0.3,0.2,0.5,0.2,0.6l0,0.2v0c0,0.1,0,0.2,0.1,0.3c0,0.1,0.3,0.2,0.9,0.6c0.3,0.2,0.5,0.4,0.8,0.7c0.8,1,1.2,1.6,1.3,1.7
			c0.1,0.2,0.1,0.4,0.1,0.7c0.2,0.2,0.4,0.3,0.8,0.5l0.2-0.1h0c0.1,0,0.1,0,0.2,0.1c0,0,0.1,0.2,0.3,0.5c0.1,0.1,0.3,0.2,0.6,0.4
			c0.2,0.2,0.3,0.3,0.4,0.3c0.1,0,0.3-0.1,0.6-0.2l0.6,0c0,0,0.1,0,0.3-0.1c0.1,0.1,0.2,0.2,0.2,0.3c0,0.1,0,0.2-0.1,0.3
			c0,0-0.3,0.1-0.7,0.3l-0.6,0.3c-0.1,0-0.2,0.1-0.5,0.1c-0.2,0-0.6,0.1-1,0.3l-0.5,0.2c-0.3,0.2-0.4,0.3-0.4,0.3
			c0,0-0.2-0.1-0.4-0.3c-0.1-0.1-0.3-0.2-0.5-0.3c-0.1-0.3-0.4-0.7-0.8-1.3c-0.1-0.1-0.1-0.3-0.1-0.7l-1-0.6l0.3-0.6
			c-0.2-0.3-0.5-0.5-0.7-0.7c-0.2-0.2-0.5-0.7-1-1.4l0.1-0.4c-0.3-0.1-0.6-0.3-0.8-0.6c-0.6-0.6-0.9-1.2-1-1.9
			c-0.1-0.3-0.4-0.5-0.8-0.7c-0.2-0.1-0.6-0.6-1-1.3c-0.2-0.1-0.4-0.2-0.5-0.3c-0.2-0.2-0.4-0.5-0.6-0.7c0-0.3,0-0.5-0.2-0.7
			c-0.2-0.3-0.4-0.5-0.6-0.5c-0.1,0-0.2,0-0.3,0c-0.1-0.1-0.3-0.4-0.5-0.9l-1.2-1.5c-0.3-0.5-0.7-0.9-1-1.2c-0.7-0.7-1.2-1-1.4-1
			c0,0-0.7,0.3-2.2,0.8h-0.1c-0.1,0-0.3,0-0.5,0c0,0.2-0.1,0.4-0.2,0.6c0,0.1,0,0.2,0,0.2l0,0.4v0.5l0.1,0.8c0,0.1,0,0.2-0.1,0.5
			c0,0.1,0,0.2,0,0.4c0,0.2,0,0.5,0,0.7c0,0.2,0,0.7,0,1.4l0.1,0.5v1.4c0,0.5,0.1,0.7,0.1,0.8c0,0.1,0,0.2-0.1,0.4
			c-0.1,0.1-0.1,0.3-0.2,0.5l-0.4,0.2l0.1,0.8c0.2,0,0.3,0.1,0.4,0.1c-0.1,0.2-0.1,0.3-0.1,0.5c0,0,0,0.2,0.1,0.5c0,0,0,0.1,0,0.2
			c0,0.1,0,0.2,0,0.4c0,0.1,0,0.2,0,0.3c0,0.2,0,0.4,0,0.7c-0.3,0.1-0.4,0.3-0.4,0.6c0,0.2,0.2,0.4,0.5,0.4c0,0.1-0.1,0.2-0.1,0.3
			l0,1c0,0.2-0.1,0.4-0.2,0.7c-0.1,0.1-0.2,0.3-0.5,0.4c-0.3,0.1-0.4,0.2-0.4,0.3c-0.1,0.1-0.2,0.2-0.3,0.3l-0.6-0.1
			c-0.3,0.5-0.8,0.8-1.3,0.8C918.6,212.6,918.5,212.6,918.3,212.4z M921.1,189.4l0.3-0.2l0.4,0.4c0,0.5,0,1,0.1,1.5v0.7l0,0.9
			c-0.1,0.3-0.1,0.8-0.1,1.3l-0.3,0.1v0.3c0,0,0.1,0,0.1,0c0.1,0,0.3,0,0.4,0.1c0.2-0.1,0.3-0.2,0.5-0.3c0.1,0,0.3-0.1,0.6-0.1
			c0.1,0.1,0.3,0.1,0.3,0.1c0.1,0,0.2,0,0.3-0.1l0.1-0.2c0.2,0,0.7-0.1,1.2-0.4l0.5-0.1l0.9-0.6c0.3-0.2,0.7-0.4,1.1-0.6l3.3-1.8
			c0.6-0.3,1.1-0.5,1.3-0.7c0.2-0.1,0.4-0.4,0.7-0.7l0.7-0.5c0.3-0.3,0.5-0.5,0.6-0.6c0.1,0,0.2-0.1,0.5-0.2c0.1,0,0.3-0.3,0.5-0.7
			c0.2-0.2,0.4-0.3,0.4-0.4c0.1-0.2,0.2-0.4,0.2-0.6c0-0.1,0-0.2,0-0.3c-0.1-0.2-0.1-0.3-0.1-0.3c0,0,0-0.1,0-0.2l0.3-0.2v-0.1
			l-0.6-0.2c-0.1-0.2-0.2-0.4-0.3-0.5v-0.2c0,0,0,0,0-0.1c-0.1-0.1-0.1-0.2-0.1-0.3c0-0.1,0-0.1,0-0.2l-0.5-0.2l0,0.3
			c-0.3-0.1-0.4-0.1-0.5-0.2c-0.3-0.1-0.6-0.2-0.9-0.3c-0.2,0-0.4-0.1-0.6-0.3c-0.2,0.1-0.3,0.1-0.4,0.1l-0.9-0.3h-1.3
			c-0.1,0-0.3-0.1-0.5-0.2c-0.2,0.1-0.5,0.1-1.1,0.1c-0.3,0.1-0.5,0.2-0.6,0.2c-0.1,0-0.3-0.1-0.8-0.3c0,0-0.2-0.1-0.7-0.1
			c-0.3,0-0.8,0.2-1.4,0.5c-0.2,0.1-0.4,0.2-0.6,0.2c-0.1,0-0.1,0-0.2,0l-0.6-0.8l-0.6,0.2c-0.5,0-0.8,0.1-0.9,0.1
			c-0.2,0.1-0.3,0.3-0.4,0.5c0,0,0,0.5,0,1.3c0,0.1-0.1,0.3-0.2,0.7l-0.2-0.1l-0.1,0.3v0c0,0.1,0,0.2,0.2,0.4
			c0.3,0.3,0.5,0.5,0.5,0.6c0,0.5,0,0.8,0,1c0,0.1,0,0.2,0,0.3c0,0.1,0,0.2-0.1,0.3c-0.1,0.1-0.1,0.3-0.1,0.6l-0.3,0.3
			C921.3,188.9,921.2,189.1,921.1,189.4L921.1,189.4z"/>
		<path class="st3" d="M944.8,195.6c0-0.2,0.2-0.4,0.5-0.6c0.7-0.6,1.4-0.9,1.9-1.1l0.5,0.5c-0.1,0.3-0.2,0.7-0.3,1.2
			c-0.1,0.4-0.1,0.7-0.1,0.8v0.6l-0.3,0.4c0,0.3,0.1,0.5,0.4,0.8c-0.1,0.1-0.1,0.2-0.1,0.2l0,0.8l0,0.2c0,0.1,0,0.2,0,0.4l-0.1,3.2
			c0,0.2,0.1,0.6,0.2,1.2l0,0.7c0.1,0.3,0.1,0.5,0.1,0.6c0,0.2-0.1,0.4-0.3,0.6c-0.1,0.1-0.3,0.2-0.6,0.4c-0.6,0.4-0.9,0.7-1,0.7
			c-0.1,0-0.2,0.1-0.3,0.1c-0.1,0-0.3-0.1-0.4-0.2c0-0.3,0.1-0.5,0.1-0.6c0-0.1,0.1-0.4,0.2-0.7l0-0.8l0.1-1.6l0-0.3
			c0-0.2,0.1-0.3,0.3-0.3c0,0,0.1,0,0.2,0c0.1-0.2,0.1-0.3,0.1-0.4c0-0.1,0-0.3-0.1-0.5c0-0.1-0.1-0.3-0.1-0.5l-0.3-0.2
			c0-0.2,0.1-0.4,0.1-0.6c0-0.1,0-0.1,0-0.3c0-0.1,0-0.2,0-0.2c0-0.1,0.1-0.3,0.2-0.5c-0.1-0.1-0.2-0.3-0.2-0.4V199v-0.1l0-0.4
			c0.7-0.1,1.1-0.2,1.1-0.4c0,0,0,0,0,0c-0.2-0.1-0.4-0.2-0.6-0.2c-0.2,0-0.4,0-0.7,0c0-0.2,0-0.3,0-0.3c0,0,0-0.6-0.1-1.7
			C945.1,195.8,945,195.7,944.8,195.6z M945.1,188.8L945.1,188.8c0-0.4,0.3-0.8,0.9-1.3c0.1-0.1,0.3-0.2,0.4-0.4
			c0,0,0.1-0.1,0.3-0.3c0.4-0.6,0.7-1,0.8-1c0.2-0.1,0.3-0.2,0.4-0.2c0,0,0.2,0.1,0.4,0.3c0.2,0.2,0.3,0.3,0.3,0.6
			c0,0.2-0.1,0.3-0.3,0.5c-0.5,0.4-1,0.8-1.5,1.2l-0.5,0.3l-0.6,0.4c-0.3,0.2-0.5,0.3-0.5,0.3C945.2,189.1,945.1,189,945.1,188.8z"
			/>
		<path class="st3" d="M949.9,212.6c0.3,0,0.5-0.2,0.7-0.4c0.2-0.3,0.4-0.5,0.6-0.6c0.7-0.3,1.2-0.5,1.4-0.6
			c0.1,0.1,0.2,0.3,0.2,0.4c0,0.1,0,0.2-0.2,0.3c0,0-0.2,0.2-0.6,0.5c-0.1,0-0.2,0.2-0.3,0.3c-0.2,0.3-0.3,0.6-0.3,0.9
			c0,0.1,0,0.2,0,0.3c-0.3,0.1-0.4,0.3-0.4,0.4c0,0.1,0.1,0.2,0.2,0.3c0,0,0.1,0,0.1,0c0.1,0,0.2,0,0.4,0.1c0.1,0.3,0.3,0.5,0.6,0.7
			c0.4,0.3,0.8,0.5,1,0.6l0.3,0.4c0.6,0.2,1,0.2,1.2,0.2c0.1,0,0.2,0,0.3-0.1c0.1,0,0.1,0,0.2,0c0.1,0,0.3,0.3,0.8,0.8l0.2-0.3
			c0-0.2,0.1-0.4,0.2-0.4l2.4,0.1c0,0,0.1,0,0.2-0.1s0.3-0.1,0.5-0.1c1.1-0.2,1.8-0.4,2.1-0.5c0.7-0.3,1.1-0.4,1.1-0.4
			c0.1,0,0.3,0,0.7,0c0.1-0.1,0.2-0.2,0.3-0.4c0,0,0.4-0.3,1-0.6c0.2-0.2,0.4-0.3,0.6-0.4c0-0.1,0.1-0.3,0.2-0.4
			c0.2-0.2,0.3-0.3,0.3-0.4l-0.1-0.6c0.1-0.4,0.2-0.7,0.2-0.9c0-0.1,0-0.2,0.1-0.3c0.1-0.3,0.2-0.4,0.2-0.5c0-0.1-0.1-0.2-0.4-0.3
			c-0.1-0.5-0.3-0.9-0.5-1.2c-0.2-0.2-0.2-0.3-0.2-0.4c0-0.1,0-0.2,0-0.3c-0.6-0.4-1.4-0.7-2.4-0.8h0c-0.1,0-0.2,0-0.3,0l-0.1,0
			c-0.1,0-0.3,0-0.6-0.1c-0.1,0-0.2,0-0.3,0c-0.2,0-0.3,0-0.6,0.1c-0.2,0-0.3,0-0.4,0c-0.1,0-0.3-0.1-0.6-0.3c0,0,0,0-0.1,0
			c-0.1,0-0.3,0.1-0.7,0.3l-0.4,0.1l-0.7,0.1l-0.9-0.9l-0.6,0.9l-0.3-0.1c-0.1,0-0.2-0.1-0.3-0.1c-0.1,0-0.2,0-0.3,0
			c-0.2,0.3-0.4,0.4-0.6,0.4c-0.1,0-0.4-0.1-0.8-0.2c-0.4-0.1-0.7-0.2-1.1-0.4c-0.5-0.3-0.8-0.6-0.9-0.7c0-0.1-0.1-0.2-0.1-0.5
			c-0.1-0.4-0.1-0.6-0.1-0.6c0-0.2,0.2-0.5,0.5-0.9c0.4-0.4,0.6-0.6,0.7-0.7c0.1-0.1,0.3-0.2,0.6-0.4l0.4-0.3
			c0.4-0.1,0.7-0.1,0.8-0.1c0.1,0,0.2-0.1,0.5-0.3v-0.1c-0.1-0.1-0.3-0.1-0.4-0.1c-0.2,0-0.3,0-0.5,0c-0.1,0-0.2,0-0.3,0
			c-0.2,0-0.6-0.1-1-0.4c-0.1-0.1-0.2-0.1-0.2-0.2c0,0-0.1-0.2-0.1-0.5c0-0.1-0.1-0.2-0.3-0.3c-0.3-0.1-0.4-0.1-0.4-0.1l-0.2-0.4
			c-0.2-0.3-0.3-0.5-0.3-0.6c0,0,0-0.3,0.1-0.8c0-0.5,0-0.8,0.1-0.9c0,0,0.1-0.2,0.3-0.4c0.1-0.1,0.1-0.2,0.1-0.3s-0.1-0.3-0.2-0.5
			c0.2-0.2,0.5-0.5,0.9-1c0.1-0.2,0.4-0.4,0.8-0.6l0.8-0.8c0.1-0.1,0.2-0.1,0.4-0.2c0.2,0,0.3-0.1,0.3-0.1c0,0,0.1-0.1,0.1-0.2
			c0.2,0,0.9-0.2,1.9-0.5l0.6-0.1c0.4-0.1,0.6-0.1,0.8-0.1c0.1,0,0.5,0.1,1.2,0.2c0.5,0,0.9,0,1.1,0c0.2-0.2,0.5-0.4,0.9-0.6
			c0.2-0.1,0.3-0.1,0.4-0.1c0.1,0,0.3,0,0.6,0.1c0.2,0,0.4,0.1,0.6,0.1c0.3,0,0.7,0,1.1-0.1h0c0.1,0,0.3,0.1,0.6,0.4
			c0.2,0,0.3-0.2,0.3-0.4c0-0.1,0-0.1,0-0.2c0.4-0.2,0.7-0.4,1.1-0.6c0,0,0.1,0,0.3,0c0.1,0,0.2,0,0.4-0.1c0.1,0.1,0.1,0.2,0.1,0.3
			c0,0.5-0.4,1-1.3,1.3c0,0.2-0.1,0.3-0.1,0.4s-0.2,0.2-0.4,0.4c-0.2,0.2-0.5,0.3-0.7,0.3c-0.3,0.1-0.5,0.1-0.7,0.1
			c-0.1,0-0.1,0-0.1,0l-0.5-0.7c0,0-0.1-0.1-0.1-0.1c-0.2,0-0.4,0.3-0.6,0.8c0.2,0.2,0.3,0.3,0.3,0.3c0.3,0.3,0.5,0.4,0.5,0.5
			c0,0.1,0.1,0.2,0.2,0.4l0.3,0.2v0.5l0,0.1l-0.5,0.3v0.2c0.2,0.1,0.3,0.3,0.3,0.4c0,0.3-0.2,0.7-0.7,1.2l-0.4,0.5l-0.9,0.7
			l-0.3,0.4c0,0.1-0.2,0.2-0.4,0.3l-0.3,0.2c-0.4,0.3-0.9,0.5-1.3,0.6c-0.6,0.2-1,0.3-1.1,0.3c-0.3,0-0.5,0.1-0.8,0.2
			c0,0.1,0,0.2,0,0.4c0,0.2-0.1,0.3-0.2,0.5c-0.5,0-0.9,0-1,0.1c-0.2,0-0.5,0.2-1.1,0.4c-0.8,0.2-1.2,0.3-1.4,0.4
			c-0.4,0.2-0.7,0.5-0.9,0.8c-0.1,0.1-0.1,0.2-0.1,0.2c0.1,0.1,0.5,0.3,1.2,0.4c0.2,0.1,0.4,0.3,0.5,0.5c0.3-0.1,0.5-0.1,0.7-0.1
			l1,0.1h0c0.2,0,0.3,0,0.5-0.1c0.1,0,0.2,0,0.2,0c0.1,0,0.3,0.3,0.7,0.8c0.1,0.1,0.2,0.2,0.3,0.2c0.1,0,0.1,0,0.2-0.1
			c0.2-0.5,0.4-0.7,0.4-0.8c0.4-0.3,0.8-0.4,1.2-0.4l0.6,0h0l0.8,0c0.1,0,0.3,0.2,0.4,0.5h0.2l0.3-0.4c0.2,0,0.3,0,0.5,0
			c0.1,0,0.3,0,0.7,0.1l0.5,0l0.5,0.2c0.8,0.2,1.3,0.4,1.5,0.5c0,0.1,0,0.2,0,0.2c0,0.1,0.1,0.3,0.3,0.6l0.6-0.1
			c0.3,0.2,0.5,0.3,0.6,0.5c0,0,0,0.2,0.1,0.4l0.2,0.7l0.1,0.7l0.1,0.6c0,0-0.1,0.3-0.2,0.8c-0.1,0.4-0.2,0.8-0.4,1.3
			c-0.1,0.2-0.3,0.4-0.6,0.8l-0.3,0.6c-0.1,0.2-0.2,0.4-0.3,0.4c0,0.1-0.1,0.1-0.3,0.1c-0.1,0.2-0.2,0.3-0.3,0.3
			c0,0-0.2,0.1-0.6,0.3c-0.3,0.3-0.5,0.5-0.6,0.6c-0.2,0.1-0.6,0.3-1.1,0.6l-1,0.4l-0.5,0.3l-0.6,0.2l-0.6,0.2l-0.3,0l-0.5,0.1
			l-1.3,0.1c-0.9,0.3-1.4,0.4-1.5,0.4l-0.9-0.1h0c-0.3,0-0.5,0-0.5,0c0,0-0.1-0.3-0.3-0.7l-0.4,0.7l-0.7-0.7l-0.7,0.7l0,0l-0.3-0.1
			c-0.3-0.2-0.5-0.3-0.5-0.4c-0.1,0-0.3,0-0.8-0.1c-0.2,0-0.3,0-0.4-0.1l-0.4-0.2l-0.5-0.3l-0.4-0.3c-0.4-0.2-0.6-0.3-0.7-0.3
			c-0.1-0.1-0.3-0.3-0.5-0.7c-0.2-0.4-0.3-0.8-0.3-1.1c0-0.2,0.1-0.6,0.4-1.1C949.6,212.9,949.8,212.7,949.9,212.6z M954.5,199.9
			c0,0.2,0,0.3,0,0.4c0,0.2,0.1,0.4,0.2,0.5c0.1,0,0.3,0.1,0.6,0.2c0.4,0.4,0.6,0.6,0.7,0.6c0.3,0.2,0.9,0.3,1.6,0.3
			c0.2,0,0.4-0.1,0.8-0.2l0.4,0l1.2-0.5c0.1,0,0.2,0,0.5,0c0.2-0.2,0.5-0.5,0.9-0.8c0.1-0.1,0.2-0.1,0.2-0.2c0,0,0.1-0.2,0.2-0.5
			c0.1-0.3,0.2-0.6,0.2-0.7c0-0.3,0-0.7-0.1-1.2c0-0.4-0.3-0.8-0.7-1.1c-0.2-0.1-0.4-0.4-0.6-0.7c-0.1-0.1-0.2-0.2-0.3-0.3
			c-0.1,0-0.3-0.1-0.7-0.2l-0.3-0.2l-0.5-0.2l-0.2-0.1l-0.8,0.2c-0.3-0.1-0.5-0.1-0.6-0.1c-0.1,0-0.5,0.1-0.9,0.2l-0.5,0.1
			c-0.1,0-0.2,0.1-0.4,0.2c-0.1,0-0.3,0.1-0.3,0.2c-0.2,0.2-0.4,0.4-0.6,0.6c-0.3,0.3-0.4,0.5-0.5,0.6s-0.1,0.3-0.2,0.7
			c-0.1,0.4-0.1,0.8-0.1,1.1c0,0.2,0,0.3,0.1,0.4C954.1,199.6,954.2,199.7,954.5,199.9z"/>
		<path class="st3" d="M969.6,180.3c0.1-0.2,0.3-0.4,0.7-0.6l1.1-0.6c0.3-0.1,0.6-0.2,0.9-0.2c0.1,0,0.2,0.1,0.4,0.2
			c-0.5,0.2-0.8,0.4-0.9,0.5l-0.6,0.7l1.3,1.2c0.1,0.1,0.1,0.2,0.1,0.3c0,0.1-0.1,0.3-0.2,0.6l-0.2,0.3l-0.3,0.1
			c0,0-0.1,0.1-0.1,0.2s-0.1,0.2-0.1,0.3c0,0.1,0,0.2,0.1,0.4c0.1,0,0.3-0.1,0.4-0.2c0.1-0.1,0.2-0.1,0.3-0.1l-0.2,2.9
			c0,0.1,0,0.2,0,0.4c0,0.2,0,0.3,0,0.4c0,0.2-0.1,0.5-0.4,0.8c0,0.2,0,0.4,0.1,0.5l0.3,0.4c0.1,0.1,0.1,0.2,0.1,0.4
			c0,0.1-0.1,0.4-0.2,0.8l0.1,0.7c0.1,0.6,0.1,0.9,0.1,1c0,0-0.1,0.2-0.2,0.6l0.1,0.7l0,0.3c0.1,0.3,0.1,0.5,0.1,0.5
			c0,0.1,0,0.1,0,0.2c-0.1,0.6-0.2,1.2-0.2,1.8c0,0.2,0.1,0.5,0.2,0.7c0.6-0.3,1.3-0.9,2.2-1.7l0.7,0.1c0.3-0.2,0.5-0.3,0.9-0.3
			c0.5-0.1,0.8-0.2,0.9-0.2c0.1,0,0.3,0.1,0.4,0.2l0.1,0.4h0.4c0.1-0.1,0.2-0.2,0.3-0.4c0-0.1,0.1-0.1,0.2-0.1l1,0.1
			c1,0.1,1.5,0.1,1.6,0.2c0,0,0.2,0.2,0.6,0.6c0.1,0.2,0.4,0.3,0.7,0.5l-0.3,0.5c0.1,0.1,0.3,0.2,0.6,0.2c0.2,0.3,0.4,0.6,0.4,0.9
			c0,0.4,0,0.7,0,1.2c0,0.4-0.1,0.6-0.2,0.8c-0.1,0.1-0.1,0.1-0.2,0.2l0.2,0.7l-0.3,0.4l0,0.2l0.5,0.5c-0.1,0.2-0.1,0.3-0.1,0.3
			l0,0.4l0.1,1l0,0.2c-0.2,0.3-0.3,0.5-0.3,0.6s0.1,0.5,0.2,1.2l0,1.4c0,0,0,0.1,0,0.2c-0.3,0.2-0.6,0.3-0.9,0.3
			c-0.2,0.1-0.4,0.3-0.6,0.3c-0.2,0.1-0.5,0.2-0.6,0.3l-0.6-0.5c0.1-0.3,0.2-0.6,0.4-0.9c0.2-0.4,0.3-0.9,0.3-1.3
			c0-0.1-0.1-0.4-0.2-0.8l0-0.2l0.1-0.6c0.1-0.4,0.2-0.8,0.3-1.4l-0.3-0.2c0-0.4,0.1-1,0.2-2c0-0.1,0-0.1,0-0.2c0,0,0-0.1,0-0.1
			c-0.1-0.5-0.1-0.8-0.1-0.8c0,0,0-0.1,0.1-0.2c0-0.1,0.1-0.2,0.1-0.2v0c0-0.1-0.1-0.2-0.2-0.6c-0.1-0.2-0.2-0.4-0.4-0.5
			c-0.1,0-0.2-0.1-0.6-0.2c-0.4-0.2-0.7-0.3-0.8-0.4c-0.1,0-0.3,0-0.7,0c-0.6-0.1-1-0.1-1.1-0.1c-0.1,0-0.2,0-0.3,0
			c-0.5,0-0.8,0.1-0.8,0.1c-0.4,0-0.9,0.1-1.4,0.2l-0.2,0.1l-1,0.5l-0.6,0.2c-0.8,0.7-1.2,1.1-1.2,1.2c0,0.3,0.4,0.5,1.1,0.7
			c0,0.2-0.1,0.4-0.1,0.5c-0.1,0.3-0.1,0.9-0.2,1.8c-0.2,0-0.4,0-0.5,0.1v0.1c0.3,0.3,0.5,0.6,0.5,0.9c0.1,0.3,0.1,0.8,0.2,1.4
			l0.1,0.5l-0.2,0.7l0.1,0.5v0.3l0,0.3c0,0.1-0.1,0.2-0.2,0.3c0,0-0.4,0.1-1.1,0.4c-0.2,0.1-0.4,0.3-0.8,0.6l-0.4-0.3
			c0-0.3,0.1-0.8,0.2-1.3v-0.5c0,0,0.1-0.2,0.2-0.5c0.1-0.1,0.1-0.3,0.1-0.4c0-0.1,0-0.2-0.1-0.3c-0.1-0.2-0.2-0.4-0.2-0.4v0
			l0.1-0.9v0.4v-1.2c0-0.1,0-0.1,0-0.3c0-0.1,0-0.2,0-0.2l0-0.6l0.1-1.3l0-1c0-0.1,0-0.2,0.1-0.3c0,0,0.2-0.2,0.4-0.4
			c0.1-0.1,0.1-0.1,0.1-0.3c0-0.2,0-0.3,0-0.5l-0.4,0.1c-0.1-0.5-0.2-1.1-0.2-1.8c0-0.8,0-1.8,0.1-2.8l0.6-0.1
			c-0.1-0.2-0.2-0.5-0.3-0.8l-0.4-0.3c0-0.3,0.1-0.6,0.1-0.7c0-0.2,0-0.4,0-0.6c-0.1-0.8-0.2-1.3-0.2-1.7c0-0.3,0.1-0.5,0.3-0.7
			c0.5-0.4,0.8-0.6,0.8-0.7v0c-0.2-0.2-0.6-0.4-1.2-0.4c0-0.2,0.1-0.4,0.1-0.6c0.1-0.4,0.2-0.6,0.2-0.7c0-0.2-0.1-0.3-0.4-0.5
			c0-0.3,0-0.5,0-0.7c0-0.2,0-0.4,0-0.6c0-0.4,0-0.6,0-0.8c0-0.1,0-0.3,0.1-0.7c-0.3-0.8-0.4-1.3-0.4-1.4s0-0.2,0-0.4L969.6,180.3z"
			/>
		<path class="st3" d="M986.7,195.2c0.1-0.4,0.2-0.7,0.5-0.7h0l0.8,0.1h0c0.6-0.1,1-0.1,1.1-0.2c0-0.2,0-0.3,0-0.4
			c0-1,0-1.9-0.1-2.6c0-0.3-0.1-0.6-0.2-0.8l-0.2-0.4c0-0.1-0.1-0.2-0.1-0.3c0-0.2,0.1-0.4,0.4-0.6c0.4-0.4,0.9-0.6,1.6-0.8
			c0.1-0.3,0.3-0.5,0.5-0.5c0.1,0,0.1,0,0.2,0.1c0.2,0.2,0.2,0.4,0.2,0.7c0,0,0,0.9-0.2,2.6c-0.1,0.5-0.2,0.7-0.3,0.8
			c0,0.2-0.2,0.3-0.4,0.5c0,0.2,0,0.4,0.1,0.7h0.4l-0.1,0.9c0.3,0,0.9,0.2,1.7,0.4c0.1,0,0.2,0,0.6,0c0.2,0,0.5-0.1,1-0.2l1.1-0.1
			c0.6-0.2,0.9-0.3,1-0.3c0.1,0,0.3,0,0.5,0.1c0,0.3-0.1,0.5-0.1,0.7c0,0.2-0.4,0.5-1.1,0.9c-0.2,0.1-0.3,0.2-0.3,0.2
			c-0.2,0.2-0.3,0.3-0.3,0.3c-0.1,0-0.2,0.1-0.4,0.1c-0.2,0-0.3,0-0.4-0.1l-0.7-0.4l-0.4-0.1l-0.5-0.4l-0.9,0.7l-0.7-0.1
			c-0.1,0-0.2,0.1-0.3,0.2c0.1,0.5,0.1,1,0.1,1.4c0,0.2,0,0.4,0,0.8c-0.4,0.1-0.6,0.2-0.6,0.5c0,0.1,0,0.2,0.1,0.4
			c0.2,0,0.5,0.1,0.6,0.1l0,2.1c-0.2,0-0.3-0.1-0.4-0.1c-0.2,0-0.3,0.1-0.3,0.2c0,0.1,0.1,0.3,0.2,0.5c0.2-0.1,0.3-0.2,0.4-0.2
			c0.2,0,0.3,0.1,0.3,0.3l0,0.7v0c0,0.5,0,0.8,0,1c0,0.2,0.1,0.4,0.2,0.6l0.2,0.4c0,0,0,0.1,0,0.2c0,0.1,0,0.2,0,0.4
			c0.3,0.2,0.7,0.3,1.2,0.3c0.4,0,0.7-0.1,1.1-0.3c0.3-0.2,0.4-0.2,0.5-0.3l0.9-0.8c0.5-0.4,0.7-0.6,0.8-0.6s0.2,0.1,0.4,0.2
			c0,0.2-0.1,0.4-0.1,0.4c-0.1,0.6-0.2,0.9-0.2,1c-0.1,0.1-0.4,0.2-1,0.4c-0.5,0.2-1.1,0.5-2.1,0.8l-0.6,0.2
			c-0.4,0.2-0.6,0.3-0.7,0.3c-0.1,0-0.2-0.1-0.3-0.3l-0.3-0.1l-0.2,0.4c-0.2,0-0.3,0-0.4,0c-0.3,0-0.6-0.2-1-0.6
			c-0.2-0.2-0.3-0.4-0.4-0.6c0,0-0.1-0.2-0.1-0.4c-0.1-0.4-0.2-0.6-0.2-0.6c0-0.1,0-0.3,0-0.5c0-0.2,0-0.6,0-1.1
			c0-0.4,0.1-0.6,0.3-0.8c-0.1-0.2-0.1-0.5-0.1-0.8c-0.1-0.5-0.1-1.5-0.1-2.9c0.3-0.2,0.4-0.3,0.4-0.5c0-0.1,0-0.2,0-0.3l-0.5-0.1
			l0-0.2v0c0-0.1,0-0.2,0.1-0.4c0.1-0.3,0.1-0.8,0.1-1.5c-0.5-0.1-0.8-0.2-1-0.2c-0.1,0-0.4,0-0.9,0.1l-0.4,0
			c-0.3,0.1-0.5,0.2-0.5,0.2c-0.2,0-0.2-0.1-0.2-0.2C986,195.7,986.2,195.5,986.7,195.2z"/>
		<path class="st3" d="M998.9,205.2c0.1-0.2,0.2-0.4,0.3-0.4l0.9-0.5c0.3-0.3,0.4-0.4,0.5-0.5c0.1,0,0.2-0.1,0.3-0.1
			s0.2,0.1,0.5,0.3c0,0,0.3,0.2,0.8,0.5c0.4,0.3,0.6,0.6,0.6,0.9c0,0-0.1,0.2-0.2,0.3c-0.2,0.3-0.3,0.5-0.3,0.5
			c-0.6,0.4-1,0.7-1.2,0.9c-0.2-0.2-0.4-0.4-0.7-0.8l-0.5-0.4c-0.2-0.3-0.3-0.5-0.4-0.6C999.4,205.3,999.2,205.2,998.9,205.2z
			 M1001.8,185.6c0.1,0.1,0.2,0.2,0.2,0.4c0,0.5-0.2,0.8-0.6,1l-0.9,0.5l1.4,0.4l-0.3,0.4c0.2,0.6,0.3,1.1,0.3,1.5
			c0,0,0,0.2-0.1,0.6l0,0.5l-0.2,0.6c0.1,0.4,0.1,0.7,0.1,0.7c0,0,0,0.3-0.1,0.9l-0.1,1c-0.1,0.4-0.2,0.7-0.2,0.8
			c0,0.2,0.1,0.4,0.3,0.6c0,0.6,0,1,0,1.2c0,0.1-0.1,0.3-0.2,0.5c0.2,0.2,0.3,0.5,0.4,0.9c0,0.2,0.1,0.5,0.1,0.6l0.1,0.4
			c-0.2,0.2-0.3,0.4-0.4,0.7c-0.1,0.2-0.3,0.4-0.6,0.7c-0.2,0-0.3-0.1-0.4-0.1l-0.6,0c-0.1,0-0.3-0.1-0.6-0.4
			c0.1-0.2,0.3-0.6,0.6-0.9c0,0,0-0.2,0.1-0.5c0.1-0.8,0.2-1.3,0.2-1.6c0.3,0,0.5-0.1,0.5-0.3c0-0.1,0-0.3-0.1-0.4l-0.5,0
			c0-0.1-0.1-0.2-0.1-0.3c0-0.1,0-0.5,0-1.2c0-0.3,0-0.5,0.1-0.6c0.1-0.1,0.1-0.2,0.2-0.2c-0.2-0.3-0.3-0.5-0.3-0.7
			c0-1.1,0-1.7-0.1-2h-0.1l0,0v-0.3h0.6c0-0.2,0-0.3-0.1-0.4c-0.1-0.1-0.3-0.1-0.6-0.2c0.3-0.2,0.6-0.4,0.8-0.6
			c0.2-0.1,0.3-0.2,0.3-0.2l-1.1-0.7v0l0.1-0.5c-0.4-0.4-0.7-0.8-0.7-1.1c0-0.3,0.2-0.6,0.5-0.8c0.4-0.3,0.9-0.6,1.4-0.7
			C1001.3,185.8,1001.6,185.7,1001.8,185.6z"/>
	</g>
</g>
</svg>
