<?xml version="1.0" encoding="utf-8"?>
<!-- Generator: Adobe Illustrator 19.2.0, SVG Export Plug-In . SVG Version: 6.00 Build 0)  -->
<svg version="1.1" id="Layer_1" xmlns="http://www.w3.org/2000/svg" xmlns:xlink="http://www.w3.org/1999/xlink" x="0px" y="0px"
	 viewBox="0 0 666.7 470.6" style="enable-background:new 0 0 666.7 470.6;" xml:space="preserve">
<style type="text/css">
	.st0{fill:#603A17;stroke:#603A17;stroke-width:0.25;}
	.st1{fill:#603A17;}
	.st2{fill:#FCB817;}
	.st3{fill:#231F20;}
</style>
<g>
	<g>
		<path class="st0" d="M177.3,420.7c0-0.3,0.1-0.5,0.2-0.6h0.3c0.1-0.2,0.3-0.3,0.4-0.4c0.1-0.1,0.3-0.2,0.5-0.4
			c0.2,0.1,0.3,0.1,0.3,0.1c0,0,0.2,0,0.3-0.1c0.1,0,0.1,0,0.2,0c0.1,0,0.6,0,1.5,0.1c0.1,0,0.3,0,0.5,0c0.1,0,0.2,0,0.3-0.1
			c0.3,0.2,0.5,0.4,0.7,0.4h0.2l0.3,0c0.3-0.2,0.5-0.2,0.7-0.2c0.1,0,0.4,0.1,0.9,0.3l0.6,0.1l0.6,0.2c0,0,0.1,0,0.2-0.1
			c0.1,0,0.2-0.1,0.3-0.1l3,0l0.1,0.2l0.8,0.1l0.2-0.3c0.6,0,1.2-0.1,1.8-0.1c0.1,0,0.2,0,0.3,0s0.2,0,0.4,0c0.3,0,0.5,0.1,0.6,0.1
			c0.1,0,0.8-0.1,2-0.4l0.8-0.1c0.4-0.1,0.6-0.1,0.7-0.1c0.1,0,0.3,0,0.6,0.1c0,0.2-0.1,0.3-0.2,0.5l-0.2,0.2l-0.7,0.4
			c-0.1,0-0.2,0.1-0.4,0.3c-0.2,0.2-0.4,0.3-0.5,0.3h0c-0.3,0-0.5,0-0.7-0.1c-0.1,0-0.3-0.1-0.6-0.2h-0.1h-0.1h-0.7
			c-0.1,0-0.4,0-0.9-0.1l-0.8,0.1h-0.6l-0.9,0.2l-1.1-0.1l-0.5,0l-0.3,0l-0.9,0.1l-0.8,0l-0.3,0.1l-1.6-0.1l-0.5,0.1
			c0,0-0.1,0-0.3-0.1c-0.1,0-0.6-0.1-1.2-0.1h-0.3c-0.1,0-0.3,0-0.6,0l-0.5-0.1c-0.1,0-0.2,0.1-0.3,0.2c0.1,0.3,0.2,0.6,0.2,0.8
			c0,0.3,0,0.5,0,0.6c-0.2,0.2-0.4,0.3-0.5,0.3c0,0-0.1,0-0.2-0.1c0,0.2,0,0.3,0,0.4c0,0.1,0,0.1,0,0.1c0,0.1,0.1,0.1,0.2,0.2
			c0.1,0.1,0.2,0.2,0.4,0.3c-0.1,0.3-0.1,0.5-0.1,0.6c0,0.1,0.1,0.4,0.2,0.9c0.2,0,0.6,0.1,1.1,0.1l1,0.2l0.7,0l0.6,0.1
			c0.4,0,0.7,0,1.1,0.1c0.2,0,0.3,0,0.5,0c0.2,0,0.3,0,0.4,0c0.3,0,0.5-0.1,0.6-0.1c0,0,0.2,0,0.6,0.1c0,0,0.1,0,0.1,0
			c0.1,0,0.3,0,0.8,0c0.1,0,0.2,0,0.4,0c0.3,0,0.6,0,1.1,0c0.7,0,1.3-0.1,1.6-0.1c0,0,0.1,0,0.1,0c0.1,0,0.2,0,0.5,0
			c0.1,0,0.3,0,0.5,0v-0.2c0.3,0,0.4,0,0.5-0.1l0.1-0.1l0.6,0.8c0.2-0.3,0.3-0.4,0.3-0.5c0.1-0.1,0.2-0.1,0.3-0.3
			c0.2-0.2,0.4-0.2,0.5-0.2c0.1,0,0.3,0,0.4,0c0,0.3-0.1,0.5-0.1,0.5c0,0.1-0.1,0.2-0.4,0.3v0.4c-0.2,0.1-0.4,0.3-0.5,0.4
			c-0.3,0.1-0.4,0.1-0.5,0.1c-0.1,0-0.3-0.1-0.4-0.2c-0.4-0.4-0.6-0.6-0.6-0.6c0,0-0.2,0.2-0.5,0.7c0,0,0,0-0.1,0c0,0,0,0-0.1,0
			c-0.1,0-0.2-0.1-0.4-0.1c-0.1,0.1-0.4,0.1-0.8,0.1c-0.5-0.1-0.7-0.1-0.8-0.1s-0.4,0-0.9,0.1l-0.5-0.1l-0.6,0l-0.3,0l-1.1,0.1
			l-1-0.2l-1.3,0l-0.4-0.1l-0.5,0l-0.4,0l-0.4,0.1l-0.6,0c-0.3,0-0.6,0.1-0.9,0.1c0.1,0.3,0.2,0.6,0.2,0.9l0.1,0.4l0,1.3l0.1,0.8
			c0,0.1-0.1,0.2-0.2,0.3l-0.2,0.1l0,0c-0.1,0.2-0.1,0.3-0.1,0.4c0,0,0,0.1,0,0.2l0.1-0.1c0.2,0.1,0.3,0.2,0.3,0.3c0,0,0,0.2,0,0.5
			c0,0.1-0.1,0.3-0.3,0.4c0,0.2,0.1,0.5,0.2,0.9c0,0.1,0,0.2,0,0.4c0,0.1,0,0.2,0,0.3l-0.3,0.2c0,0.1,0,0.2,0,0.3
			c0,0.2,0.1,0.4,0.4,0.5c-0.1,0.1-0.1,0.2-0.1,0.3l0.1,0.7l0,0.6l0.1,0.3l-0.1,0.4l0,0.5l-0.1,0.3l0,0.9c0,0.2,0,0.4,0,0.4
			c0,0.1,0,0.2,0.1,0.3l-0.5,0.3c0,0.2,0.1,0.4,0.2,0.6h0.1c0.1-0.1,0.2-0.1,0.2-0.1c0.1,0,0.2,0.1,0.3,0.2
			c-0.1,0.3-0.2,0.6-0.2,0.7c0,0,0,0.2,0.1,0.5l0,1l0.1,1.2c0,0.4-0.3,0.8-0.8,1.2c0,0.3,0,0.5,0.1,0.6c0,0,0.1,0.1,0.2,0.2
			c0.1,0,0.2,0.1,0.3,0.2l0.6-0.5h0.6l1.1-0.2l0.5,0c0.5,0,0.8,0,0.8,0c0,0,0.2,0.1,0.5,0.3c0,0,0.1,0,0.1,0c0.2,0,0.3-0.1,0.6-0.3
			l0,0l0,0l0.4,0.6l0.6-0.5c0.1-0.1,0.1-0.2,0.2-0.2h0.1l1.6,0.1l0.6,0c0.3,0,0.4,0,0.5,0c0.1,0,0.2,0,0.2,0c0,0,0.2,0,0.5-0.1
			c0,0,0.1,0,0.1,0c0,0,0.1,0,0.2,0c0.6,0,0.9,0.1,0.9,0.1c0,0,0.2,0,0.6-0.1h0.2l2.6,0l0.2,0c0,0,0.1,0,0.2,0c0.1,0,0.1,0,0.1,0
			c0,0,0.2,0,0.4,0.1c0,0,0.2,0,0.4,0l0.2,0.5l0.4,0.1v-0.5l0,0l0.1-0.1c0.3,0.5,0.4,0.7,0.5,0.7c0,0,0.3-0.2,0.8-0.6
			c0.1-0.1,0.2-0.1,0.4-0.1c0.1,0,0.2,0.1,0.4,0.2c0.2-0.1,0.4-0.1,0.5-0.1c0.2,0,0.3-0.1,0.4-0.1c0-0.1,0.1-0.2,0.1-0.3
			c0.1-0.1,0.2-0.1,0.4-0.1c0.2,0,0.4,0,0.6,0c0.9-0.2,1.3-0.3,1.5-0.3c0.2-0.1,0.4-0.2,0.4-0.2c0.2,0,0.2,0.1,0.2,0.3
			c0,0.1,0,0.2-0.1,0.4c-0.1,0.2-0.2,0.3-0.2,0.5c-0.2,0.1-0.2,0.1-0.2,0.2l-0.1,0.3c-0.3,0.3-0.8,0.5-1.5,0.5l-0.5,0.1l-0.8-0.7
			l-1,0.8l-0.6-0.1l-0.8,0l-0.5-0.1h-0.7l-0.8-0.1c0,0-0.1,0-0.2,0l-0.2-0.1c-0.3,0.1-0.5,0.2-0.6,0.2c0,0-0.4-0.1-1-0.2
			c-0.1,0-0.4,0-0.9,0c-0.3,0-0.5,0-0.7,0c-0.3,0-0.5,0.1-0.6,0.1c0,0-0.4-0.1-1.3-0.2c-0.2,0-0.3,0-0.3,0c-0.1,0-0.2,0-0.3,0
			l-0.2,0.2c-0.2,0-0.3-0.1-0.4-0.1l-1.5,0h-0.6l-0.9,0.1c0,0-0.2,0-0.3-0.1l0.1-0.2c-0.2,0-0.5,0-0.7,0.1l0,0.4h-0.3h-0.1l0,0h0
			c0,0,0,0-0.1,0c-0.2-0.1-0.4-0.1-0.6-0.1c-0.2,0-0.3,0-0.4,0l0,0c0,0-0.2-0.2-0.4-0.5c-0.1-0.1-0.2-0.2-0.3-0.2
			c-0.1,0-0.4,0.2-1,0.6c-0.1,0.1-0.3,0.1-0.5,0.1c-0.1,0-0.3,0-0.7-0.1c0,0-0.1,0-0.1,0c-0.1,0-0.4,0-0.9,0.1l-0.8,0
			c-0.7,0.2-1,0.2-1.1,0.2c-0.1,0-0.3,0-0.5-0.1c0-0.1,0-0.2,0-0.2c0-0.1,0-0.2,0.1-0.4c0,0,0.1,0,0.1,0c0.1,0,0.2,0,0.3-0.1
			c0.1-0.1,0.3-0.4,0.5-1l0-0.8c0,0,0,0,0-0.1c0.1-0.2,0.2-0.3,0.2-0.3c-0.1-0.2-0.1-0.3-0.1-0.3c0,0,0-0.1,0-0.1
			c0-0.6,0.1-1.2,0.1-2c0-0.2,0.1-0.6,0.2-1c0-0.1,0.1-0.2,0.2-0.2c0.1,0,0.1-0.1,0.1-0.3c0-0.2,0-0.4,0.1-0.5l-0.2,0.4h-0.1
			c0-0.1-0.1-0.3-0.2-0.4c0-0.2,0-0.3,0-0.4l0-0.6v0l0.3-0.4l0.2-0.8c0-0.1,0.2-0.2,0.6-0.4l0.1,0c0-0.1-0.4-0.2-1.1-0.4l0.5-0.2
			v-0.2l-0.3-0.1c0-0.2-0.1-0.3-0.3-0.4c0-0.2,0-0.5,0.1-0.7l-0.2-1.3l1.2-0.9l-1.2-1.5l0.9-0.4l-0.9-0.3l0.3-0.2
			c0-0.3,0-0.5,0.1-0.8c-0.1-0.1-0.2-0.1-0.3-0.2c-0.1-0.1-0.1-0.1-0.2-0.1c0-0.3-0.1-0.5-0.1-0.6c0-0.4,0-0.6,0-0.7
			c0-0.1,0-0.1,0-0.2c0-0.1,0.1-0.2,0.2-0.4c0-0.1-0.1-0.2-0.2-0.2c0,0-0.1,0-0.1,0c0-0.2,0-0.3,0-0.5c0-0.2,0.1-0.3,0.2-0.5
			c-0.2-0.2-0.3-0.4-0.3-0.6v-1.8c0-0.2,0-0.6-0.1-1.1c-0.1-0.5-0.1-0.8-0.1-0.9c0,0-0.1-0.1-0.2-0.1v-0.7l-0.5,0.1v-0.1l-0.1,0
			c-0.1,0-0.2,0-0.3,0C177.5,420.7,177.4,420.7,177.3,420.7z"/>
		<path class="st0" d="M209,437c0.1-0.2,0.2-0.3,0.3-0.4c0.1,0,0.4-0.1,0.9-0.2c0.4-0.2,0.6-0.3,0.7-0.3c0.1,0,0.4-0.1,0.9-0.1
			l0.5-0.2l0.3,0l0.3,0h0.6l1.1-0.1c0.3,0,0.6-0.1,0.6-0.1c0.2-0.1,0.3-0.3,0.3-0.6c0,0,0-0.2-0.1-0.5l0.8-0.9c0,0-0.3-0.1-0.9-0.3
			c0,0-0.2,0-0.4,0c-0.4-0.5-0.7-0.8-0.7-0.9c-0.1,0-0.5-0.1-1.1-0.2h-0.5c-0.2-0.1-0.4-0.1-0.4-0.1c-0.1,0-0.2,0-0.3,0l-0.3-0.3
			c-0.2,0.1-0.4,0.2-0.5,0.3c-0.1,0.1-0.2,0.2-0.5,0.3c-0.5,0.2-0.9,0.5-1.2,0.7l-0.2,0.1c-0.1,0.2-0.2,0.3-0.2,0.3
			c-0.1,0.1-0.3,0.1-0.4,0.1c-0.1,0-0.2-0.1-0.5-0.2c-0.3-0.1-0.5-0.1-0.6-0.2c-0.1-0.1-0.2-0.2-0.3-0.4c0.2-0.1,0.3-0.2,0.3-0.3
			c0.2-0.1,0.3-0.2,0.3-0.2l0.7-0.2l0.4-0.2l0.9-0.3l0.6-0.2h0.6l0.7-0.2l0.3,0l0.5-0.1c0.5,0,0.8,0,0.9,0c0.1,0,0.4,0.1,0.8,0.2
			l0.3,0c0.4,0.1,0.6,0.1,0.8,0.1c0.1,0,0.3,0.1,0.5,0.3c-0.2,0.1-0.2,0.3-0.2,0.4c0,0.1,0.1,0.2,0.2,0.2c0.1,0,0.2,0,0.3-0.1
			c0.1,0,0.2-0.1,0.4-0.1c0.1,0.1,0.2,0.3,0.2,0.5l0.4,0.3c0,0.1,0,0.2,0,0.2l0,0.6c0.1,0.4,0.2,0.7,0.3,0.8h0.1
			c0,0.2,0.1,0.4,0.1,0.7c0,0.6,0,0.9,0.1,1.1c-0.2,0.1-0.3,0.3-0.3,0.4c0,0.1,0.1,0.3,0.4,0.4c0,0.1,0,0.2,0,0.3
			c0,0.1,0,0.3-0.1,0.5c0,0.1,0,0.2,0,0.3c0,0.3,0.1,0.7,0.2,1.2c-0.2,0.2-0.3,0.3-0.3,0.5c0,0.1,0.1,0.3,0.2,0.6
			c0,0,0.1,0.1,0.1,0.3c0,0.1,0.1,0.2,0.2,0.4c-0.1,0.1-0.2,0.2-0.2,0.4c-0.1,0.1-0.2,0.1-0.4,0.2l-0.6,0.2l-0.3,0.1
			c-0.4,0.1-0.6,0.2-0.6,0.2c-0.1,0-0.2-0.1-0.3-0.2l0.2-1c-0.3,0.1-0.7,0.2-1.2,0.4l-0.4,0.1c-0.3,0.1-0.4,0.1-0.4,0.1l-0.5-0.1
			l-0.5,0.3l-0.3,0l-1.2,0.2l-0.6,0c-0.3,0.1-0.5,0.2-0.6,0.2c-0.1,0-0.5-0.1-1.1-0.2l-0.6-0.1l-0.4-0.2c-0.3-0.1-0.6-0.3-0.8-0.4
			c-0.1-0.1-0.3-0.3-0.3-0.6l-0.3-0.1c0-0.1-0.1-0.3-0.1-0.5l-0.1-0.6v0c0-0.1,0.1-0.2,0.2-0.4c0.1-0.1,0.2-0.4,0.4-0.7
			c0.5-0.5,0.8-0.8,0.9-0.9c0.1-0.1,0.4-0.3,0.9-0.4c0.3-0.2,0.4-0.3,0.5-0.3C208.8,437,208.9,437,209,437z M208.1,440.1
			c-0.1,0.1-0.2,0.3-0.2,0.4c-0.1,0.2-0.2,0.3-0.1,0.3l0.1,0.3l0.4-0.3c0.3,0.2,0.6,0.4,0.7,0.4c0.4,0.1,0.6,0.1,0.6,0.2
			c0.1,0,0.1,0.1,0.2,0.3c0.2,0,0.4,0,0.4,0.1c0.1,0,0.1,0,0.2,0c0.1,0,0.2-0.1,0.4-0.2c0.1,0.1,0.3,0.1,0.3,0.1
			c0,0,0.1-0.1,0.3-0.2l0.4,0.1l0.8-0.3l0.4-0.2l0.3,0.1l0.6-0.2l0.6-0.2c0.2-0.3,0.3-0.4,0.3-0.4c0.1-0.1,0.3-0.2,0.5-0.2l0.1-0.5
			c0.2-0.1,0.3-0.2,0.3-0.4c-0.1-0.1-0.2-0.2-0.3-0.3c0-0.2,0-0.3,0-0.4v-0.2c0-0.3,0-0.5,0-0.7c0-0.1,0-0.1,0-0.2
			c0-0.1,0-0.3,0.1-0.5c-0.1,0-0.2-0.1-0.3-0.2l-0.6,0l-0.6,0l-0.4,0h-0.3c0,0-0.2-0.1-0.4-0.2l-0.3,0.1c-0.4,0-0.7,0-0.9,0.1
			c-0.1,0-0.2,0.1-0.3,0.1c0,0-0.1,0-0.3-0.1c0,0,0,0,0,0c0,0-0.2,0.1-0.5,0.3c0,0-0.3,0.1-0.8,0.3c-0.6,0.3-1.1,0.5-1.3,0.8
			c0,0-0.1,0.2-0.3,0.4c-0.1,0.1-0.2,0.2-0.5,0.2c0,0.1-0.1,0.1-0.1,0.2c0,0,0,0.1,0.1,0.2l0.1,0.8
			C207.9,439.8,208,439.9,208.1,440.1z"/>
		<path class="st0" d="M220.9,431.9c0.1-0.4,0.2-0.6,0.4-0.6h0l0.7,0h0c0.5-0.1,0.9-0.1,0.9-0.1c0-0.2,0-0.3,0-0.3
			c0-0.9,0-1.7-0.1-2.2c0-0.3-0.1-0.5-0.2-0.7l-0.1-0.3c0-0.1-0.1-0.2-0.1-0.2c0-0.1,0.1-0.3,0.3-0.5c0.4-0.3,0.8-0.5,1.4-0.7
			c0.1-0.3,0.3-0.4,0.4-0.4c0.1,0,0.1,0,0.1,0.1c0.1,0.1,0.2,0.3,0.2,0.6c0,0,0,0.8-0.1,2.3c-0.1,0.4-0.2,0.6-0.2,0.7
			c0,0.1-0.2,0.3-0.3,0.4c0,0.2,0,0.4,0.1,0.6h0.3l-0.1,0.7c0.2,0,0.7,0.1,1.5,0.3c0,0,0.2,0,0.5,0c0.2,0,0.5-0.1,0.9-0.2l1-0.1
			c0.5-0.2,0.8-0.3,0.9-0.3c0.1,0,0.3,0,0.5,0c0,0.3,0,0.5-0.1,0.6c0,0.1-0.3,0.4-0.9,0.7c-0.1,0.1-0.2,0.1-0.3,0.2
			c-0.1,0.2-0.2,0.3-0.2,0.3c0,0-0.2,0.1-0.3,0.1c-0.1,0-0.3,0-0.3-0.1l-0.6-0.3l-0.4-0.1l-0.4-0.3l-0.7,0.6l-0.6-0.1
			c0,0-0.1,0-0.3,0.1c0.1,0.5,0.1,0.9,0.1,1.2c0,0.2,0,0.4,0,0.7c-0.4,0.1-0.5,0.2-0.5,0.4c0,0.1,0,0.2,0.1,0.3c0.2,0,0.4,0,0.5,0.1
			l0,1.8c-0.1,0-0.3-0.1-0.4-0.1c-0.2,0-0.3,0.1-0.3,0.2c0,0.1,0,0.3,0.1,0.4c0.1-0.1,0.3-0.1,0.3-0.1c0.1,0,0.2,0.1,0.2,0.3l0,0.6
			v0c0,0.4,0,0.7,0,0.9c0,0.2,0.1,0.4,0.2,0.6l0.2,0.3c0,0,0,0.1,0,0.2c0,0.1,0,0.2,0,0.3c0.3,0.2,0.6,0.3,1,0.3
			c0.3,0,0.6-0.1,0.9-0.2c0.3-0.1,0.4-0.2,0.4-0.2l0.8-0.7c0.4-0.3,0.6-0.5,0.7-0.5c0.1,0,0.2,0,0.4,0.1c0,0.2,0,0.3-0.1,0.4
			c-0.1,0.5-0.1,0.8-0.2,0.9c-0.1,0.1-0.4,0.2-0.9,0.4c-0.4,0.2-1,0.4-1.8,0.7l-0.5,0.2c-0.3,0.2-0.5,0.3-0.6,0.3
			c-0.1,0-0.2-0.1-0.3-0.3l-0.3-0.1l-0.2,0.4c-0.1,0-0.3,0-0.3,0c-0.3,0-0.6-0.2-0.9-0.5c-0.2-0.2-0.3-0.3-0.4-0.5
			c0,0,0-0.1-0.1-0.4c-0.1-0.3-0.2-0.5-0.2-0.6c0-0.1,0-0.2,0-0.4c0-0.2,0-0.5,0-1c0-0.3,0.1-0.6,0.3-0.7c-0.1-0.2-0.1-0.4-0.1-0.7
			c0-0.4-0.1-1.3-0.1-2.5c0.2-0.1,0.3-0.3,0.3-0.4c0-0.1,0-0.2,0-0.3l-0.4-0.1l0-0.1v0c0,0,0-0.2,0-0.3c0.1-0.3,0.1-0.7,0.1-1.3
			c-0.4-0.1-0.7-0.1-0.9-0.1c-0.1,0-0.3,0-0.8,0.1l-0.3,0c-0.3,0.1-0.4,0.1-0.4,0.1c-0.1,0-0.2-0.1-0.2-0.2
			C220.3,432.3,220.5,432.1,220.9,431.9z"/>
		<path class="st0" d="M238.9,419.7c0.1-0.1,0.2-0.2,0.2-0.2l0.6-0.3c0.4-0.3,0.8-0.4,1-0.5c0.4-0.1,0.8-0.3,1.2-0.6c0,0,0,0,0.1,0
			l0.3,0.2c0,0.1-0.1,0.3-0.3,0.4l0.3,0.2c-0.4,0.3-0.6,0.5-0.6,0.6l-0.4,1.1l-0.4,0.4l1.2,0.4c0,0.1-0.1,0.1-0.1,0.1c0,0,0,0-0.1,0
			h0l-0.3-0.1c0,0.2,0,0.3,0.1,0.3c0,0,0.1,0.1,0.3,0.2l0.1,0.1v2.2v0.3l0,0.3c0,0,0,0.1-0.1,0.2c0,0.1-0.1,0.2-0.1,0.4
			c0.2,0.1,0.3,0.2,0.3,0.3c0,0.1,0,0.2-0.1,0.4c0.5-0.2,0.8-0.2,1.1-0.2c0.4,0,0.9,0.1,1.4,0.3c0.1,0,0.3,0.2,0.5,0.5
			c0.1,0,0.3,0.1,0.8,0.3l1.6-0.7l0,0c0.1,0.2,0.2,0.4,0.3,0.5l0.3-0.2l0.3,0.1c0.1-0.1,0.2-0.1,0.2-0.1c0,0,0.1,0,0.1,0l0.2-0.2
			v-0.1c0.1,0,0.2,0.1,0.3,0.1c0.2,0.1,0.4,0.1,0.4,0.1h0c0.3-0.1,0.5-0.1,0.6-0.1l1.3,0h0.4l0.3,0c0.6,0,0.9,0,1,0
			c0.1,0,0.2-0.1,0.4-0.2c0.3,0.1,0.4,0.1,0.4,0.1c0,0,0.2,0,0.5-0.1l0.4,0c0.4-0.1,0.6-0.2,0.6-0.2c0.1,0,0.2,0.1,0.4,0.2
			c0.1,0,0.2,0,0.3,0c0.1,0,0.2,0,0.3,0.1c0.1,0.1,0.3,0.1,0.4,0.1c0.2-0.3,0.4-0.4,0.5-0.5c0.1,0,0.5-0.1,1.1-0.1l0.6,0l0.4,0.1
			l0.5,0l0.4,0c0.1,0,0.2-0.1,0.3-0.2c0-0.1,0.1-0.3,0.2-0.6c-0.2-0.5-0.4-0.7-0.4-0.7c0,0,0-0.2,0.1-0.5l0-0.6
			c0-0.1,0.1-0.2,0.1-0.2c0-0.1-0.1-0.2-0.2-0.3l0.1-0.4v0c0-0.1-0.1-0.2-0.4-0.3c0,0,0,0,0-0.1c0-0.1,0-0.2,0.1-0.4
			c0-0.2,0.1-0.4,0.1-0.6c0-0.1-0.1-0.3-0.2-0.4c0-0.1,0-0.1,0-0.2c0-0.1,0-0.2,0-0.3c-0.3,0-0.5-0.2-0.5-0.3c0-0.1,0-0.1,0.1-0.2
			c0,0,0.2-0.1,0.5-0.3c0.3-0.2,0.5-0.3,0.6-0.3c0.2-0.1,0.3-0.1,0.4-0.2c0.2,0,0.4-0.1,0.5-0.1c0.4-0.2,0.7-0.3,0.8-0.3
			c0,0,0.1,0,0.2,0.1c0,0.3-0.1,0.9-0.1,1.9c0,0.1-0.1,0.3-0.2,0.8l-0.4,0c-0.1,0.2-0.1,0.3-0.1,0.4c0,0.1,0,0.2,0.1,0.3
			c0.2,0.1,0.3,0.2,0.3,0.2l0.1,0.2l0.2,0.3c-0.1,0.4-0.1,0.6-0.1,0.6c0,0,0,0.1,0,0.2c0,0.3,0,0.5,0,0.6c0,0.7-0.1,1.3-0.2,1.6
			c0.1,0.2,0.2,0.3,0.2,0.5c0,0.1-0.1,0.2-0.3,0.5c-0.1,0.1-0.1,0.3-0.1,0.7l0.3,0v2.9c0,0.1-0.1,0.2-0.2,0.5
			c-0.1,0.2-0.1,0.3-0.1,0.4l0.3,0.2c-0.1,0.1-0.1,0.3-0.1,0.4c0,0.1,0,0.2,0,0.3c-0.1,0.1-0.1,0.1-0.2,0.1c0,0-0.1,0-0.1,0
			c0,0.3,0.1,0.4,0.2,0.4c0.1,0.1,0.3,0.1,0.3,0.2c-0.1,0.5-0.1,0.8-0.1,0.9c0,0.1,0,0.2,0,0.3c0.1,0.4,0.1,0.6,0.1,0.7
			c0,0.1,0,0.2-0.1,0.4l-0.3-0.1v0.1l0.2,0.1c0.1,1,0.2,1.7,0.2,2.4c-0.3,0.1-0.5,0.3-0.5,0.4c0,0.4,0.2,0.7,0.5,0.9
			c0,0.1,0,0.2-0.1,0.5c0.1,0.4,0.1,0.7,0.1,0.7c0,0.1,0,0.2,0,0.4c0,0.1,0,0.3,0,0.5c0,0.2,0,0.4,0,0.5c0,0.1,0,0.2,0,0.3
			c0,0.1,0,0.1-0.1,0.1l-1.1,0.4l1.1,0.5l0,0.3c0,0,0,0.1,0.1,0.3v0c0,0,0,0.1-0.1,0.1c-0.7,0.3-1.1,0.6-1.1,0.8
			c0,0.3,0.3,0.5,1,0.7c0.4,0.1,0.6,0.3,0.6,0.4c-0.2,0.1-0.4,0.2-0.4,0.2c-0.2,0.1-0.5,0.3-0.9,0.5l-0.3,0.1
			c-0.4,0.3-0.7,0.5-0.8,0.6c-0.2,0.1-0.3,0.1-0.4,0.1c-0.2,0-0.3-0.1-0.3-0.2l0-0.9c0-0.1,0-0.2-0.1-0.3c0.2-0.2,0.3-0.4,0.4-0.6
			c0-0.1,0-0.4,0-0.8c0-0.3,0-0.4,0-0.5c0-0.3,0.2-0.6,0.4-0.7l0.8-0.5c-0.7-0.3-1.1-0.4-1.1-0.5c0,0,0.4-0.2,1.1-0.6l-1-1.1
			c0.1-0.2,0.2-0.5,0.2-0.7v0c0-0.1,0-0.2-0.1-0.3c0-0.2-0.1-0.3-0.1-0.3l0-2.5c0,0,0-0.1,0-0.2c0.2-0.2,0.4-0.3,0.4-0.4
			c0-0.1,0-0.2-0.1-0.3c0-0.1-0.1-0.2-0.1-0.4l-0.3-0.1c0.1-0.4,0.1-0.7,0.1-0.7c0-1.1,0-1.7,0-1.9h0.1c0.1-0.1,0.1-0.2,0.2-0.4
			c0-0.2,0-0.4,0.1-0.6c-0.2-0.1-0.3-0.3-0.3-0.4c0-0.1,0-0.2,0-0.5c0,0,0-0.1,0-0.3l-0.1-0.8c0,0,0-0.2,0.1-0.6
			c0.1-0.4,0.3-0.6,0.6-0.7l0.1-0.3h-0.1c-0.1,0-0.3-0.1-0.5-0.2c-0.7,0-1.1,0-1.3,0.1c-0.3,0-0.5,0-0.5,0c-0.1,0-0.4,0-0.9-0.1
			c-0.2,0-0.4,0-0.7,0c-0.3,0-0.6,0-0.9,0l-0.3,0c-0.3,0-0.5,0-0.6,0c-0.3,0-0.5,0.1-0.6,0.1c-0.1,0-0.3-0.1-0.5-0.2
			c-0.2-0.2-0.4-0.2-0.5-0.2c0,0-0.2,0.1-0.4,0.2c-0.1,0.1-0.3,0.2-0.5,0.2c-0.1,0-0.4,0-1,0c-0.1,0-0.2,0-0.3,0
			c-0.3,0-0.7,0-1.1,0.1c-0.9,0-1.4,0-1.5,0c0,0-0.2,0-0.5-0.1c-0.4,0.2-0.6,0.3-0.7,0.3c0,0-0.4-0.1-1.1-0.2l-0.4-0.6l-0.6,0.7
			l-0.7-0.1l-0.4,0.1h-0.4l-0.8,0.1l-0.4,0c-0.2,0-0.5,0-0.8,0c-0.1,0-0.1,0-0.2,0c-0.1,0-0.2,0-0.3,0.1v2.1c0,0.6,0,1,0,1.1
			c0,0.2,0.1,0.4,0.1,0.5v0c0,0.1,0,0.1,0,0.2l0,0.8c0,0,0,0-0.1,0.1c-0.1,0.1-0.1,0.2-0.1,0.2l0.1,0.5c0,0,0,0.1-0.1,0.3v0
			c0.1,0.6,0.1,0.9,0.1,0.9c0,0.2-0.1,0.6-0.3,1.1c0.2,0.1,0.2,0.3,0.2,0.3l0,0.2c0,0,0,0.1,0.1,0.2c0,0.1,0.1,0.2,0.1,0.2
			c0,0,0,0.2,0,0.5l-0.2,0.4v0.9c-0.1,0.3-0.1,0.5-0.1,0.7c0,0.2,0,0.3,0,0.3c0,0.1,0.2,0.2,0.4,0.2c-0.1,0.2-0.1,0.6-0.1,1.1l0,0.5
			l0.1,0.9v2.7l0,0.2L242,445l0.2,0.3c-0.2,0.1-0.3,0.2-0.3,0.3c-0.3,0.3-0.7,0.5-1.1,0.6l0,0v-0.1c-0.3,0-0.5,0-0.6,0.1
			c-0.1,0-0.1,0.1-0.2,0.3l-0.5,0.1c0-0.3,0-0.6,0-0.7c0-0.2,0.1-0.5,0.2-0.8c0-0.3,0-0.4,0-0.5c0.1-0.2,0.1-0.5,0.2-1.1l0.1-1.8
			c0-0.2,0-0.3,0.1-0.3l0.2-0.2c0,0,0.1-0.1,0.1-0.2c0-0.1,0-0.3,0-0.5h-0.1c-0.1-0.1-0.1-0.2-0.1-0.3l0.1-0.6v-0.7
			c0-0.2,0.1-0.4,0.2-0.7c0.2,0,0.3-0.1,0.4-0.2l-0.1-0.9l-0.3,0c0-0.2,0-0.5,0-1.1c-0.1-0.4-0.1-0.7-0.1-0.9c0-0.1,0-0.5,0.1-1.1
			c0-0.2,0-0.3,0-0.5c0-0.2,0-0.4,0-0.6c0-0.3-0.1-0.5-0.1-0.7c0-0.3,0.1-0.4,0.4-0.5c0-0.2,0-0.4,0-0.5c0-0.2,0-0.4,0-0.4
			c-0.1-0.1-0.2-0.2-0.4-0.3c0-0.2,0.1-0.5,0.1-0.8c0-0.1,0-0.2,0-0.3c0-0.1-0.1-0.3-0.2-0.7c0-0.2,0.1-0.3,0.1-0.4v-0.1l0-1.5
			l0-0.1c0-0.1,0-0.2,0.1-0.3l0.2,0.1c0-0.1,0-0.3,0-0.3c0-0.1-0.1-0.3-0.3-0.7c0,0,0-0.1,0-0.2c0-0.1,0.1-0.4,0.2-0.6l-0.3,0
			l-0.1-0.5l0.2-0.1l0-0.5c-0.2-0.1-0.3-0.3-0.3-0.4c-0.1-0.3-0.1-0.6-0.1-0.8c0-0.1,0-0.2,0.1-0.3c0.1-0.1,0.1-0.2,0.1-0.3
			l-0.1-0.4l0-0.3v0c0-0.1,0-0.2-0.1-0.4c0-0.1-0.1-0.2-0.2-0.4c-0.2,0-0.3,0-0.3-0.1C239.1,420,239,419.9,238.9,419.7z"/>
		<path class="st0" d="M276,431.4l0.5-0.3c0.1,0.2,0.2,0.3,0.3,0.3c0,0,0.1,0.1,0.3,0.1c0.1,0,0.5,0.5,1.2,1.2
			c0.2,0.2,0.4,0.5,0.5,0.7c0.1,0.2,0.2,0.4,0.2,0.7c0.1,0.1,0.1,0.3,0.2,0.5l-0.1,0.1c-0.1,0-0.3-0.1-0.4-0.1l-0.6,0.2l-0.5-0.1
			l-0.4,0.1c-0.6-0.4-0.9-0.6-0.9-0.6c-0.1,0-0.3,0.2-0.7,0.6c-0.6-0.1-0.9-0.2-1-0.2c-0.2,0-0.3,0-0.6,0l-0.1-0.1
			c-0.2,0-0.6,0-1.3,0l-0.5,0.1l-0.7,0.1l-0.7,0.1l-0.6,0c-0.6,0.2-0.9,0.3-1.1,0.3c0,0.3-0.1,0.6-0.1,0.7c-0.1,0.1-0.2,0.3-0.3,0.5
			c0.3,0.2,0.5,0.4,0.5,0.4c0.1,0.6,0.2,1,0.3,1.2l0.3,0.1l-0.1,0.5l0.4,0.1c0.1,0.4,0.2,0.7,0.4,0.8c0.1,0.1,0.4,0.2,0.7,0.3
			c0,0.3,0.1,0.5,0.2,0.5c0.1,0.1,0.3,0.1,0.5,0.1l0.2,0.4c0.1,0,0.2,0,0.3,0c0.1,0,0.3,0.1,0.9,0.4c0.1,0.1,0.2,0.1,0.4,0.1
			c0.1,0,0.4-0.1,0.7-0.2l0.9-0.1l0.7-0.2c0.3,0,0.6,0,0.7-0.1c0.2-0.1,0.5-0.2,0.9-0.5c0.4-0.3,0.7-0.4,0.7-0.5
			c0.2-0.2,0.3-0.4,0.5-0.7c0.1-0.1,0.2-0.2,0.4-0.2c0.1,0,0.2,0.1,0.4,0.2c-0.1,0.3-0.1,0.6-0.2,0.7c-0.4,0.7-0.7,1.1-0.8,1.4
			c-0.1-0.1-0.2-0.1-0.3-0.1c-0.1,0-0.2,0.1-0.5,0.3c-0.2,0.1-0.4,0.2-0.7,0.2c-0.6,0.2-1,0.3-1.2,0.3c-0.4,0-0.6,0.1-0.8,0.1
			c-0.3,0.1-0.5,0.1-0.5,0.1l-0.9-0.1l-0.5,0.1l-0.2,0c-0.2,0-0.4,0-0.5,0c-0.1,0-0.5,0-1.1-0.1l-0.3,0l-0.3-0.2
			c-0.7-0.2-1.1-0.4-1.2-0.4c0,0-0.2-0.2-0.5-0.4c0,0-0.2-0.1-0.5-0.3c-0.3-0.2-0.4-0.3-0.4-0.4l-0.3-0.5c0-0.1-0.2-0.3-0.5-0.6
			c0.1-0.2,0.1-0.3,0.1-0.3c0,0-0.1-0.3-0.4-0.8c-0.1-0.1-0.1-0.5-0.1-1.2c0-0.2,0.1-0.6,0.2-1c0.1-0.4,0.2-0.6,0.2-0.7l0.5-0.6
			l0.3-0.7c0.3-0.3,0.7-0.7,1.1-1l1.1-0.7l1.1-0.7l0.4-0.1l1.1-0.3l0.7-0.1c0.6-0.2,0.9-0.3,0.9-0.3
			C275.4,430.6,275.8,430.9,276,431.4z M274.3,433.6l0.2,0.3c0.2,0,0.3-0.1,0.4-0.1c0.3,0,0.5-0.1,0.8-0.2l0.8,0.1c0,0,0,0,0.1-0.1
			c0-0.1,0-0.1,0-0.1c0-0.1-0.1-0.2-0.2-0.3c0,0-0.1-0.1-0.1-0.2c-0.2-0.3-0.4-0.5-0.4-0.4l-0.5-0.2c-0.1,0-0.2-0.1-0.3-0.3
			c-0.3,0-0.8-0.1-1.4-0.1l-0.3,0l-0.5,0.3c0,0-0.3,0.1-0.8,0.2c-0.4,0.1-0.8,0.3-1.1,0.4c-0.1,0-0.3,0.2-0.6,0.5
			c-0.1,0-0.2,0.1-0.3,0.3v0.1l0,0l1.1,0.4l0.3,0.3l0.6-0.7c0,0,0.1-0.1,0.2-0.1c0,0,0.3,0.1,0.7,0.2c0,0,0,0,0,0
			c0.1,0,0.4,0,0.8-0.1C273.9,433.6,274.1,433.6,274.3,433.6z"/>
		<path class="st0" d="M285.6,437c0.1-0.2,0.2-0.3,0.3-0.4c0.1,0,0.4-0.1,0.9-0.2c0.4-0.2,0.6-0.3,0.7-0.3c0.1,0,0.4-0.1,0.9-0.1
			l0.5-0.2l0.3,0l0.3,0h0.6l1.1-0.1c0.3,0,0.6-0.1,0.6-0.1c0.2-0.1,0.3-0.3,0.3-0.6c0,0,0-0.2-0.1-0.5l0.8-0.9c0,0-0.3-0.1-0.9-0.3
			c0,0-0.2,0-0.4,0c-0.4-0.5-0.7-0.8-0.7-0.9c-0.1,0-0.5-0.1-1.1-0.2H289c-0.2-0.1-0.4-0.1-0.4-0.1c-0.1,0-0.2,0-0.3,0l-0.3-0.3
			c-0.2,0.1-0.4,0.2-0.5,0.3c-0.1,0.1-0.2,0.2-0.5,0.3c-0.5,0.2-0.9,0.5-1.2,0.7l-0.2,0.1c-0.1,0.2-0.2,0.3-0.2,0.3
			c-0.1,0.1-0.3,0.1-0.4,0.1c-0.1,0-0.2-0.1-0.5-0.2c-0.3-0.1-0.5-0.1-0.6-0.2c-0.1-0.1-0.2-0.2-0.3-0.4c0.2-0.1,0.3-0.2,0.3-0.3
			c0.2-0.1,0.3-0.2,0.3-0.2l0.7-0.2l0.4-0.2l0.9-0.3l0.6-0.2h0.6l0.7-0.2l0.3,0l0.5-0.1c0.5,0,0.8,0,0.9,0c0.1,0,0.4,0.1,0.8,0.2
			l0.3,0c0.4,0.1,0.6,0.1,0.8,0.1c0.1,0,0.3,0.1,0.5,0.3c-0.2,0.1-0.2,0.3-0.2,0.4c0,0.1,0.1,0.2,0.2,0.2c0.1,0,0.2,0,0.3-0.1
			c0.1,0,0.2-0.1,0.4-0.1c0.1,0.1,0.2,0.3,0.2,0.5l0.4,0.3c0,0.1,0,0.2,0,0.2l0,0.6c0.1,0.4,0.2,0.7,0.3,0.8h0.1
			c0,0.2,0.1,0.4,0.1,0.7c0,0.6,0,0.9,0.1,1.1c-0.2,0.1-0.3,0.3-0.3,0.4c0,0.1,0.1,0.3,0.4,0.4c0,0.1,0,0.2,0,0.3
			c0,0.1,0,0.3-0.1,0.5c0,0.1,0,0.2,0,0.3c0,0.3,0.1,0.7,0.2,1.2c-0.2,0.2-0.3,0.3-0.3,0.5c0,0.1,0.1,0.3,0.2,0.6
			c0,0,0.1,0.1,0.1,0.3c0,0.1,0.1,0.2,0.2,0.4c-0.1,0.1-0.2,0.2-0.2,0.4c-0.1,0.1-0.2,0.1-0.4,0.2l-0.6,0.2l-0.3,0.1
			c-0.4,0.1-0.6,0.2-0.6,0.2c-0.1,0-0.2-0.1-0.3-0.2l0.2-1c-0.3,0.1-0.7,0.2-1.2,0.4l-0.4,0.1c-0.3,0.1-0.4,0.1-0.4,0.1l-0.5-0.1
			l-0.5,0.3l-0.3,0l-1.2,0.2l-0.6,0c-0.3,0.1-0.5,0.2-0.6,0.2c-0.1,0-0.5-0.1-1.1-0.2l-0.6-0.1l-0.4-0.2c-0.3-0.1-0.6-0.3-0.8-0.4
			c-0.1-0.1-0.3-0.3-0.3-0.6l-0.3-0.1c0-0.1-0.1-0.3-0.1-0.5l-0.1-0.6v0c0-0.1,0.1-0.2,0.2-0.4c0.1-0.1,0.2-0.4,0.4-0.7
			c0.5-0.5,0.8-0.8,0.9-0.9c0.1-0.1,0.4-0.3,0.9-0.4c0.3-0.2,0.4-0.3,0.5-0.3C285.4,437,285.5,437,285.6,437z M284.7,440.1
			c-0.1,0.1-0.2,0.3-0.2,0.4c-0.1,0.2-0.2,0.3-0.1,0.3l0.1,0.3l0.4-0.3c0.3,0.2,0.6,0.4,0.7,0.4c0.4,0.1,0.6,0.1,0.6,0.2
			c0.1,0,0.1,0.1,0.2,0.3c0.2,0,0.4,0,0.4,0.1c0.1,0,0.1,0,0.2,0c0.1,0,0.2-0.1,0.4-0.2c0.1,0.1,0.3,0.1,0.3,0.1
			c0,0,0.1-0.1,0.3-0.2l0.4,0.1l0.8-0.3l0.4-0.2l0.3,0.1l0.6-0.2l0.6-0.2c0.2-0.3,0.3-0.4,0.3-0.4c0.1-0.1,0.3-0.2,0.5-0.2l0.1-0.5
			c0.2-0.1,0.3-0.2,0.3-0.4c-0.1-0.1-0.2-0.2-0.3-0.3c0-0.2,0-0.3,0-0.4v-0.2c0-0.3,0-0.5,0-0.7c0-0.1,0-0.1,0-0.2
			c0-0.1,0-0.3,0.1-0.5c-0.1,0-0.2-0.1-0.3-0.2l-0.6,0l-0.6,0l-0.4,0h-0.3c0,0-0.2-0.1-0.4-0.2l-0.3,0.1c-0.4,0-0.7,0-0.9,0.1
			c-0.1,0-0.2,0.1-0.3,0.1c0,0-0.1,0-0.3-0.1c0,0,0,0,0,0c0,0-0.2,0.1-0.5,0.3c0,0-0.3,0.1-0.8,0.3c-0.6,0.3-1.1,0.5-1.3,0.8
			c0,0-0.1,0.2-0.3,0.4c-0.1,0.1-0.2,0.2-0.5,0.2c0,0.1-0.1,0.1-0.1,0.2c0,0,0,0.1,0.1,0.2l0.1,0.8
			C284.5,439.8,284.5,439.9,284.7,440.1z"/>
		<path class="st0" d="M298.1,418.7c0.1,0,0.3-0.1,0.4-0.2c0.2-0.2,0.4-0.3,0.5-0.3c0.3-0.1,0.5-0.3,0.7-0.6c0,0,0.1,0,0.1,0
			c0.2,0,0.3,0.1,0.3,0.4v0c0,0.1,0,0.1,0,0.2c0,0,0,0.1,0,0.1l0.1,0.5l-0.1,1.2c0,0.8,0,1.2,0,1.2c0,0.1-0.1,0.2-0.2,0.4l-0.1,0.5
			l0.3,0c0.1,0.2,0.1,0.4,0.1,0.5c0,0.2-0.1,0.4-0.3,0.6c0,0.3,0,0.4,0,0.5c0,0.1,0.1,0.2,0.2,0.3c0,0.2,0,0.3,0,0.4l-0.1,1.8v1.8
			c0,0.1-0.1,0.3-0.3,0.6c-0.1,0.1-0.1,0.2-0.1,0.3c0,0,0.1,0.3,0.2,0.7c0,0,0,0,0,0.1c0,0.1-0.1,0.3-0.3,0.5l0.3,0.7l0.2,0.1v0.9
			l0,3.3l-0.3,0.2c0,0.2,0,0.4,0,0.5c0,0,0,0.3-0.1,0.7c0,0,0,0.2,0,0.4l0.4,0.1l0,0.1l0.3,2.4l0,0.6l0.1,0.4
			c-0.2,0.3-0.3,0.5-0.3,0.5c0,0,0,0.1,0.1,0.2c-0.2,0.1-0.5,0.2-0.8,0.4c-0.2,0.1-0.3,0.2-0.3,0.2c0,0-0.1,0-0.3,0
			c-0.2,0.2-0.4,0.3-0.6,0.3c0,0-0.1,0-0.2-0.1c0-0.1,0-0.3,0-0.4c0-0.1,0-0.2-0.1-0.4c0-0.1,0-0.2,0-0.2c0,0,0-0.2,0.1-0.4l0-0.3
			l0.1-0.4l0-0.3l1.2-0.8l-1.2-0.8l0-0.2l0.1-0.5l0.1-0.4c0,0-0.1-0.2-0.3-0.5c0-0.1,0-0.1,0-0.2c0,0,0.1-0.2,0.2-0.6
			c0.1-0.3,0.2-0.5,0.2-0.8l-0.3-0.2c0-0.2,0-0.4,0-0.5c0-0.2,0-0.4,0-0.4c0,0,0.1-0.2,0.2-0.6c0,0,0-0.1,0-0.2c0-0.3,0-0.7-0.1-1.1
			c0-0.2,0-0.3,0-0.4c0-0.1,0.1-0.3,0.2-0.7c0-0.3,0-0.5,0.1-0.7l-0.3-0.4v-3.2c0.1-0.1,0.2-0.2,0.2-0.3c0.1-0.2,0.1-0.4,0.2-0.6
			c-0.2-0.1-0.4-0.2-0.5-0.3c0.1-0.3,0.1-0.4,0.1-0.5c0-0.1-0.1-0.2-0.3-0.3c0-0.1,0-0.3,0-0.5l0-0.6c0-0.1,0.1-0.2,0.2-0.5
			c0,0,0-0.1,0-0.1c0,0,0-0.1-0.1-0.3c-0.1-0.2-0.1-0.3-0.1-0.3l0-0.1l1.1-0.8l-0.7-1c-0.4-0.5-0.6-0.8-0.6-0.9c0-0.1,0-0.2,0.1-0.5
			C298,419.1,298.1,418.9,298.1,418.7z"/>
		<path class="st0" d="M303.4,431.9c0.1-0.4,0.2-0.6,0.4-0.6h0l0.7,0h0c0.5-0.1,0.9-0.1,0.9-0.1c0-0.2,0-0.3,0-0.3
			c0-0.9,0-1.7-0.1-2.2c0-0.3-0.1-0.5-0.2-0.7l-0.1-0.3c0-0.1-0.1-0.2-0.1-0.2c0-0.1,0.1-0.3,0.3-0.5c0.4-0.3,0.8-0.5,1.4-0.7
			c0.1-0.3,0.3-0.4,0.4-0.4c0.1,0,0.1,0,0.1,0.1c0.1,0.1,0.2,0.3,0.2,0.6c0,0,0,0.8-0.1,2.3c-0.1,0.4-0.2,0.6-0.2,0.7
			c0,0.1-0.2,0.3-0.3,0.4c0,0.2,0,0.4,0.1,0.6h0.3l-0.1,0.7c0.2,0,0.7,0.1,1.5,0.3c0,0,0.2,0,0.5,0c0.2,0,0.5-0.1,0.9-0.2l1-0.1
			c0.5-0.2,0.8-0.3,0.9-0.3c0.1,0,0.3,0,0.5,0c0,0.3,0,0.5-0.1,0.6c0,0.1-0.3,0.4-0.9,0.7c-0.1,0.1-0.2,0.1-0.3,0.2
			c-0.1,0.2-0.2,0.3-0.2,0.3c0,0-0.2,0.1-0.3,0.1c-0.1,0-0.3,0-0.3-0.1l-0.6-0.3l-0.4-0.1l-0.4-0.3l-0.7,0.6l-0.6-0.1
			c0,0-0.1,0-0.3,0.1c0.1,0.5,0.1,0.9,0.1,1.2c0,0.2,0,0.4,0,0.7c-0.4,0.1-0.5,0.2-0.5,0.4c0,0.1,0,0.2,0.1,0.3c0.2,0,0.4,0,0.5,0.1
			l0,1.8c-0.1,0-0.3-0.1-0.4-0.1c-0.2,0-0.3,0.1-0.3,0.2c0,0.1,0,0.3,0.1,0.4c0.1-0.1,0.3-0.1,0.3-0.1c0.1,0,0.2,0.1,0.2,0.3l0,0.6
			v0c0,0.4,0,0.7,0,0.9c0,0.2,0.1,0.4,0.2,0.6l0.2,0.3c0,0,0,0.1,0,0.2c0,0.1,0,0.2,0,0.3c0.3,0.2,0.6,0.3,1,0.3
			c0.3,0,0.6-0.1,0.9-0.2c0.3-0.1,0.4-0.2,0.4-0.2l0.8-0.7c0.4-0.3,0.6-0.5,0.7-0.5s0.2,0,0.4,0.1c0,0.2,0,0.3-0.1,0.4
			c-0.1,0.5-0.1,0.8-0.2,0.9c-0.1,0.1-0.4,0.2-0.9,0.4c-0.4,0.2-1,0.4-1.8,0.7l-0.5,0.2c-0.3,0.2-0.5,0.3-0.6,0.3
			c-0.1,0-0.2-0.1-0.3-0.3l-0.3-0.1l-0.2,0.4c-0.1,0-0.3,0-0.3,0c-0.3,0-0.6-0.2-0.9-0.5c-0.2-0.2-0.3-0.3-0.4-0.5
			c0,0,0-0.1-0.1-0.4c-0.1-0.3-0.2-0.5-0.2-0.6c0-0.1,0-0.2,0-0.4c0-0.2,0-0.5,0-1c0-0.3,0.1-0.6,0.3-0.7c-0.1-0.2-0.1-0.4-0.1-0.7
			c0-0.4-0.1-1.3-0.1-2.5c0.2-0.1,0.3-0.3,0.3-0.4c0-0.1,0-0.2,0-0.3l-0.4-0.1l0-0.1v0c0,0,0-0.2,0-0.3c0.1-0.3,0.1-0.7,0.1-1.3
			c-0.4-0.1-0.7-0.1-0.9-0.1c-0.1,0-0.3,0-0.8,0.1l-0.3,0c-0.3,0.1-0.4,0.1-0.4,0.1c-0.1,0-0.2-0.1-0.2-0.2
			C302.8,432.3,303,432.1,303.4,431.9z"/>
		<path class="st0" d="M314.2,419c0.1-0.2,0.3-0.3,0.6-0.5l1-0.5c0.3-0.1,0.5-0.2,0.8-0.2c0.1,0,0.2,0,0.3,0.1
			c-0.5,0.2-0.7,0.3-0.8,0.4l-0.6,0.6l1.1,1.1c0,0,0.1,0.1,0.1,0.3c0,0.1-0.1,0.2-0.2,0.5l-0.1,0.3l-0.2,0.1c0,0-0.1,0.1-0.1,0.2
			c0,0.1-0.1,0.2-0.1,0.2c0,0.1,0,0.2,0.1,0.3c0.1,0,0.2,0,0.4-0.1c0.1,0,0.2-0.1,0.3-0.1l-0.1,2.5c0,0.1,0,0.2,0,0.4
			c0,0.1,0,0.2,0,0.3c0,0.2-0.1,0.4-0.3,0.7c0,0.2,0,0.3,0.1,0.4l0.3,0.3c0.1,0.1,0.1,0.2,0.1,0.3c0,0.1-0.1,0.3-0.2,0.7l0.1,0.6
			c0,0.5,0.1,0.8,0.1,0.8c0,0-0.1,0.2-0.2,0.5l0.1,0.6l0,0.3c0.1,0.3,0.1,0.5,0.1,0.5c0,0,0,0.1,0,0.2c-0.1,0.5-0.2,1-0.2,1.5
			c0,0.2,0,0.4,0.1,0.6c0.5-0.3,1.1-0.8,1.9-1.5l0.6,0.1c0.2-0.1,0.5-0.2,0.7-0.3c0.4-0.1,0.7-0.1,0.8-0.1c0.1,0,0.2,0.1,0.4,0.2
			l0.1,0.3h0.3c0.1-0.1,0.1-0.2,0.2-0.3c0-0.1,0.1-0.1,0.2-0.1l0.9,0.1c0.9,0.1,1.3,0.1,1.4,0.2c0,0,0.2,0.2,0.5,0.5
			c0.1,0.1,0.3,0.3,0.6,0.4l-0.2,0.4c0.1,0.1,0.3,0.1,0.5,0.1c0.2,0.3,0.3,0.5,0.3,0.8c0,0.3,0,0.6,0,1c0,0.3-0.1,0.6-0.2,0.7
			c-0.1,0.1-0.1,0.1-0.2,0.2l0.2,0.6l-0.3,0.3l0,0.1l0.4,0.4c0,0.1-0.1,0.2-0.1,0.3l0,0.4l0,0.9l0,0.2c-0.2,0.3-0.3,0.5-0.3,0.5
			c0,0.1,0.1,0.4,0.2,1l0,1.2c0,0,0,0.1,0,0.2c-0.2,0.1-0.5,0.2-0.8,0.3c-0.2,0.1-0.3,0.2-0.5,0.3c-0.2,0.1-0.4,0.2-0.6,0.2
			l-0.5-0.4c0.1-0.2,0.2-0.5,0.3-0.8c0.2-0.4,0.2-0.7,0.2-1.1c0-0.1-0.1-0.3-0.2-0.7l0-0.2l0.1-0.5c0.1-0.3,0.2-0.7,0.3-1.2
			l-0.2-0.1c0-0.3,0.1-0.9,0.2-1.7c0-0.1,0-0.1,0-0.2c0,0,0-0.1,0-0.1c-0.1-0.5-0.1-0.7-0.1-0.7c0,0,0-0.1,0.1-0.1
			c0-0.1,0.1-0.2,0.1-0.2v0c0,0-0.1-0.2-0.2-0.5c-0.1-0.2-0.2-0.3-0.3-0.4c0,0-0.2-0.1-0.5-0.2c-0.4-0.2-0.6-0.3-0.7-0.3
			c0,0-0.3,0-0.6,0c-0.5-0.1-0.9-0.1-1-0.1c-0.1,0-0.2,0-0.3,0c-0.4,0-0.7,0-0.7,0c-0.4,0-0.8,0.1-1.2,0.2l-0.2,0l-0.8,0.4l-0.5,0.2
			c-0.7,0.6-1.1,1-1.1,1.1c0,0.2,0.3,0.4,1,0.6c0,0.2-0.1,0.3-0.1,0.4c-0.1,0.3-0.1,0.8-0.1,1.6c-0.2,0-0.3,0-0.4,0.1v0.1
			c0.3,0.3,0.4,0.5,0.5,0.7c0.1,0.3,0.1,0.7,0.1,1.2l0.1,0.5l-0.1,0.6l0.1,0.4v0.2l0,0.3c0,0.1-0.1,0.2-0.2,0.3c0,0-0.3,0.1-0.9,0.3
			c-0.2,0-0.4,0.2-0.7,0.5l-0.3-0.3c0-0.3,0.1-0.7,0.2-1.1v-0.4c0,0,0.1-0.2,0.2-0.4c0.1-0.1,0.1-0.2,0.1-0.3c0-0.1,0-0.1-0.1-0.2
			c-0.1-0.2-0.2-0.3-0.2-0.4v0l0-0.7v0.3v-1c0,0,0-0.1,0-0.2c0-0.1,0-0.2,0-0.2l0-0.5l0.1-1.1l0-0.8c0-0.1,0-0.2,0.1-0.3
			c0,0,0.1-0.2,0.4-0.4c0.1,0,0.1-0.1,0.1-0.2c0-0.1,0-0.3,0-0.5l-0.3,0.1c-0.1-0.5-0.2-1-0.2-1.6c0-0.7,0-1.6,0.1-2.5l0.5-0.1
			c-0.1-0.2-0.2-0.4-0.2-0.7l-0.3-0.2c0-0.3,0.1-0.5,0.1-0.6c0-0.1,0-0.3,0-0.5c-0.1-0.7-0.1-1.2-0.1-1.4c0-0.2,0.1-0.4,0.3-0.6
			c0.5-0.3,0.7-0.5,0.7-0.6v0c-0.2-0.2-0.5-0.3-1-0.3c0-0.1,0.1-0.3,0.1-0.5c0.1-0.3,0.2-0.5,0.2-0.6c0-0.1-0.1-0.3-0.3-0.4
			c0-0.3,0-0.4,0-0.6c0-0.2,0-0.4,0-0.5c0-0.3,0-0.5,0-0.7c0-0.1,0-0.3,0.1-0.6c-0.2-0.7-0.3-1.2-0.3-1.2c0-0.1,0-0.2,0-0.3
			L314.2,419z"/>
		<path class="st0" d="M328.3,448.8c0.1,0.2,0.2,0.5,0.4,0.9l0.4,0.6c0.3,0.6,0.6,0.9,0.7,1c0.3,0,0.4,0.1,0.5,0.1l1,0.4
			c0.1,0,0.2,0,0.4,0c0.1,0,0.3,0,0.4,0c0.2,0.1,0.3,0.2,0.3,0.2c0.1,0,0.2-0.1,0.3-0.2c0.1,0,0.3,0,0.4,0c0.1,0,0.5-0.1,1.2-0.3
			l0.5-0.3c0.5-0.3,0.9-0.5,0.9-0.6c0,0,0.2-0.3,0.6-0.6c0.1-0.1,0.3-0.2,0.6-0.4c0.3-0.2,0.6-0.6,0.7-1.1c0.2-0.7,0.4-1,0.4-1.1
			c0-0.1,0.2-0.2,0.4-0.4c0-0.4-0.1-0.6-0.1-0.6c0,0,0.1-0.5,0.3-1.5c0-0.1,0-0.2,0-0.3c0,0,0-0.2-0.1-0.5c0-0.2,0.1-0.5,0.2-0.9
			c0.1-0.4,0.2-0.6,0.2-0.7c0-0.1,0-0.3-0.1-0.7c0-0.1,0-0.6-0.1-1.5c0-0.1,0-0.3,0-0.4c0-0.2,0-0.3,0.1-0.5
			c0.1-0.1,0.1-0.2,0.1-0.3c0-0.1,0-0.1,0-0.2c-0.1,0-0.1,0-0.1,0c-0.1,0-0.3,0.1-0.7,0.4l-0.3,0.4l-0.4,0.3l-0.5,0.3l-0.4,0.2
			l-0.6,0.6l-0.3,0.2c-0.7,0.5-1.1,0.8-1.2,0.8c-0.1,0-0.3,0.1-0.8,0.2c-0.3,0.1-0.7,0.2-1.1,0.2c-0.2,0-0.6-0.1-1.3-0.3
			c-0.4-0.2-0.8-0.5-1.1-0.9c0,0-0.1-0.2-0.3-0.6c-0.1-0.2-0.1-0.3-0.1-0.4c0-0.1,0.1-0.3,0.4-0.5c-0.2-0.2-0.3-0.5-0.3-0.9
			c0-0.2,0.2-0.6,0.6-1.2l-0.1-0.4v0l0-0.4c0-0.4,0.2-1,0.4-1.8v-0.5c0.2-0.7,0.3-1.1,0.3-1.2c0-0.1,0-0.2-0.1-0.3h-0.3l-0.1-0.1
			v-0.1c0.2-0.1,0.3-0.3,0.4-0.5l0.8-0.3c0.8-0.5,1.2-0.7,1.2-0.7c0.1,0,0.2,0.1,0.3,0.2c0.1,0.1,0.2,0.2,0.2,0.4
			c0,0-0.1,0.2-0.3,0.6c-0.1,0.2-0.2,0.6-0.2,1.1l-0.4,1.5c0,0.5-0.1,0.8-0.1,0.9c-0.1,0.1-0.3,0.2-0.5,0.2
			c-0.1,0.2-0.2,0.3-0.2,0.4c0,0.1,0.2,0.2,0.5,0.3c0,0.2-0.1,0.4-0.1,0.7l-0.2,0.9c0,0.2,0,0.6-0.1,1c-0.1,0.3-0.1,0.4-0.1,0.4
			c0,0.1,0.1,0.3,0.2,0.5c0.2,0.3,0.3,0.5,0.3,0.5c0,0,0.3,0.2,0.8,0.4c0.2,0.3,0.3,0.4,0.5,0.4c0.1,0,0.3-0.1,0.5-0.3
			c0.5-0.1,0.8-0.1,1-0.3c0.1-0.1,0.7-0.5,1.6-1.1l0.8-0.8l0.7-0.5l0.6-1.2c0,0,0.1-0.1,0.2-0.3c0-0.2,0-0.4-0.1-0.4
			c0-0.1,0-0.2,0-0.2c0,0,0-0.1,0.1-0.2l-0.1-0.4l0-0.3l-0.2-0.5l0.1-1l-0.1-0.3l-0.1-0.5c-0.2-0.4-0.4-0.7-0.4-0.7
			c0-0.2,0.2-0.3,0.6-0.3l0.4-0.4h0.1c0.2,0,0.3,0,0.5-0.1c0.1,0,0.3-0.1,0.5-0.1c0.2,0.3,0.3,0.4,0.3,0.4l-1.3,0.6l1,0.3
			c0.2,0.1,0.3,0.2,0.3,0.3c0,0.1-0.1,0.3-0.3,0.6c-0.2,0.2-0.4,0.4-0.6,0.5l-0.1,0.1c0,0.1,0.3,0.2,0.8,0.4
			c0.2,0.2,0.3,0.4,0.4,0.5c0,0.1,0,0.2,0,0.3l0.1,0.9c-0.1,0.3-0.2,0.5-0.2,0.6c0,0.3,0.1,0.6,0.4,0.9c-0.1,0.3-0.1,0.6-0.1,0.8
			l0.1,0.7v0c0,0-0.1,0.3-0.2,0.8c-0.1,0.3-0.2,0.4-0.2,0.6c0,0.1,0,0.1,0,0.2l0.3,0.2c-0.1,0.4-0.1,0.7-0.1,0.8c0,0.1,0,0.1,0,0.2
			c0,0.3,0.1,0.5,0.1,0.5c0,0-0.1,0.2-0.2,0.5v0.3l0,0.4l0.1,0.6l-0.2,0.5l-0.1,0.6c-0.2,0.3-0.2,0.4-0.2,0.5c0,0,0,0.1,0,0.2
			c0,0.2,0,0.3,0,0.4c0,0.1-0.1,0.2-0.2,0.5c-0.1,0.1-0.2,0.4-0.3,0.8c0,0.1-0.2,0.2-0.4,0.4c0,0-0.2,0.2-0.4,0.5l-0.2,0.3l-0.2,0.3
			c-0.5,0.7-0.8,1.1-0.9,1.3c-0.1,0.1-0.3,0.2-0.6,0.4l-0.3,0.3l-0.4,0.3l-0.2,0.2l-0.5,0.1l-0.4,0.2l-0.3,0.1l-0.9,0.4l-0.5,0.1
			c-0.5,0.1-0.8,0.2-0.9,0.2c-0.1,0-0.4-0.1-0.9-0.2c-0.9,0-1.6-0.3-2.3-0.9l-0.4,0c-0.1-0.2-0.2-0.4-0.2-0.5c0,0-0.2-0.1-0.6-0.3
			c-0.1,0-0.1-0.1-0.2-0.2c-0.1-0.2-0.2-0.4-0.2-0.6c0-0.2,0.1-0.5,0.2-0.9c0.1-0.3,0.3-0.4,0.5-0.4
			C328.2,448.8,328.2,448.8,328.3,448.8z"/>
		<path class="st0" d="M343.7,446.8c0,0,0-0.1,0-0.1c0,0,0-0.1,0.1-0.1c0.3-0.2,0.5-0.3,0.6-0.3c0,0,0.1,0,0.1,0l0,0h0.3l0.2-0.3
			c0.2-0.1,0.5-0.2,0.8-0.4c0-0.2,0.1-0.3,0.1-0.3c0.1-0.1,0.2-0.2,0.4-0.3c0-0.2,0-0.3,0-0.3c0-0.3,0.1-0.5,0.2-0.7l0-0.4l0.1-0.3
			l-0.1-0.1c0,0-0.1-0.1-0.1-0.3c-0.1-0.6-0.3-1-0.5-1.1c-0.1-0.1-0.2-0.2-0.3-0.3l-0.2-0.1c0-0.1-0.1-0.3-0.2-0.4l-0.6,0.1
			l-0.1-0.1c0-0.2,0.3-0.5,0.8-0.9c0.2-0.2,0.4-0.4,0.6-0.7c0.3,0,0.6,0.1,0.8,0.3c0.2,0.2,0.4,0.4,0.5,0.5l0,0.3l0.1,0.4l0.1,0.4
			l0,0.2c0.1,0.3,0.1,0.6,0.1,0.6c0,0.1-0.1,0.2-0.2,0.4c0,0.1,0,0.1,0,0.2c0,0.1,0,0.1,0,0.2l0.1,0.5c0,0.1-0.1,0.4-0.3,0.8
			c-0.1,0.2-0.2,0.3-0.4,0.6v0.1l0.1,0.1v0.1l0,0c-0.2,0.2-0.3,0.4-0.3,0.5c-0.2,0.4-0.5,0.7-0.9,0.9c-0.2,0.2-0.4,0.3-0.5,0.3
			l-0.6,0c0,0-0.2,0-0.4,0C343.9,446.9,343.8,446.8,343.7,446.8z"/>
		<path class="st0" d="M357.5,419.8v-0.1c0.1-0.1,0.3-0.2,0.5-0.2c0.2-0.1,0.4-0.3,0.7-0.5c0.4-0.2,0.7-0.3,0.8-0.3
			c0.1,0,0.2,0.1,0.4,0.2c0.2-0.1,0.3-0.2,0.3-0.2c0.1-0.1,0.2-0.1,0.3-0.2c0.2,0.2,0.4,0.3,0.7,0.4c0.6,0.1,0.9,0.2,1.1,0.2
			c0,0,0,0,0.1,0l0.9-0.1l0.8,0.7c0.3-0.4,0.5-0.6,0.6-0.6c0.1,0,0.2,0.1,0.4,0.2c0,0,0.1,0,0.2,0l0.3,0l0.9,0.2l0.6-0.1l0.6,0.1
			l0.6,0l1,0l0.4-0.1l0.8,0l0.4,0h0.4l1.4-0.2c0.7,0.1,1.1,0.1,1.2,0.1c0.3,0,0.5,0,0.7-0.1c0.1-0.1,0.3-0.1,0.4-0.2l2.4-0.5
			c0,0.1,0,0.1,0,0.2c0,0,0,0.1-0.1,0.3c-0.1,0.3-0.2,0.4-0.2,0.5s-0.2,0.2-0.3,0.3c-0.4,0.3-0.7,0.6-0.9,0.9
			c-0.2-0.2-0.3-0.3-0.4-0.3h-0.3c0,0-0.2-0.2-0.5-0.5l0,0c-0.1,0-0.2,0.2-0.3,0.6v0.2c-0.3-0.1-0.4-0.2-0.5-0.2
			c-0.1-0.2-0.3-0.4-0.4-0.5c0,0,0,0,0,0l-0.9,0.7c0,0-0.1,0-0.2,0c-0.2,0-0.5,0-0.9-0.1c-0.1,0-0.3,0-0.6,0
			c-0.1-0.2-0.3-0.3-0.4-0.3h-0.1c-0.2,0-0.3,0-0.4,0c-0.1,0-0.3,0-0.7,0.1c-0.2,0.1-0.4,0.1-0.8,0.1c-0.1,0-0.4-0.1-0.9-0.2l-0.4,0
			H367c-0.2,0.1-0.4,0.1-0.4,0.1c0,0-0.5-0.1-1.4-0.3l-0.4-0.4l-0.5,0.6l-0.8-0.7l-0.2,0.4c-0.1,0.3-0.4,0.4-0.7,0.4h0
			c-0.1,0-0.2-0.1-0.4-0.2c-0.3-0.3-0.5-0.5-0.7-0.5c-0.2,0-0.3,0.3-0.4,0.8l0,0.1l-1.4,1.4l1.3,0.4l0,0.4v0.2
			c0,0.1-0.1,0.2-0.2,0.4l0.3,0.3l0.1,1.4c0.3,0,0.5,0,0.6,0c0.2,0,0.7,0.1,1.5,0.2l1.8,0.1l0.4,0.1l0.5-0.2
			c0.4,0.1,0.7,0.1,0.8,0.1c0.1,0,0.3,0,0.4-0.1c0,0,0.1,0,0.1,0c0.1,0,0.2,0,0.3,0.1l0.1-0.2c0.1,0,0.2,0,0.2,0l1,0.1
			c0.4,0,0.6,0,0.7,0c0,0,0.1-0.1,0.3-0.3l0.1,0.5c0,0.1,0.1,0.1,0.1,0.1c0.1,0,0.4-0.2,1-0.6c0.1-0.1,0.2-0.1,0.3-0.1
			c0,0,0.2,0.1,0.6,0.2c0,0,0.1,0,0.1,0c0.1,0,0.3,0,0.5-0.1c0.3-0.1,0.9-0.2,1.8-0.3c0.6-0.2,1-0.3,1.3-0.3c0,0.1,0,0.1,0,0.1
			c0,0.2,0,0.3-0.1,0.4c0,0.1-0.2,0.2-0.4,0.3l0.1,0.5c-0.3,0.2-0.5,0.4-0.8,0.6c-0.3,0-0.5,0-0.6,0c-0.5,0-0.9-0.1-1.1-0.2
			c-0.2-0.1-0.5-0.2-0.7-0.3c-0.3,0.2-0.5,0.3-0.6,0.3c-0.1,0-0.4,0-1.1,0l-0.3,0c-0.4-0.1-0.6-0.1-0.7-0.1s-0.2,0-0.3,0
			c-0.5,0.1-0.8,0.1-0.8,0.1c0,0-0.2,0-0.6-0.1c-0.1,0-0.1,0-0.2,0c-0.1,0-0.3,0-0.6,0c-0.1,0-0.2,0-0.3,0c-0.1,0-0.3,0-0.6-0.1
			l-0.9,0.2l-0.5,0l-0.5,0h-0.4l-0.6,0c-0.3-0.1-0.6-0.2-0.8-0.2l-0.1,0.1l0,0.3l-0.8-0.1c0,0-0.1,0.2-0.1,0.4
			c0,0.2-0.1,0.3-0.1,0.3c0,0.1,0,0.3,0,0.5c0,0.7,0,1.2,0.1,1.4c-0.1,0.1-0.2,0.1-0.3,0.1c-0.1,0.1-0.2,0.2-0.2,0.3
			c0,0.2,0.1,0.4,0.4,0.6c-0.5,0.1-0.8,0.3-0.9,0.5c-0.1,0.1-0.2,0.4-0.2,0.8c0,0.4,0.2,0.7,0.5,0.8c0.4,0.2,0.7,0.3,0.7,0.4l0,0
			c-0.2,0.3-0.2,0.5-0.2,0.6c0,0.1,0,0.2,0,0.3l0.2,0.2l0,0.1l-0.1,0.1c-0.1,0-0.2,0-0.3,0.1c0,0.1,0.1,0.2,0.3,0.3
			c0,0.1,0,0.2,0,0.2l0,2.2c0,0.1,0,0.2-0.1,0.3c0,0-0.2,0.2-0.4,0.4c0,0-0.1,0.1-0.1,0.1c0,0.2,0.2,0.3,0.6,0.3l0,1.3l0,2.4
			c0.1,0.3,0.1,0.5,0.1,0.6c0,0.2-0.1,0.4-0.4,0.7c0.1,0.6,0.3,0.9,0.6,0.9c0,0.3,0,0.5,0,0.6c0,0.6,0.1,1,0.1,1.1
			c0,0.3-0.1,0.4-0.3,0.4c-0.1,0-0.2,0-0.3-0.1c0,0.3,0,0.4-0.1,0.5c0,0-0.1,0.1-0.3,0.1l-0.4,0.2l-0.6,0.2l-0.5,0.2
			c-0.1,0-0.2-0.1-0.4-0.2c0-0.1,0.1-0.2,0.1-0.2c0-0.1-0.1-0.2-0.2-0.4c0.1-0.2,0.2-0.4,0.4-0.7c0.2-0.2,0.2-0.4,0.2-0.4
			c0,0,0-0.2,0-0.4c0.1-0.7,0.2-1.3,0.2-1.9c0-0.1,0-0.2,0-0.4c0.1,0,0.1-0.1,0.1-0.1c0.1,0,0.2,0,0.3,0.1l-0.1-0.3
			c-0.1,0-0.2-0.1-0.2-0.1c-0.1,0-0.2-0.1-0.2-0.1c0,0-0.1-0.3-0.1-0.7c0-0.6,0-0.9,0-1c0-0.1,0.1-0.2,0.3-0.3c0-0.1,0-0.1,0-0.2
			c0-0.1,0.1-0.1,0.2-0.2l0,0l0.1-0.1V439l-0.1,0l-0.1-0.3c0,0-0.1,0-0.1,0c-0.2,0-0.3-0.1-0.3-0.2v0c0-0.1,0-0.3,0-0.4
			c0-0.2,0-0.5,0-1.1c0.1-0.2,0.1-0.3,0.1-0.3c0-0.1,0-0.2-0.1-0.3c0.2-0.2,0.2-0.4,0.2-0.5c0-0.1-0.1-0.2-0.2-0.3
			c0-0.3,0-0.4,0-0.6c0-0.2,0-0.3,0-0.4c0-0.2,0-0.3,0-0.3c0,0,0-0.2-0.1-0.5c0-0.1-0.1-0.3-0.1-0.4c0-0.2,0.1-0.4,0.3-0.4v-0.3h0.1
			l0.2-0.2l-0.1-0.5l-0.2-0.1c-0.1-0.2-0.2-0.4-0.2-0.5c0,0,0-0.4,0-1.2l-0.1-0.6l0-0.5c0-0.3,0-0.5,0-0.6c0-0.2,0-0.5,0-0.8
			c0.2,0,0.3,0,0.3-0.1c0,0,0-0.1,0.1-0.4l-0.5-0.9c0.1-0.2,0.1-0.4,0.1-0.5c0,0,0-0.3-0.1-0.7l-0.1-0.8l-0.2-0.7l-0.1-0.9l-0.1-0.5
			l0.1-0.5v0c0-0.1-0.1-0.3-0.3-0.7c-0.1-0.1-0.1-0.3-0.1-0.6c0-0.1,0-0.3,0-0.4l-0.5,0.1L357.5,419.8z"/>
		<path class="st0" d="M388.1,431.4l0.5-0.3c0.1,0.2,0.2,0.3,0.3,0.3c0,0,0.1,0.1,0.3,0.1c0.1,0,0.5,0.5,1.2,1.2
			c0.2,0.2,0.4,0.5,0.5,0.7c0.1,0.2,0.2,0.4,0.2,0.7c0.1,0.1,0.1,0.3,0.2,0.5l-0.1,0.1c-0.1,0-0.3-0.1-0.4-0.1l-0.6,0.2l-0.5-0.1
			l-0.4,0.1c-0.6-0.4-0.9-0.6-0.9-0.6c-0.1,0-0.3,0.2-0.7,0.6c-0.6-0.1-0.9-0.2-1-0.2c-0.2,0-0.3,0-0.6,0l-0.1-0.1
			c-0.2,0-0.6,0-1.3,0l-0.5,0.1l-0.7,0.1l-0.7,0.1l-0.6,0c-0.6,0.2-0.9,0.3-1.1,0.3c0,0.3-0.1,0.6-0.1,0.7c-0.1,0.1-0.2,0.3-0.3,0.5
			c0.3,0.2,0.5,0.4,0.5,0.4c0.1,0.6,0.2,1,0.3,1.2l0.3,0.1l-0.1,0.5l0.5,0.1c0.1,0.4,0.2,0.7,0.4,0.8c0.1,0.1,0.4,0.2,0.7,0.3
			c0,0.3,0.1,0.5,0.2,0.5c0.1,0.1,0.3,0.1,0.5,0.1l0.2,0.4c0.1,0,0.2,0,0.3,0c0.1,0,0.3,0.1,0.9,0.4c0.1,0.1,0.2,0.1,0.4,0.1
			c0.1,0,0.4-0.1,0.7-0.2l0.9-0.1l0.7-0.2c0.3,0,0.6,0,0.7-0.1c0.2-0.1,0.5-0.2,0.9-0.5c0.4-0.3,0.7-0.4,0.7-0.5
			c0.2-0.2,0.3-0.4,0.5-0.7c0.1-0.1,0.2-0.2,0.4-0.2c0.1,0,0.2,0.1,0.4,0.2c-0.1,0.3-0.1,0.6-0.2,0.7c-0.4,0.7-0.7,1.1-0.8,1.4
			c-0.1-0.1-0.2-0.1-0.3-0.1c-0.1,0-0.2,0.1-0.5,0.3c-0.2,0.1-0.4,0.2-0.7,0.2c-0.6,0.2-1,0.3-1.2,0.3c-0.4,0-0.6,0.1-0.8,0.1
			c-0.3,0.1-0.5,0.1-0.5,0.1l-0.9-0.1l-0.5,0.1l-0.2,0c-0.2,0-0.4,0-0.5,0c-0.1,0-0.5,0-1.1-0.1l-0.3,0l-0.3-0.2
			c-0.7-0.2-1.1-0.4-1.2-0.4c0,0-0.2-0.2-0.5-0.4c0,0-0.2-0.1-0.5-0.3c-0.3-0.2-0.4-0.3-0.4-0.4l-0.3-0.5c0-0.1-0.2-0.3-0.5-0.6
			c0.1-0.2,0.1-0.3,0.1-0.3c0,0-0.1-0.3-0.4-0.8c-0.1-0.1-0.1-0.5-0.1-1.2c0-0.2,0.1-0.6,0.2-1c0.1-0.4,0.2-0.6,0.2-0.7l0.5-0.6
			l0.3-0.7c0.3-0.3,0.7-0.7,1.1-1l1.1-0.7l1.1-0.7l0.4-0.1l1.1-0.3l0.7-0.1c0.6-0.2,0.9-0.3,0.9-0.3
			C387.5,430.6,387.9,430.9,388.1,431.4z M386.4,433.6l0.2,0.3c0.2,0,0.3-0.1,0.4-0.1c0.3,0,0.5-0.1,0.8-0.2l0.8,0.1
			c0,0,0,0,0.1-0.1c0-0.1,0-0.1,0-0.1c0-0.1-0.1-0.2-0.2-0.3c0,0-0.1-0.1-0.1-0.2c-0.2-0.3-0.4-0.5-0.4-0.4l-0.5-0.2
			c-0.1,0-0.2-0.1-0.3-0.3c-0.3,0-0.8-0.1-1.4-0.1l-0.3,0l-0.5,0.3c0,0-0.3,0.1-0.8,0.2c-0.4,0.1-0.8,0.3-1.1,0.4
			c-0.1,0-0.3,0.2-0.6,0.5c-0.1,0-0.2,0.1-0.3,0.3v0.1l0,0l1.1,0.4l0.3,0.3l0.6-0.7c0,0,0.1-0.1,0.2-0.1c0,0,0.3,0.1,0.7,0.2
			c0,0,0,0,0,0c0.1,0,0.4,0,0.8-0.1C386,433.6,386.2,433.6,386.4,433.6z"/>
		<path class="st0" d="M403.4,431.4l0.5-0.3c0.1,0.2,0.2,0.3,0.3,0.3c0,0,0.1,0.1,0.3,0.1c0.1,0,0.5,0.5,1.2,1.2
			c0.2,0.2,0.4,0.5,0.5,0.7c0.1,0.2,0.2,0.4,0.2,0.7c0.1,0.1,0.1,0.3,0.2,0.5l-0.1,0.1c-0.1,0-0.3-0.1-0.4-0.1l-0.6,0.2l-0.5-0.1
			l-0.4,0.1c-0.6-0.4-0.9-0.6-0.9-0.6c-0.1,0-0.3,0.2-0.7,0.6c-0.6-0.1-0.9-0.2-1-0.2c-0.2,0-0.3,0-0.6,0l-0.1-0.1
			c-0.2,0-0.6,0-1.3,0l-0.5,0.1l-0.7,0.1l-0.7,0.1l-0.6,0c-0.6,0.2-0.9,0.3-1.1,0.3c0,0.3-0.1,0.6-0.1,0.7c-0.1,0.1-0.2,0.3-0.3,0.5
			c0.3,0.2,0.5,0.4,0.5,0.4c0.1,0.6,0.2,1,0.3,1.2l0.3,0.1l-0.1,0.5l0.5,0.1c0.1,0.4,0.2,0.7,0.4,0.8c0.1,0.1,0.4,0.2,0.7,0.3
			c0,0.3,0.1,0.5,0.2,0.5c0.1,0.1,0.3,0.1,0.5,0.1l0.2,0.4c0.1,0,0.2,0,0.3,0c0.1,0,0.3,0.1,0.9,0.4c0.1,0.1,0.2,0.1,0.4,0.1
			c0.1,0,0.4-0.1,0.7-0.2l0.9-0.1l0.7-0.2c0.3,0,0.6,0,0.7-0.1c0.2-0.1,0.5-0.2,0.9-0.5c0.4-0.3,0.7-0.4,0.7-0.5
			c0.2-0.2,0.3-0.4,0.5-0.7c0.1-0.1,0.2-0.2,0.4-0.2c0.1,0,0.2,0.1,0.4,0.2c-0.1,0.3-0.1,0.6-0.2,0.7c-0.4,0.7-0.7,1.1-0.8,1.4
			c-0.1-0.1-0.2-0.1-0.3-0.1c-0.1,0-0.2,0.1-0.5,0.3c-0.2,0.1-0.4,0.2-0.7,0.2c-0.6,0.2-1,0.3-1.2,0.3c-0.4,0-0.6,0.1-0.8,0.1
			c-0.3,0.1-0.5,0.1-0.5,0.1l-0.9-0.1l-0.5,0.1l-0.2,0c-0.2,0-0.4,0-0.5,0c-0.1,0-0.5,0-1.1-0.1l-0.3,0l-0.3-0.2
			c-0.7-0.2-1.1-0.4-1.2-0.4c0,0-0.2-0.2-0.5-0.4c0,0-0.2-0.1-0.5-0.3c-0.3-0.2-0.4-0.3-0.4-0.4l-0.3-0.5c0-0.1-0.2-0.3-0.5-0.6
			c0.1-0.2,0.1-0.3,0.1-0.3c0,0-0.1-0.3-0.4-0.8c-0.1-0.1-0.1-0.5-0.1-1.2c0-0.2,0.1-0.6,0.2-1c0.1-0.4,0.2-0.6,0.2-0.7l0.5-0.6
			l0.3-0.7c0.3-0.3,0.7-0.7,1.1-1l1.1-0.7l1.1-0.7l0.4-0.1l1.1-0.3l0.7-0.1c0.6-0.2,0.9-0.3,0.9-0.3
			C402.8,430.6,403.2,430.9,403.4,431.4z M401.7,433.6l0.2,0.3c0.2,0,0.3-0.1,0.4-0.1c0.3,0,0.5-0.1,0.8-0.2l0.8,0.1
			c0,0,0,0,0.1-0.1c0-0.1,0-0.1,0-0.1c0-0.1-0.1-0.2-0.2-0.3c0,0-0.1-0.1-0.1-0.2c-0.2-0.3-0.4-0.5-0.4-0.4l-0.5-0.2
			c-0.1,0-0.2-0.1-0.3-0.3c-0.3,0-0.8-0.1-1.4-0.1l-0.3,0l-0.5,0.3c0,0-0.3,0.1-0.8,0.2c-0.4,0.1-0.8,0.3-1.1,0.4
			c-0.1,0-0.3,0.2-0.6,0.5c-0.1,0-0.2,0.1-0.3,0.3v0.1l0,0l1.1,0.4l0.3,0.3l0.6-0.7c0,0,0.1-0.1,0.2-0.1c0,0,0.3,0.1,0.7,0.2
			c0,0,0,0,0,0c0.1,0,0.4,0,0.8-0.1C401.3,433.6,401.5,433.6,401.7,433.6z"/>
		<path class="st0" d="M410.3,418.7c0.1,0,0.3-0.1,0.4-0.2c0.2-0.2,0.4-0.3,0.5-0.3c0.3-0.1,0.5-0.3,0.7-0.6c0,0,0.1,0,0.1,0
			c0.2,0,0.3,0.1,0.3,0.4v0c0,0.1,0,0.1,0,0.2c0,0,0,0.1,0,0.1l0.1,0.5l-0.1,1.2c0,0.8,0,1.2,0,1.2c0,0.1-0.1,0.2-0.2,0.4l-0.1,0.5
			l0.3,0c0.1,0.2,0.1,0.4,0.1,0.5c0,0.2-0.1,0.4-0.3,0.6c0,0.3,0,0.4,0,0.5c0,0.1,0.1,0.2,0.2,0.3c0,0.2,0,0.3,0,0.4l-0.1,1.8v1.8
			c0,0.1-0.1,0.3-0.3,0.6c-0.1,0.1-0.1,0.2-0.1,0.3c0,0,0.1,0.3,0.2,0.7c0,0,0,0,0,0.1c0,0.1-0.1,0.3-0.3,0.5l0.3,0.7l0.2,0.1v0.9
			l0,3.3l-0.3,0.2c0,0.2,0,0.4,0,0.5c0,0,0,0.3-0.1,0.7c0,0,0,0.2,0,0.4l0.5,0.1l0,0.1l0.3,2.4l0,0.6l0.1,0.4
			c-0.2,0.3-0.3,0.5-0.3,0.5c0,0,0,0.1,0.1,0.2c-0.2,0.1-0.5,0.2-0.8,0.4c-0.2,0.1-0.3,0.2-0.3,0.2c0,0-0.1,0-0.3,0
			c-0.2,0.2-0.4,0.3-0.6,0.3c0,0-0.1,0-0.2-0.1c0-0.1,0-0.3,0-0.4c0-0.1,0-0.2-0.1-0.4c0-0.1,0-0.2,0-0.2c0,0,0-0.2,0.1-0.4l0-0.3
			l0.1-0.4l0-0.3l1.2-0.8l-1.2-0.8l0-0.2l0.1-0.5l0.1-0.4c0,0-0.1-0.2-0.3-0.5c0-0.1,0-0.1,0-0.2c0,0,0.1-0.2,0.2-0.6
			c0.1-0.3,0.2-0.5,0.2-0.8l-0.3-0.2c0-0.2,0-0.4,0-0.5c0-0.2,0-0.4,0-0.4c0,0,0.1-0.2,0.2-0.6c0,0,0-0.1,0-0.2c0-0.3,0-0.7-0.1-1.1
			c0-0.2,0-0.3,0-0.4c0-0.1,0.1-0.3,0.2-0.7c0-0.3,0-0.5,0.1-0.7l-0.3-0.4v-3.2c0.1-0.1,0.2-0.2,0.2-0.3c0.1-0.2,0.1-0.4,0.2-0.6
			c-0.2-0.1-0.4-0.2-0.5-0.3c0.1-0.3,0.1-0.4,0.1-0.5c0-0.1-0.1-0.2-0.3-0.3c0-0.1,0-0.3,0-0.5l0-0.6c0-0.1,0.1-0.2,0.2-0.5
			c0,0,0-0.1,0-0.1c0,0,0-0.1-0.1-0.3c-0.1-0.2-0.1-0.3-0.1-0.3l0-0.1l1.1-0.8l-0.7-1c-0.4-0.5-0.6-0.8-0.6-0.9c0-0.1,0-0.2,0.1-0.5
			C410.3,419.1,410.3,418.9,410.3,418.7z"/>
		<path class="st0" d="M423.1,446.9l0.1-0.1c0.3-0.6,0.5-0.9,0.5-1s0-0.3,0.1-0.7c0.2-1,0.3-1.7,0.3-2.1l-0.2-0.1l0-0.1
			c0.7-0.3,1.1-0.5,1.2-0.6c0.1-0.1,0.2-0.2,0.2-0.3c0-0.3-0.4-0.6-1.3-1.1l0.3-0.1c0-0.3,0-0.4,0-0.5v0c0,0,0-0.1-0.1-0.3
			c-0.1-0.2-0.1-0.4-0.1-0.7l0.2-1.9v-2c0-0.1,0.1-0.2,0.2-0.4c0.1-0.1,0.2-0.3,0.3-0.5l-0.5-0.2c-0.1-0.5-0.1-0.8-0.1-1
			c0-0.1,0-0.2,0-0.3c0-0.6,0.1-1,0.1-1c0,0,0,0,0-0.1l-0.2-1.3c0,0,0-0.1,0.1-0.1c0.1-0.1,0.2-0.1,0.3-0.3v-0.2l-0.4-0.3
			c0-0.2,0-0.4,0-0.5c0-0.3,0-0.7-0.1-1.1l0.3-0.3c-0.1-0.2-0.2-0.3-0.2-0.4c0-0.1,0-0.2,0-0.3l-0.3,0c0,0,0-0.1,0-0.1l0.8-1.3
			l0.1-1.2l0.4-0.5l-1.3-1.2l0-1c0-0.3-0.1-0.4-0.3-0.4c-0.1,0-0.2,0-0.3,0.1c-0.1-0.1-0.1-0.2-0.1-0.2c0-0.2,0.1-0.3,0.2-0.4
			c0.1-0.1,0.2-0.1,0.3-0.1c0.1,0,0.2,0,0.3,0c0.2-0.2,0.4-0.3,0.7-0.4c0.5-0.2,0.7-0.3,0.8-0.3c0.1,0,0.2,0.1,0.3,0.3
			c0.1,0,0.1,0,0.2,0c0.1,0,0.3,0,0.5,0.1l0.3-0.3c0.4,0,0.6,0.1,0.8,0.1c0.3,0,0.4,0,0.6,0c0,0,0.5-0.1,1.5-0.2h0c0,0,0.1,0,0.3,0
			c0.4,0.1,1.3,0.1,2.8,0.1l0.4,0.1l0.7,0c0.1,0,0.2,0,0.2,0c0.1,0,0.3-0.1,0.4-0.2c0.2,0.1,0.6,0.1,1,0.1l0.8,0.1l0.5,0.1l0.4,0.1
			h0.5l0.5,0.1c0.4,0,0.8,0.2,1.2,0.3c0.2,0.1,0.4,0.2,0.4,0.4l-0.1,0.1h-0.2v0.4c0.1,0.1,0.2,0.1,0.3,0.1l0.1-0.1
			c0-0.1,0-0.1,0-0.2c0-0.1,0.1-0.2,0.2-0.3c0.1,0,0.2,0.1,0.2,0.1c0,0,0.1,0.1,0.1,0.1c0.3,0.2,0.4,0.4,0.4,0.5
			c0,0.3,0,0.7-0.1,1.1c0.2,0,0.3,0.1,0.3,0.2c0,0.1-0.1,0.2-0.3,0.5c-0.2,0.3-0.4,0.5-0.6,0.6c0,0-0.1,0.1-0.2,0.2
			c-0.1,0.1-0.4,0.4-1.1,1c-0.4,0.3-0.7,0.5-0.7,0.5c-0.1,0.1-0.1,0.2-0.2,0.4l-0.5,0.3l-0.3-0.1c-0.1,0.1-0.3,0.2-0.4,0.2
			c-0.2,0.1-0.4,0.2-0.6,0.4c-0.2,0.3-0.4,0.4-0.5,0.5c-0.1,0-0.2,0.1-0.4,0.1l-0.2,0.2l-0.4-0.1c-0.1,0.2-0.1,0.3-0.2,0.4
			c-0.3,0.1-0.6,0.2-0.8,0.3l0.1,0.1c-0.2,0.3-0.4,0.4-0.6,0.6c-0.1,0.1-0.3,0.1-0.6,0.2c-0.1,0-0.2,0.1-0.2,0.3
			c-0.3,0.2-0.6,0.4-0.8,0.5c0.2,0,0.3,0.1,0.3,0.1l0.6,1.1l0.5,0.6c0,0,0.1,0.2,0.2,0.3l-0.2,0.1l0.2,0.2c0.1,0,0.1,0,0.2,0
			c0.2,0,0.4,0.1,0.6,0.3c0.1,0.1,0.2,0.2,0.3,0.4c0.1,0.1,0.2,0.3,0.3,0.5c-0.2,0.2-0.3,0.3-0.3,0.4l0.2,0.1l0.6,0.1
			c0.1,0.1,0.1,0.2,0.2,0.3c0,0,0.1,0.1,0.3,0.4c0,0,0.2,0.4,0.5,0.9c0.1,0.3,0.6,0.8,1.2,1.6l0.5,0.7c0.3,0.4,0.5,0.6,0.6,0.7
			c0.1,0.3,0.2,0.5,0.2,0.6l0,0.2v0c0,0.1,0,0.2,0.1,0.2c0,0.1,0.3,0.2,0.8,0.5c0.2,0.1,0.5,0.3,0.7,0.6c0.7,0.9,1.1,1.4,1.1,1.5
			c0.1,0.2,0.1,0.4,0.1,0.6c0.1,0.1,0.4,0.3,0.7,0.4l0.2,0h0c0.1,0,0.1,0,0.1,0c0,0,0.1,0.2,0.2,0.4c0,0.1,0.2,0.2,0.5,0.3
			c0.1,0.2,0.2,0.3,0.3,0.3c0.1,0,0.2-0.1,0.5-0.2l0.5,0c0,0,0.1,0,0.2-0.1c0.1,0.1,0.1,0.2,0.1,0.2c0,0.1,0,0.2-0.1,0.2
			c0,0-0.2,0.1-0.6,0.3l-0.5,0.3c-0.1,0-0.2,0.1-0.5,0.1c-0.2,0-0.5,0.1-0.9,0.3l-0.4,0.2c-0.2,0.2-0.4,0.2-0.4,0.2
			c0,0-0.2-0.1-0.3-0.3c-0.1-0.1-0.2-0.2-0.4-0.2c-0.1-0.2-0.3-0.6-0.7-1.2c-0.1-0.1-0.1-0.3-0.1-0.6l-0.9-0.5l0.2-0.5
			c-0.2-0.2-0.4-0.4-0.6-0.6c-0.2-0.2-0.5-0.6-0.9-1.2l0-0.4c-0.3-0.1-0.5-0.3-0.7-0.5c-0.5-0.5-0.8-1-0.9-1.6
			c-0.1-0.2-0.3-0.4-0.7-0.6c-0.2-0.1-0.5-0.5-0.9-1.1c-0.2-0.1-0.4-0.2-0.5-0.3c-0.2-0.2-0.3-0.4-0.5-0.6c0-0.3,0-0.5-0.1-0.6
			c-0.2-0.3-0.4-0.5-0.5-0.5c-0.1,0-0.2,0-0.3,0c-0.1-0.1-0.2-0.4-0.5-0.7l-1-1.3c-0.3-0.4-0.6-0.8-0.9-1c-0.6-0.6-1-0.9-1.2-0.9
			c0,0-0.6,0.2-1.9,0.7h-0.1c-0.1,0-0.2,0-0.4,0c0,0.2-0.1,0.3-0.2,0.6c0,0.1,0,0.1,0,0.2l0,0.4v0.4l0.1,0.7c0,0.1,0,0.2-0.1,0.4
			c0,0.1,0,0.2,0,0.3c0,0.2,0,0.4,0,0.6c0,0.2,0,0.6,0,1.2l0.1,0.4v1.2c0,0.4,0.1,0.6,0.1,0.7c0,0.1,0,0.2-0.1,0.3
			c-0.1,0.1-0.1,0.3-0.1,0.4l-0.4,0.1l0.1,0.7c0.1,0,0.3,0,0.4,0.1c-0.1,0.2-0.1,0.3-0.1,0.4c0,0,0,0.2,0.1,0.4c0,0,0,0.1,0,0.1
			c0,0.1,0,0.2,0,0.3c0,0.1,0,0.1,0,0.2c0,0.2,0,0.4,0,0.6c-0.2,0.1-0.3,0.3-0.3,0.5c0,0.2,0.1,0.3,0.4,0.3c0,0.1-0.1,0.2-0.1,0.2
			l0,0.9c0,0.1-0.1,0.3-0.2,0.6c-0.1,0.1-0.2,0.2-0.4,0.3c-0.2,0.1-0.3,0.2-0.4,0.2c-0.1,0.1-0.1,0.2-0.2,0.3l-0.5-0.1
			c-0.3,0.4-0.7,0.7-1.1,0.7C423.5,447,423.3,447,423.1,446.9z M425.6,426.8l0.3-0.1l0.3,0.3c0,0.4,0,0.8,0,1.3v0.6l0,0.7
			c-0.1,0.3-0.1,0.7-0.1,1.1l-0.2,0.1v0.2c0,0,0,0,0.1,0c0.1,0,0.2,0,0.4,0.1c0.2-0.1,0.3-0.2,0.4-0.2c0.1,0,0.2-0.1,0.5-0.1
			c0.1,0.1,0.2,0.1,0.3,0.1c0.1,0,0.2,0,0.3-0.1l0.1-0.1c0.2,0,0.6-0.1,1.1-0.3l0.4-0.1l0.8-0.5c0.3-0.1,0.6-0.3,0.9-0.5l2.9-1.6
			c0.6-0.3,0.9-0.4,1.2-0.6c0.1-0.1,0.4-0.3,0.6-0.6l0.6-0.4c0.3-0.3,0.4-0.4,0.5-0.5c0.1,0,0.2-0.1,0.4-0.2c0.1,0,0.2-0.2,0.5-0.6
			c0.2-0.1,0.3-0.3,0.4-0.3c0.1-0.2,0.1-0.3,0.1-0.5c0-0.1,0-0.1,0-0.2c0-0.1-0.1-0.2-0.1-0.3c0,0,0-0.1,0-0.1l0.3-0.2v-0.1
			l-0.5-0.2c-0.1-0.2-0.2-0.3-0.2-0.4v-0.2c0,0,0,0,0-0.1c-0.1-0.1-0.1-0.1-0.1-0.2c0,0,0-0.1,0-0.2l-0.5-0.1l0,0.2
			c-0.2-0.1-0.4-0.1-0.5-0.1c-0.3-0.1-0.5-0.2-0.7-0.2c-0.2,0-0.3-0.1-0.5-0.2c-0.2,0-0.3,0.1-0.3,0.1l-0.8-0.3h-1.1
			c-0.1,0-0.2-0.1-0.4-0.2c-0.2,0-0.5,0.1-0.9,0.1c-0.3,0.1-0.5,0.1-0.5,0.1c0,0-0.3-0.1-0.7-0.2c0,0-0.2,0-0.6-0.1
			c-0.3,0-0.7,0.1-1.2,0.4c-0.2,0.1-0.3,0.1-0.5,0.1c-0.1,0-0.1,0-0.1,0l-0.5-0.7l-0.5,0.2c-0.5,0-0.7,0.1-0.8,0.1
			c-0.2,0.1-0.3,0.2-0.3,0.4c0,0,0,0.4,0,1.1c0,0.1-0.1,0.3-0.2,0.6l-0.2-0.1l-0.1,0.2v0c0,0.1,0,0.2,0.1,0.3
			c0.3,0.3,0.4,0.4,0.4,0.5c0,0.5,0,0.7,0,0.8c0,0.1,0,0.2,0,0.2c0,0.1,0,0.2-0.1,0.3c-0.1,0.1-0.1,0.3-0.1,0.5l-0.3,0.3
			C425.8,426.4,425.7,426.6,425.6,426.8L425.6,426.8z"/>
		<path class="st0" d="M446.2,432.2c0-0.1,0.1-0.3,0.4-0.6c0.6-0.5,1.2-0.8,1.7-1l0.4,0.4c-0.1,0.2-0.2,0.6-0.2,1
			c-0.1,0.4-0.1,0.6-0.1,0.7v0.5l-0.2,0.3c0,0.2,0.1,0.5,0.3,0.7c-0.1,0.1-0.1,0.2-0.1,0.2l0,0.7l0,0.2c0,0.1,0,0.2,0,0.3l-0.1,2.8
			c0,0.1,0.1,0.5,0.2,1l0,0.6c0.1,0.3,0.1,0.5,0.1,0.5c0,0.2-0.1,0.4-0.3,0.6c0,0-0.2,0.2-0.6,0.4c-0.5,0.4-0.8,0.6-0.8,0.6
			c-0.1,0-0.2,0.1-0.3,0.1c-0.1,0-0.2-0.1-0.3-0.2c0-0.2,0.1-0.4,0.1-0.5c0-0.1,0.1-0.3,0.2-0.6l0-0.7l0.1-1.4l0-0.3
			c0-0.2,0.1-0.2,0.2-0.2c0,0,0.1,0,0.1,0c0-0.2,0.1-0.3,0.1-0.3c0-0.1,0-0.2-0.1-0.4c0-0.1-0.1-0.2-0.1-0.4l-0.2-0.2
			c0-0.2,0-0.4,0-0.5c0,0,0-0.1,0-0.2c0-0.1,0-0.1,0-0.2c0-0.1,0-0.3,0.1-0.4c-0.1-0.1-0.1-0.2-0.1-0.4v-0.1v-0.1l0-0.3
			c0.6-0.1,0.9-0.2,0.9-0.3c0,0,0,0,0,0c-0.1-0.1-0.3-0.2-0.5-0.2c-0.2,0-0.3,0-0.6,0c0-0.1,0-0.2,0-0.3c0,0,0-0.5-0.1-1.4
			C446.5,432.4,446.4,432.3,446.2,432.2z M446.5,426.4L446.5,426.4c0-0.4,0.2-0.7,0.7-1.1c0.1-0.1,0.2-0.2,0.4-0.4
			c0,0,0.1-0.1,0.3-0.2c0.4-0.5,0.6-0.8,0.7-0.9c0.1-0.1,0.3-0.2,0.4-0.2c0,0,0.2,0.1,0.3,0.2c0.2,0.1,0.3,0.3,0.3,0.5
			c0,0.2-0.1,0.3-0.3,0.4c-0.4,0.3-0.9,0.7-1.3,1l-0.4,0.3l-0.5,0.3c-0.3,0.1-0.4,0.2-0.5,0.2C446.5,426.6,446.5,426.5,446.5,426.4z
			"/>
		<path class="st0" d="M450.6,447c0.2,0,0.4-0.1,0.6-0.3c0.2-0.3,0.4-0.4,0.6-0.5c0.6-0.2,1-0.4,1.2-0.5c0.1,0.1,0.2,0.2,0.2,0.3
			c0,0.1,0,0.2-0.1,0.3c0,0-0.2,0.2-0.5,0.4c-0.1,0-0.1,0.1-0.2,0.3c-0.2,0.3-0.3,0.5-0.3,0.8c0,0.1,0,0.1,0,0.3
			c-0.2,0.1-0.4,0.2-0.4,0.4c0,0.1,0,0.2,0.1,0.2c0,0,0.1,0,0.1,0c0.1,0,0.2,0,0.3,0.1c0.1,0.2,0.2,0.4,0.5,0.6
			c0.4,0.3,0.7,0.4,0.9,0.5l0.2,0.4c0.5,0.1,0.9,0.2,1.1,0.2c0.1,0,0.2,0,0.3,0c0,0,0.1,0,0.1,0c0.1,0,0.3,0.2,0.7,0.7l0.1-0.3
			c0-0.2,0.1-0.3,0.1-0.3l2,0.1c0,0,0.1,0,0.2-0.1c0.1,0,0.3-0.1,0.5-0.1c1-0.2,1.6-0.3,1.8-0.4c0.6-0.2,0.9-0.4,1-0.4
			c0.1,0,0.3,0,0.6,0c0.1-0.1,0.2-0.2,0.3-0.4c0,0,0.3-0.2,0.8-0.5c0.2-0.2,0.4-0.3,0.5-0.3c0-0.1,0.1-0.2,0.2-0.3
			c0.2-0.1,0.2-0.2,0.2-0.3l-0.1-0.5c0.1-0.3,0.2-0.6,0.2-0.8c0-0.1,0-0.2,0-0.2c0.1-0.2,0.1-0.4,0.1-0.4c0-0.1-0.1-0.2-0.3-0.2
			c-0.1-0.5-0.3-0.8-0.4-1c-0.1-0.2-0.2-0.3-0.2-0.4c0-0.1,0-0.2,0-0.3c-0.5-0.3-1.2-0.6-2-0.7h0c-0.1,0-0.2,0-0.2,0l-0.1,0
			c0,0-0.2,0-0.5-0.1c-0.1,0-0.2,0-0.3,0c-0.1,0-0.3,0-0.5,0c-0.1,0-0.3,0-0.4,0c-0.1,0-0.2-0.1-0.5-0.3c0,0,0,0-0.1,0
			c-0.1,0-0.3,0.1-0.6,0.3l-0.3,0.1l-0.6,0.1l-0.8-0.8l-0.5,0.7l-0.3-0.1c-0.1,0-0.2-0.1-0.2-0.1c-0.1,0-0.2,0-0.3,0
			c-0.2,0.2-0.3,0.3-0.5,0.3c-0.1,0-0.3,0-0.7-0.1c-0.3-0.1-0.6-0.2-0.9-0.4c-0.4-0.3-0.7-0.5-0.7-0.6c0-0.1,0-0.2-0.1-0.5
			c-0.1-0.3-0.1-0.5-0.1-0.5c0-0.2,0.2-0.5,0.5-0.8c0.3-0.3,0.5-0.5,0.6-0.6c0.1-0.1,0.3-0.2,0.5-0.3l0.4-0.2c0.4,0,0.6-0.1,0.7-0.1
			c0.1,0,0.2-0.1,0.4-0.3v-0.1c-0.1-0.1-0.2-0.1-0.3-0.1c-0.1,0-0.3,0-0.4,0c-0.1,0-0.2,0-0.2,0c-0.2,0-0.5-0.1-0.9-0.3
			c-0.1-0.1-0.2-0.1-0.2-0.2c0,0,0-0.1-0.1-0.4c0-0.1-0.1-0.2-0.3-0.3c-0.3-0.1-0.4-0.1-0.4-0.1l-0.2-0.3c-0.2-0.3-0.3-0.4-0.3-0.5
			c0,0,0-0.2,0.1-0.7c0-0.5,0-0.7,0.1-0.8c0,0,0.1-0.2,0.2-0.4c0.1-0.1,0.1-0.2,0.1-0.3s0-0.3-0.1-0.5c0.2-0.2,0.4-0.4,0.8-0.9
			c0.1-0.1,0.4-0.3,0.7-0.5l0.7-0.7c0.1-0.1,0.2-0.1,0.3-0.1c0.2,0,0.2-0.1,0.3-0.1c0,0,0.1-0.1,0.1-0.2c0.2,0,0.8-0.2,1.6-0.4
			l0.5-0.1c0.3-0.1,0.6-0.1,0.7-0.1c0.1,0,0.4,0,1,0.1c0.4,0,0.7,0,1,0c0.2-0.2,0.5-0.4,0.8-0.5c0.2-0.1,0.3-0.1,0.3-0.1
			c0.1,0,0.3,0,0.5,0.1c0.2,0,0.3,0.1,0.5,0.1c0.2,0,0.6,0,1-0.1h0c0.1,0,0.3,0.1,0.5,0.3c0.2,0,0.3-0.1,0.3-0.3c0-0.1,0-0.1,0-0.2
			c0.3-0.2,0.6-0.3,0.9-0.5c0,0,0.1,0,0.2,0c0.1,0,0.2,0,0.4-0.1c0.1,0.1,0.1,0.2,0.1,0.2c0,0.5-0.4,0.8-1.1,1.1
			c0,0.2-0.1,0.3-0.1,0.4s-0.2,0.2-0.4,0.3c-0.2,0.2-0.4,0.3-0.6,0.3c-0.3,0-0.5,0.1-0.6,0.1c-0.1,0-0.1,0-0.1,0l-0.5-0.6
			c0,0-0.1-0.1-0.1-0.1c-0.2,0-0.4,0.2-0.5,0.7c0.1,0.1,0.2,0.2,0.3,0.3c0.3,0.2,0.4,0.4,0.5,0.4c0,0.1,0.1,0.2,0.1,0.4l0.2,0.2v0.4
			l0,0.1l-0.5,0.2v0.2c0.2,0.1,0.3,0.2,0.3,0.3c0,0.3-0.2,0.6-0.6,1l-0.4,0.4l-0.8,0.6l-0.2,0.4c0,0-0.2,0.1-0.4,0.3l-0.3,0.2
			c-0.4,0.3-0.8,0.4-1.1,0.5c-0.5,0.2-0.8,0.3-1,0.3c-0.2,0-0.5,0.1-0.7,0.1c0,0.1,0,0.2,0,0.3c0,0.1-0.1,0.3-0.2,0.4
			c-0.4,0-0.7,0-0.9,0c-0.1,0-0.4,0.1-0.9,0.3c-0.7,0.1-1.1,0.3-1.2,0.3c-0.4,0.2-0.6,0.4-0.7,0.7c0,0.1-0.1,0.1-0.1,0.2
			c0.1,0.1,0.4,0.2,1.1,0.4c0.2,0.1,0.3,0.3,0.4,0.5c0.3-0.1,0.4-0.1,0.6-0.1l0.8,0.1h0c0.2,0,0.3,0,0.4,0c0.1,0,0.2,0,0.2,0
			c0.1,0,0.3,0.3,0.6,0.7c0.1,0.1,0.2,0.2,0.3,0.2c0,0,0.1,0,0.1-0.1c0.2-0.4,0.3-0.6,0.4-0.7c0.4-0.3,0.7-0.4,1-0.4l0.5,0h0l0.7,0
			c0.1,0,0.2,0.1,0.3,0.4h0.2l0.2-0.4c0.2,0,0.3,0,0.4,0c0.1,0,0.3,0,0.6,0.1l0.4,0l0.4,0.2c0.7,0.2,1.1,0.4,1.3,0.5
			c0,0.1,0,0.1,0,0.2c0,0.1,0.1,0.2,0.3,0.5l0.5-0.1c0.3,0.1,0.4,0.3,0.5,0.4c0,0,0,0.1,0.1,0.3l0.2,0.6l0.1,0.6l0.1,0.5
			c0,0,0,0.2-0.1,0.7c-0.1,0.3-0.2,0.7-0.4,1.1c-0.1,0.2-0.2,0.4-0.5,0.7l-0.3,0.5c-0.1,0.2-0.2,0.3-0.2,0.4c0,0.1-0.1,0.1-0.2,0.1
			c-0.1,0.2-0.2,0.3-0.3,0.3c0,0-0.2,0.1-0.5,0.3c-0.2,0.3-0.4,0.4-0.5,0.5c-0.2,0.1-0.5,0.2-0.9,0.5l-0.9,0.3l-0.4,0.2l-0.6,0.1
			l-0.5,0.2l-0.2,0l-0.4,0.1l-1.1,0.1c-0.7,0.2-1.2,0.4-1.3,0.4l-0.8-0.1h0c-0.3,0-0.4,0-0.4,0c0,0-0.1-0.2-0.3-0.6l-0.3,0.6
			l-0.6-0.6l-0.6,0.6l0,0l-0.2-0.1c-0.3-0.2-0.4-0.3-0.4-0.3c-0.1,0-0.3,0-0.7,0c-0.2,0-0.3,0-0.3-0.1l-0.3-0.2l-0.4-0.3l-0.3-0.3
			c-0.3-0.2-0.5-0.2-0.6-0.3c-0.1,0-0.2-0.3-0.4-0.6c-0.2-0.3-0.2-0.7-0.2-1c0-0.2,0.1-0.5,0.3-0.9
			C450.4,447.2,450.5,447.1,450.6,447z M454.6,436c0,0.1,0,0.3,0,0.3c0,0.2,0.1,0.3,0.2,0.4c0.1,0,0.2,0.1,0.5,0.1
			c0.3,0.3,0.5,0.5,0.6,0.5c0.3,0.2,0.8,0.2,1.4,0.2c0.1,0,0.4,0,0.7-0.1l0.3,0l1-0.4c0.1,0,0.2,0,0.4,0c0.2-0.2,0.4-0.4,0.8-0.7
			c0.1-0.1,0.1-0.1,0.2-0.2c0,0,0.1-0.1,0.1-0.4c0.1-0.3,0.2-0.5,0.2-0.6c0-0.3,0-0.6-0.1-1c0-0.3-0.2-0.7-0.6-0.9
			c-0.2-0.1-0.3-0.3-0.5-0.6c-0.1-0.1-0.2-0.2-0.3-0.2c0,0-0.2-0.1-0.6-0.1l-0.2-0.1l-0.4-0.1l-0.1,0l-0.7,0.2
			c-0.3,0-0.5-0.1-0.5-0.1c-0.1,0-0.4,0.1-0.8,0.2l-0.4,0.1c-0.1,0-0.2,0.1-0.3,0.2c-0.1,0-0.2,0.1-0.3,0.1
			c-0.2,0.2-0.3,0.3-0.5,0.5c-0.2,0.3-0.4,0.4-0.4,0.5s-0.1,0.3-0.1,0.6c-0.1,0.3-0.1,0.7-0.1,1c0,0.2,0,0.3,0.1,0.3
			C454.2,435.7,454.4,435.8,454.6,436z"/>
		<path class="st0" d="M467.8,419c0.1-0.2,0.3-0.3,0.6-0.5l1-0.5c0.3-0.1,0.5-0.2,0.8-0.2c0.1,0,0.2,0,0.3,0.1
			c-0.5,0.2-0.7,0.3-0.8,0.4l-0.6,0.6l1.1,1.1c0,0,0.1,0.1,0.1,0.3c0,0.1-0.1,0.2-0.2,0.5L470,421l-0.2,0.1c0,0-0.1,0.1-0.1,0.2
			s-0.1,0.2-0.1,0.2c0,0.1,0,0.2,0.1,0.3c0.1,0,0.2,0,0.4-0.1c0.1,0,0.2-0.1,0.3-0.1l-0.1,2.5c0,0.1,0,0.2,0,0.4c0,0.1,0,0.2,0,0.3
			c0,0.2-0.1,0.4-0.3,0.7c0,0.2,0,0.3,0.1,0.4l0.3,0.3c0.1,0.1,0.1,0.2,0.1,0.3c0,0.1-0.1,0.3-0.2,0.7l0.1,0.6
			c0,0.5,0.1,0.8,0.1,0.8c0,0-0.1,0.2-0.2,0.5l0.1,0.6l0,0.3c0.1,0.3,0.1,0.5,0.1,0.5c0,0,0,0.1,0,0.2c-0.1,0.5-0.2,1-0.2,1.5
			c0,0.2,0,0.4,0.1,0.6c0.5-0.3,1.1-0.8,1.9-1.5l0.6,0.1c0.2-0.1,0.5-0.2,0.7-0.3c0.4-0.1,0.7-0.1,0.8-0.1c0.1,0,0.2,0.1,0.4,0.2
			l0.1,0.3h0.3c0.1-0.1,0.1-0.2,0.2-0.3c0-0.1,0.1-0.1,0.2-0.1l0.9,0.1c0.9,0.1,1.3,0.1,1.4,0.2c0,0,0.2,0.2,0.5,0.5
			c0.1,0.1,0.3,0.3,0.6,0.4l-0.2,0.4c0.1,0.1,0.3,0.1,0.5,0.1c0.2,0.3,0.3,0.5,0.3,0.8c0,0.3,0,0.6,0,1c0,0.3-0.1,0.6-0.2,0.7
			c-0.1,0.1-0.1,0.1-0.2,0.2l0.2,0.6l-0.3,0.3l0,0.1l0.4,0.4c0,0.1-0.1,0.2-0.1,0.3l0,0.4l0,0.9l0,0.2c-0.2,0.3-0.3,0.5-0.3,0.5
			c0,0.1,0.1,0.4,0.2,1l0,1.2c0,0,0,0.1,0,0.2c-0.2,0.1-0.5,0.2-0.8,0.3c-0.2,0.1-0.3,0.2-0.5,0.3c-0.2,0.1-0.4,0.2-0.6,0.2
			l-0.5-0.4c0.1-0.2,0.2-0.5,0.3-0.8c0.2-0.4,0.2-0.7,0.2-1.1c0-0.1-0.1-0.3-0.2-0.7l0-0.2l0.1-0.5c0.1-0.3,0.2-0.7,0.3-1.2
			l-0.2-0.1c0-0.3,0.1-0.9,0.2-1.7c0-0.1,0-0.1,0-0.2c0,0,0-0.1,0-0.1c-0.1-0.5-0.1-0.7-0.1-0.7c0,0,0-0.1,0.1-0.1
			c0-0.1,0.1-0.2,0.1-0.2v0c0,0-0.1-0.2-0.2-0.5c-0.1-0.2-0.2-0.3-0.3-0.4c0,0-0.2-0.1-0.5-0.2c-0.4-0.2-0.6-0.3-0.7-0.3
			c0,0-0.3,0-0.6,0c-0.5-0.1-0.9-0.1-1-0.1c-0.1,0-0.2,0-0.3,0c-0.4,0-0.7,0-0.7,0c-0.4,0-0.7,0.1-1.2,0.2l-0.2,0l-0.8,0.4l-0.5,0.2
			c-0.7,0.6-1.1,1-1.1,1.1c0,0.2,0.3,0.4,1,0.6c0,0.2-0.1,0.3-0.1,0.4c-0.1,0.3-0.1,0.8-0.1,1.6c-0.2,0-0.3,0-0.4,0.1v0.1
			c0.3,0.3,0.4,0.5,0.5,0.7c0.1,0.3,0.1,0.7,0.1,1.2l0.1,0.5l-0.1,0.6l0.1,0.4v0.2l0,0.3c0,0.1-0.1,0.2-0.2,0.3c0,0-0.3,0.1-0.9,0.3
			c-0.2,0-0.4,0.2-0.7,0.5l-0.3-0.3c0-0.3,0.1-0.7,0.2-1.1v-0.4c0,0,0.1-0.2,0.2-0.4c0.1-0.1,0.1-0.2,0.1-0.3c0-0.1,0-0.1-0.1-0.2
			c-0.1-0.2-0.2-0.3-0.2-0.4v0l0-0.7v0.3v-1c0,0,0-0.1,0-0.2c0-0.1,0-0.2,0-0.2l0-0.5l0.1-1.1l0-0.8c0-0.1,0-0.2,0.1-0.3
			c0,0,0.1-0.2,0.4-0.4c0.1,0,0.1-0.1,0.1-0.2c0-0.1,0-0.3,0-0.5l-0.3,0.1c-0.1-0.5-0.2-1-0.2-1.6c0-0.7,0-1.6,0.1-2.5l0.5-0.1
			c-0.1-0.2-0.2-0.4-0.2-0.7l-0.3-0.2c0-0.3,0.1-0.5,0.1-0.6c0-0.1,0-0.3,0-0.5c-0.1-0.7-0.1-1.2-0.1-1.4c0-0.2,0.1-0.4,0.3-0.6
			c0.5-0.3,0.7-0.5,0.7-0.6v0c-0.2-0.2-0.5-0.3-1-0.3c0-0.1,0.1-0.3,0.1-0.5c0.1-0.3,0.2-0.5,0.2-0.6c0-0.1-0.1-0.3-0.3-0.4
			c0-0.3,0-0.4,0-0.6c0-0.2,0-0.4,0-0.5c0-0.3,0-0.5,0-0.7c0-0.1,0-0.3,0.1-0.6c-0.2-0.7-0.3-1.2-0.3-1.2c0-0.1,0-0.2,0-0.3
			L467.8,419z"/>
		<path class="st0" d="M482.6,431.9c0.1-0.4,0.2-0.6,0.4-0.6h0l0.7,0h0c0.5-0.1,0.9-0.1,0.9-0.1c0-0.2,0-0.3,0-0.3
			c0-0.9,0-1.7-0.1-2.2c0-0.3-0.1-0.5-0.2-0.7l-0.1-0.3c0-0.1-0.1-0.2-0.1-0.2c0-0.1,0.1-0.3,0.3-0.5c0.4-0.3,0.8-0.5,1.4-0.7
			c0.1-0.3,0.3-0.4,0.4-0.4c0.1,0,0.1,0,0.1,0.1c0.1,0.1,0.2,0.3,0.2,0.6c0,0,0,0.8-0.1,2.3c-0.1,0.4-0.2,0.6-0.2,0.7
			c0,0.1-0.2,0.3-0.3,0.4c0,0.2,0,0.4,0.1,0.6h0.3l-0.1,0.7c0.2,0,0.7,0.1,1.5,0.3c0,0,0.2,0,0.5,0c0.2,0,0.5-0.1,0.9-0.2l1-0.1
			c0.5-0.2,0.8-0.3,0.9-0.3c0.1,0,0.3,0,0.5,0c0,0.3,0,0.5-0.1,0.6c0,0.1-0.3,0.4-0.9,0.7c-0.1,0.1-0.2,0.1-0.3,0.2
			c-0.1,0.2-0.2,0.3-0.2,0.3c0,0-0.2,0.1-0.3,0.1c-0.1,0-0.3,0-0.3-0.1l-0.6-0.3l-0.4-0.1l-0.4-0.3l-0.7,0.6l-0.6-0.1
			c0,0-0.1,0-0.3,0.1c0.1,0.5,0.1,0.9,0.1,1.2c0,0.2,0,0.4,0,0.7c-0.4,0.1-0.5,0.2-0.5,0.4c0,0.1,0,0.2,0.1,0.3c0.2,0,0.4,0,0.5,0.1
			l0,1.8c-0.1,0-0.3-0.1-0.4-0.1c-0.2,0-0.3,0.1-0.3,0.2c0,0.1,0,0.3,0.1,0.4c0.1-0.1,0.3-0.1,0.3-0.1c0.1,0,0.2,0.1,0.2,0.3l0,0.6
			v0c0,0.4,0,0.7,0,0.9c0,0.2,0.1,0.4,0.2,0.6l0.2,0.3c0,0,0,0.1,0,0.2c0,0.1,0,0.2,0,0.3c0.3,0.2,0.6,0.3,1,0.3
			c0.3,0,0.6-0.1,0.9-0.2c0.3-0.1,0.4-0.2,0.4-0.2l0.8-0.7c0.4-0.3,0.6-0.5,0.7-0.5s0.2,0,0.4,0.1c0,0.2,0,0.3-0.1,0.4
			c-0.1,0.5-0.1,0.8-0.2,0.9c-0.1,0.1-0.4,0.2-0.9,0.4c-0.4,0.2-1,0.4-1.8,0.7l-0.5,0.2c-0.3,0.2-0.5,0.3-0.6,0.3
			c-0.1,0-0.2-0.1-0.3-0.3l-0.3-0.1l-0.2,0.4c-0.1,0-0.3,0-0.3,0c-0.3,0-0.6-0.2-0.9-0.5c-0.2-0.2-0.3-0.3-0.4-0.5
			c0,0,0-0.1-0.1-0.4c-0.1-0.3-0.2-0.5-0.2-0.6c0-0.1,0-0.2,0-0.4c0-0.2,0-0.5,0-1c0-0.3,0.1-0.6,0.3-0.7c-0.1-0.2-0.1-0.4-0.1-0.7
			c0-0.4-0.1-1.3-0.1-2.5c0.2-0.1,0.3-0.3,0.3-0.4c0-0.1,0-0.2,0-0.3l-0.4-0.1l0-0.1v0c0,0,0-0.2,0-0.3c0.1-0.3,0.1-0.7,0.1-1.3
			c-0.4-0.1-0.7-0.1-0.9-0.1c-0.1,0-0.3,0-0.8,0.1l-0.3,0c-0.3,0.1-0.4,0.1-0.4,0.1c-0.1,0-0.2-0.1-0.2-0.2
			C481.9,432.3,482.1,432.1,482.6,431.9z"/>
		<path class="st0" d="M493.2,440.6c0.1-0.2,0.2-0.3,0.2-0.3l0.8-0.5c0.2-0.3,0.4-0.4,0.4-0.4c0.1,0,0.2-0.1,0.2-0.1
			s0.2,0.1,0.4,0.3c0,0,0.3,0.2,0.7,0.4c0.4,0.2,0.6,0.5,0.6,0.8c0,0,0,0.1-0.1,0.3c-0.2,0.3-0.2,0.4-0.3,0.4
			c-0.5,0.4-0.8,0.6-1,0.7c-0.2-0.1-0.4-0.4-0.6-0.7l-0.4-0.3c-0.2-0.3-0.3-0.4-0.3-0.5C493.6,440.6,493.4,440.6,493.2,440.6z
			 M495.7,423.6c0.1,0.1,0.2,0.2,0.2,0.3c0,0.4-0.2,0.7-0.5,0.9l-0.8,0.5l1.2,0.4l-0.2,0.3c0.1,0.6,0.2,1,0.2,1.3c0,0,0,0.2,0,0.5
			l0,0.4l-0.2,0.5c0.1,0.4,0.1,0.6,0.1,0.6c0,0,0,0.3,0,0.8l-0.1,0.9c-0.1,0.4-0.1,0.6-0.1,0.7c0,0.2,0.1,0.4,0.2,0.5
			c0,0.6,0,0.9,0,1c0,0.1-0.1,0.3-0.2,0.5c0.1,0.2,0.2,0.4,0.3,0.7c0,0.2,0.1,0.4,0.1,0.5l0,0.3c-0.2,0.2-0.3,0.4-0.3,0.6
			c-0.1,0.2-0.2,0.4-0.5,0.6c-0.2,0-0.3-0.1-0.4-0.1l-0.6,0c-0.1,0-0.3-0.1-0.5-0.3c0.1-0.2,0.2-0.5,0.5-0.8c0,0,0-0.2,0.1-0.4
			c0.1-0.7,0.1-1.2,0.2-1.4c0.3,0,0.4-0.1,0.4-0.3c0-0.1,0-0.2-0.1-0.4l-0.4,0c0-0.1,0-0.2,0-0.2c0-0.1,0-0.4,0-1
			c0-0.2,0-0.4,0.1-0.5c0-0.1,0.1-0.1,0.1-0.2c-0.2-0.3-0.2-0.5-0.2-0.6c0-0.9,0-1.5-0.1-1.7h-0.1l0,0v-0.2h0.5c0-0.2,0-0.3-0.1-0.3
			c-0.1-0.1-0.2-0.1-0.5-0.2c0.3-0.2,0.5-0.4,0.7-0.5c0.1-0.1,0.2-0.2,0.2-0.2l-1-0.6v0l0.1-0.5c-0.4-0.3-0.6-0.7-0.6-0.9
			c0-0.3,0.1-0.5,0.4-0.7c0.4-0.3,0.8-0.5,1.2-0.6C495.3,423.7,495.5,423.7,495.7,423.6z"/>
	</g>
	<g>
		<path class="st1" d="M10.5,380c0-0.2,0.5-1.2,1.5-2.8l0.6-1.5c1.2-1.5,1.9-2.3,1.9-2.4c0.1-0.1,0.1-0.5,0.2-1.2
			c0.2,0,0.5-0.1,0.7-0.1c0.3,0,0.5,0.1,0.7,0.3c0.3,0.3,0.6,0.7,0.9,1.1l0.8,1.4l-0.3,1.6l0.4,1.4l-0.2,1.6c0.5,1.6,1,2.8,1.7,3.6
			l1-0.4h0.1c0.1,0,0.2,0.1,0.4,0.2c0.2,0.1,0.5,0.9,1,2.6c0.2,0.6,0.5,1.1,1.1,1.6c2,1.7,3.3,2.6,3.7,2.9l6.6,2.6l1.9,1.1
			c1.2,0.2,2,0.3,2.2,0.4c0.2,0.1,1,0.4,2.4,1.1c4.3,0.9,6.8,1.3,7.5,1.4l5.7,0.2c0.7,0,1.6,0.1,2.7,0.1c0.5,0,0.9,0,1-0.1
			c0.4-0.1,0.6-0.2,0.7-0.2l1.5,0.4c0.6-0.2,2.2-0.5,4.7-0.9c0.3,0,0.8,0.2,1.7,0.6c0.4,0,0.6,0.1,0.7,0.1c0.3,0,0.8-0.4,1.4-1.3
			c0.2-0.2,0.4-0.4,0.7-0.4c0.2,0,0.5,0,0.8,0.1c0.2,0,0.5,0.1,0.7,0.1c0.1,0,1.4-0.4,3.7-1.2l1.3-0.1l2-0.9
			c2.6-0.8,4.2-1.4,4.7-1.7c0.4-0.2,1.6-1,3.7-2.3c1.4-1.2,2.2-1.9,2.5-2.2c0.2-0.2,0.9-1.2,2.1-2.9l1.1-0.9l1-1.7
			c0.6-0.7,0.9-1.1,1-1.4c0.1-0.1,0.2-0.5,0.3-1.2c-0.1-0.3,0.4-1.3,1.6-3c0.2-0.4,0.4-0.9,0.5-1.6c0.9-0.1,1.5-0.2,1.8-0.4
			c0.3-0.2,0.5-0.6,0.7-1.4l-0.2-0.2h-1.1l0.7-2.2c-0.5-0.5-0.7-0.9-0.7-1.2c0-0.2,0.2-0.6,0.7-1.4c0.2-0.4,0.4-1.4,0.6-2.9
			c0.7-2.1,1.1-3.4,1.1-3.8c0-0.9,0.1-1.8,0.2-2.8h1.1v-0.8l-1.7,0.3c-0.2-1.1-0.9-3.4-2.2-6.9l0.8-1l-0.2-0.5
			c0.9,0,1.5,0.1,1.9,0.1c2.5,0,3.8-0.3,3.8-0.8c0-0.7-2-1.1-6-1.1c-0.3,0.7-0.7,1-1.2,1c-0.2,0-0.5-0.2-1.1-0.7
			c-0.2-0.2-1.6-0.8-4.1-1.8c-0.9-0.6-1.6-1-2.1-1.1c-1.1-0.3-2.5-0.6-4.2-0.8l-1.2-0.4c-1.8-0.6-2.8-0.9-2.9-0.9c0,0-0.1,0-0.2,0
			V342l-0.3-0.2l-0.1,0.2c-0.1,0.2-0.2,0.4-0.3,0.4l-4.1-0.9l-0.8,0.3c-1.5,0.2-2.3,0.3-2.5,0.3c-0.2,0-0.5-0.1-0.8-0.4
			c-0.1-0.7-0.5-1-1.2-1c-0.3,0-0.9,0.3-1.6,1c-0.2,0.2-0.6,0.3-1.1,0.3c-0.3,0-0.8,0-1.5-0.1c-0.7-0.1-1.2-0.1-1.3-0.1
			c-2.3,0-3.5,0-3.5-0.1l-2.3-3.8c-0.2-0.4-0.5-0.6-0.8-0.6c-0.8,0-1.7,1.5-2.7,4.4c-0.1-2.6-0.4-4.2-1.1-4.9
			c-0.2-0.2-0.4-0.3-0.6-0.4l-0.7-0.4c-2.6,3.7-4,5.6-4.2,5.6l-2.1-0.7c-1.7-0.2-2.9-0.5-3.6-0.8c-0.9-0.5-1.4-0.7-1.5-0.7l-1.3-0.2
			l-0.6-0.1h-1.4l-1.4-0.7c-2.1-0.9-3.5-1.6-4.1-2.1c-1.4-1.1-2.7-2.7-4.1-4.9c-0.8-1.2-1.1-2.3-1.1-3.1c0-0.4,0.1-0.9,0.2-1.5
			c-0.7-0.8-1-1.6-1-2.4c0.6-0.6,0.9-1,0.9-1.1l0.4-3.1c0.8-1.8,1.2-2.8,1.4-2.9c1.5-1.7,3-3.3,4.4-4.9l2.2-1.6l2.7-2.2l1.7-0.8
			l1.8-0.9l8.2-3.5c1.8-0.9,3-1.5,3.7-1.7c2.1-0.7,3.8-1.2,5-1.6l6.7-1.8l1.9-0.4l9.5-0.9l4.3-0.4c0,0,0.8,0.1,2.2,0.2l2.7,0.2
			l1.4,0.4c1.5,0.2,3.5,0.7,6.2,1.4l0.4,1.9c-0.8,0.6-1.4,1-1.7,1.2c-0.5,0.4-0.8,0.6-1,0.7c-0.6,0.5-1.1,0.8-1.4,0.9
			c-0.8-0.4-1.3-0.6-1.6-0.7h-1.6l-3-1l-1.9,0.1c-0.1,0-0.6-0.6-1.5-1.7c-0.8-1.1-2-1.6-3.5-1.6c-1.4,0-2.4,0.3-3,0.9
			c-0.4,0.3-0.9,1-1.4,2c-0.5-0.5-0.8-0.7-1-0.7h-0.7c-1.5,0-2.8,0.3-4.1,0.8l-4.8,0.9l-4.3,1.4c-1.3-0.3-2-0.5-2.1-0.5
			c-0.4,0-1.1,0.2-2,0.6v1.2l-5.4,2l-0.5,1c-2.1,0.3-3.8,1.2-4.9,2.7c-0.5-0.2-1-0.3-1.4-0.3c-0.7,0-1.3,0.6-1.8,1.7
			c-1.5,0.5-2.7,1.4-3.7,2.7c-1.5,2-2.3,3.8-2.3,5.5c0,0.8,0.1,2,0.4,3.6c0.1,0.8,0.6,1.5,1.4,2.2c1.9,1.8,3.3,2.8,4,3l2.4,0.7
			c1.8,0.6,2.9,1.7,3.5,3.2c0,0.1,0.2,0.2,0.6,0.4c0.3,0.2,0.7,0.3,1.1,0.3c0.1,0,0.5-0.1,1.1-0.4c0.1,0,0.2-0.1,0.4-0.1
			c0.2,0,0.4,0,0.7,0.1c0-0.6,0.2-1.1,0.4-1.5c0.6,0.2,0.9,0.3,1,0.3l2.4-0.3l4,0.8l1.3-0.2c0.2,0,0.4-0.1,0.5-0.1
			c0.7,0,2,0.2,3.7,0.7l0.2,1.5c0.6,0.1,1.1,0.2,1.4,0.2c0.1,0,0.4,0,0.7-0.1c-0.3-0.4-0.5-0.7-0.5-0.9c0-0.4,0.3-0.6,0.9-0.6
			l1.8,0.1h11.9c0.2,0.2,0.4,0.5,0.4,0.7c0,0.3-0.1,0.7-0.3,1.2c0.5,0.6,0.9,0.8,1.1,0.8c0.3,0,0.8-0.4,1.4-1.3
			c0.4,0.2,0.8,0.3,1.1,0.3c0.1,0,1-0.4,2.6-1.1c0.6,0.2,1,0.3,1.1,0.3c2.3,0.3,3.7,0.6,4.4,0.9l1.9,1l6.4,2.1c0.1,0,0.4,0.3,1,0.7
			c0.5,0.3,0.9,0.6,1.2,0.8c1.5,0.9,2.4,1.5,2.8,1.9c0.2,0.2,0.4,0.6,0.6,1.2c-0.3,0.6-0.5,1-0.5,1.4c0,0.1,0,0.3,0.1,0.6l1.7,0.2
			c0.9,1.6,1.4,3.3,1.3,5c0.5,2.3,0.8,3.8,0.8,4.4v1.6v0.7c0,1,0,1.6,0,1.9c0,0.3,0,0.5,0,0.7c0,0.6-0.3,1.3-0.8,2.3
			c-0.1,0.1-0.1,0.2-0.1,0.4c0,0.3,0.1,0.8,0.3,1.5c-0.5,0.6-0.7,1-0.8,1.2L106,366c-1,2.2-1.6,3.5-2,4l-0.1,1.5l-1.4,2l-0.1,0.3
			c-0.1,0.2-0.1,0.4-0.1,0.5c0,0.3,0.1,0.7,0.3,1.1c-0.8,1-1.4,1.8-1.6,2.1c-0.7,1-1.5,2-2.5,3.2l-1.8,2.6l-1.2,1l-2.1,2.2
			c-1.2,1.2-2,2.1-2.4,2.6c-0.3,0.3-0.5,0.5-0.8,0.5l-1-0.5l0.5-0.7l-2.7,1.7l0.4,1.4c-1.8,1.2-4.1,2.5-6.9,3.8
			c-2.5,1.2-4.2,1.9-4.9,2l-3.1,0.4c-3,0.6-5.2,1.1-6.4,1.6l-3.2,0.5l-1.4,0.3h-1.8l-2.1,0.2c-1.2-0.3-1.9-0.5-2-0.6
			c-0.4,0-1,0-1.8,0c-0.8,0-1.5-0.2-2.1-0.7c-0.8,0.8-1.6,1.2-2.5,1.2c-0.1,0-0.7-0.3-1.7-0.8c-0.2-0.1-0.5-0.2-0.8-0.2l-3.4,0.1
			c-0.2,0-0.6,0-1.1-0.1c-0.5-1.2-1.3-1.8-2.3-1.8c-0.5,0-1,0.4-1.4,1.1c-0.6-0.3-1.4-0.6-2.2-1c-0.8-0.3-1.6-0.5-2.5-0.5
			c-1.1-0.5-1.9-0.8-2.2-0.9c-0.8-0.2-1.5-0.3-2.1-0.5v-1.4c-1-0.2-1.5-0.5-1.6-0.7c-0.2,0-0.4-0.5-0.7-1.5l-0.9,0.2l-0.2,1.5
			c-0.3,0-1.6-0.4-3.8-1.1l-6.2-5l-0.2-0.1c0-0.5-0.1-0.9-0.2-1c-0.1-0.2-0.5-0.6-1.2-1.2c-0.2-0.1-0.9-1-2.1-2.7
			C11.8,381.4,11.1,380.5,10.5,380z"/>
		<path class="st1" d="M127.5,363c0.4-0.7,0.8-1.1,1.2-1.4c0.3-0.2,1.3-0.5,3.1-0.8c1.3-0.7,2.2-1.1,2.7-1.2
			c0.3-0.1,1.4-0.2,3.1-0.4l1.7-0.6l1-0.1l0.9-0.1h2l4.1-0.5c1.2-0.1,2-0.3,2.3-0.5c0.6-0.4,0.9-1.1,0.9-2c0-0.2-0.1-0.7-0.4-1.7
			l2.7-3.4c0,0-1.1-0.4-3.2-1c-0.2-0.1-0.7-0.1-1.6-0.1c-1.5-1.9-2.4-3-2.7-3.2c-0.3-0.1-1.7-0.4-4-0.7h-1.7
			c-0.8-0.2-1.3-0.3-1.5-0.3c-0.3,0-0.7,0-1.2,0.1l-1-1.2c-0.8,0.3-1.4,0.7-1.8,1.1c-0.3,0.4-0.9,0.7-1.6,1
			c-1.8,0.8-3.3,1.6-4.5,2.5l-0.7,0.5c-0.5,0.7-0.7,1-0.9,1.1c-0.4,0.2-0.9,0.4-1.5,0.4c-0.2,0-0.8-0.2-1.9-0.6
			c-1.2-0.3-1.9-0.5-2.2-0.7c-0.3-0.2-0.7-0.6-1.2-1.3c0.6-0.5,1-0.8,1.2-1c0.6-0.5,1-0.8,1.2-0.8l2.4-0.6l1.6-0.8l3.3-1l2.1-0.9
			h2.1l2.3-0.7l1-0.1l1.8-0.3c1.7,0,2.8,0.1,3.2,0.1c0.5,0,1.4,0.3,2.8,0.7l1.2,0.2c1.4,0.2,2.3,0.4,2.9,0.5c0.5,0,1.1,0.4,1.9,1.1
			c-0.6,0.5-0.9,1-0.9,1.3c0,0.5,0.2,0.7,0.6,0.7c0.3,0,0.7-0.1,1.2-0.4c0.3-0.1,0.8-0.3,1.5-0.5c0.4,0.5,0.7,1,0.7,1.8l1.3,0.9
			c0.1,0.4,0.1,0.6,0.1,0.7l-0.2,2c0.4,1.5,0.8,2.5,1.1,2.9h0.2c0.1,0.8,0.2,1.6,0.4,2.5c0.1,2,0.2,3.3,0.2,4
			c-0.8,0.5-1.2,1-1.2,1.4c0,0.5,0.5,1,1.4,1.4c0,0.5,0.1,0.8,0.1,1.1c0,0.3-0.1,0.9-0.2,1.8c0,0.4-0.1,0.8-0.1,1.1
			c0,1.1,0.2,2.6,0.6,4.3c-0.6,0.6-0.9,1.2-0.9,1.9c0,0.5,0.3,1.2,0.9,2c0.1,0.1,0.2,0.5,0.4,1c0.1,0.2,0.3,0.7,0.6,1.4
			c-0.4,0.5-0.7,0.9-0.8,1.3c-0.3,0.2-0.8,0.5-1.6,0.8l-2,0.9l-1.2,0.4c-1.3,0.4-2,0.7-2.1,0.7c-0.3,0-0.7-0.2-1.1-0.6l0.8-3.5
			c-1,0.2-2.5,0.8-4.4,1.6l-1.5,0.3c-0.9,0.2-1.4,0.3-1.4,0.3l-1.9-0.2l-1.9,1l-1,0.1l-4.2,0.9l-2.2-0.2c-1.1,0.4-1.8,0.6-2.2,0.6
			c-0.5,0-1.8-0.2-4.1-0.7l-2.2-0.2l-1.6-0.7c-1.2-0.5-2.1-0.9-2.7-1.4c-0.5-0.4-0.9-1-1.2-2l-1.2-0.4c-0.1-0.3-0.3-1-0.5-1.9
			l-0.5-2.2v-0.1c0-0.3,0.2-0.8,0.7-1.5c0.4-0.5,0.9-1.4,1.5-2.6c1.7-1.7,2.8-2.7,3.4-3.2c0.5-0.4,1.6-0.9,3.3-1.6
			c1-0.6,1.6-0.9,1.8-0.9C126.8,362.9,127.1,362.9,127.5,363z M124.2,374c-0.3,0.5-0.5,0.9-0.8,1.4c-0.4,0.6-0.6,1-0.5,1.2l0.5,1
			l1.5-1.2c1.2,0.8,2,1.3,2.4,1.4c1.3,0.3,2,0.5,2.1,0.6c0.2,0.1,0.5,0.5,0.9,1.1c0.8,0.1,1.3,0.2,1.6,0.2c0.3,0,0.5,0,0.7,0
			c0.4,0,0.8-0.2,1.4-0.7c0.5,0.3,0.9,0.5,1.2,0.5c0.1,0,0.4-0.2,1.1-0.7l1.5,0.3l2.8-1l1.4-0.6l1.1,0.2l2-0.8l2.3-0.9
			c0.6-0.9,1-1.4,1.1-1.6c0.3-0.3,0.9-0.6,1.8-0.8l0.3-1.7c0.6-0.3,1-0.8,1.1-1.5c-0.5-0.3-0.8-0.7-1-1.1c0-0.6,0.1-1,0.1-1.3v-0.8
			c0-0.9-0.1-1.7-0.1-2.4c0-0.2-0.1-0.4-0.1-0.6c0-0.4,0.1-1,0.4-1.8c-0.3,0-0.7-0.2-1.2-0.6l-2.2,0.1l-2-0.1l-1.6,0.1h-1
			c-0.1,0-0.7-0.3-1.6-0.8l-1.1,0.4c-1.4,0-2.4,0.1-3.1,0.3c-0.4,0.2-0.8,0.3-1,0.3c-0.1,0-0.5-0.1-1.2-0.3c0,0-0.1,0-0.1,0
			c-0.2,0-0.7,0.3-1.7,0.9c-0.1,0.1-1,0.5-2.7,1c-2.2,1-3.8,1.9-4.8,2.8c-0.1,0.1-0.5,0.6-1.1,1.6c-0.2,0.3-0.8,0.6-1.8,0.9
			c-0.1,0.2-0.2,0.4-0.2,0.6c0,0.1,0.1,0.3,0.4,0.6l0.4,2.8C123.5,373.1,123.8,373.5,124.2,374z"/>
		<path class="st1" d="M170.1,344.8c0.3-1.4,0.7-2,1.4-2h0.1l2.5,0.2h0.1c1.9-0.3,3-0.4,3.3-0.5c0-0.6,0-1,0-1.2
			c0-3.3-0.1-5.9-0.2-8c-0.1-0.9-0.3-1.7-0.6-2.4l-0.5-1.1c-0.1-0.3-0.2-0.6-0.2-0.9c0-0.5,0.4-1.1,1.2-1.9c1.3-1.2,2.9-2,4.9-2.3
			c0.4-0.9,0.9-1.4,1.5-1.4c0.2,0,0.4,0.1,0.5,0.3c0.5,0.5,0.7,1.2,0.7,2c0,0-0.2,2.8-0.5,8.2c-0.4,1.4-0.7,2.3-0.8,2.5
			c-0.1,0.5-0.5,1-1.2,1.5c0,0.7,0.1,1.4,0.3,2h1.2l-0.3,2.7c0.9,0.1,2.7,0.5,5.4,1.2c0.2,0,0.8,0.1,1.8,0.1c0.6,0,1.6-0.2,3.1-0.6
			l3.4-0.3c1.8-0.7,2.8-1,3.1-1c0.4,0,1,0.1,1.7,0.2c-0.1,1-0.2,1.7-0.3,2.1c-0.1,0.5-1.2,1.4-3.3,2.7c-0.5,0.3-0.8,0.5-1,0.8
			c-0.5,0.6-0.8,0.9-0.8,0.9c-0.2,0.1-0.6,0.2-1.2,0.2c-0.5,0-0.9-0.1-1.1-0.2l-2.1-1.1l-1.3-0.3l-1.6-1.1l-2.7,2l-2.3-0.3
			c-0.2,0-0.5,0.2-1,0.5c0.3,1.7,0.4,3.1,0.4,4.2c0,0.6,0,1.4-0.1,2.4c-1.3,0.2-1.9,0.7-1.9,1.6c0,0.3,0.1,0.7,0.2,1.1
			c0.8,0.1,1.4,0.2,1.9,0.3l-0.1,6.5c-0.5-0.1-1-0.2-1.3-0.2c-0.6,0-0.9,0.3-0.9,0.8c0,0.4,0.2,0.9,0.5,1.5c0.5-0.3,0.9-0.5,1.2-0.5
			c0.5,0,0.8,0.3,0.8,1l-0.2,2.1v0.1c0.1,1.4,0.1,2.4,0.2,3.1c0.1,0.7,0.3,1.3,0.6,2l0.6,1.1c0.1,0.1,0.1,0.3,0.1,0.6
			c0,0.3,0,0.7-0.1,1.2c1.1,0.6,2.3,0.9,3.6,0.9c1.1,0,2.2-0.3,3.3-0.8c0.9-0.5,1.4-0.8,1.5-0.8l2.9-2.6c1.4-1.2,2.3-1.8,2.6-1.8
			c0.3,0,0.7,0.2,1.3,0.5c-0.1,0.7-0.2,1.1-0.2,1.4c-0.2,1.8-0.5,2.8-0.7,3.1c-0.2,0.3-1.3,0.7-3.2,1.3c-1.4,0.7-3.6,1.6-6.4,2.5
			l-1.8,0.6c-1.2,0.7-1.9,1-2,1c-0.3,0-0.7-0.3-1-0.9l-0.9-0.3l-0.6,1.3c-0.5,0.1-0.9,0.1-1.2,0.1c-0.9,0-2-0.6-3.2-1.8
			c-0.6-0.6-1-1.1-1.4-1.7c0,0-0.2-0.5-0.4-1.4c-0.4-1.1-0.6-1.8-0.6-2c0-0.3,0-0.8,0.1-1.5c0.1-0.6,0.1-1.7,0.1-3.5
			c0-1.1,0.3-2,0.9-2.6c-0.2-0.7-0.3-1.5-0.3-2.4c-0.2-1.6-0.3-4.6-0.3-9.1c0.8-0.5,1.2-1,1.2-1.5c0-0.3,0-0.6-0.1-1l-1.5-0.4
			l-0.1-0.5V353c0-0.2,0.1-0.5,0.2-1.1c0.2-0.9,0.3-2.5,0.3-4.7c-1.4-0.3-2.5-0.5-3.1-0.5c-0.2,0-1.1,0.1-2.7,0.3l-1.1,0.1
			c-1,0.3-1.5,0.5-1.6,0.5c-0.5,0-0.7-0.2-0.7-0.7C168,346.3,168.7,345.6,170.1,344.8z"/>
		<path class="st1" d="M207.2,344.8c0.3-1.4,0.7-2,1.4-2h0.1l2.5,0.2h0.1c1.9-0.3,3-0.4,3.3-0.5c0-0.6,0-1,0-1.2
			c0-3.3-0.1-5.9-0.2-8c-0.1-0.9-0.3-1.7-0.6-2.4l-0.5-1.1c-0.1-0.3-0.2-0.6-0.2-0.9c0-0.5,0.4-1.1,1.2-1.9c1.3-1.2,2.9-2,4.9-2.3
			c0.4-0.9,0.9-1.4,1.5-1.4c0.2,0,0.4,0.1,0.5,0.3c0.5,0.5,0.7,1.2,0.7,2c0,0-0.2,2.8-0.5,8.2c-0.4,1.4-0.7,2.3-0.8,2.5
			c-0.1,0.5-0.5,1-1.2,1.5c0,0.7,0.1,1.4,0.3,2h1.2l-0.3,2.7c0.9,0.1,2.7,0.5,5.4,1.2c0.2,0,0.8,0.1,1.8,0.1c0.6,0,1.6-0.2,3.1-0.6
			l3.4-0.3c1.8-0.7,2.8-1,3.1-1c0.4,0,1,0.1,1.7,0.2c-0.1,1-0.2,1.7-0.3,2.1c-0.1,0.5-1.2,1.4-3.3,2.7c-0.5,0.3-0.8,0.5-1,0.8
			c-0.5,0.6-0.8,0.9-0.8,0.9c-0.2,0.1-0.6,0.2-1.2,0.2c-0.5,0-0.9-0.1-1.1-0.2l-2.1-1.1l-1.3-0.3l-1.6-1.1l-2.7,2l-2.3-0.3
			c-0.2,0-0.5,0.2-1,0.5c0.3,1.7,0.4,3.1,0.4,4.2c0,0.6,0,1.4-0.1,2.4c-1.3,0.2-1.9,0.7-1.9,1.6c0,0.3,0.1,0.7,0.2,1.1
			c0.8,0.1,1.4,0.2,1.9,0.3l-0.1,6.5c-0.5-0.1-1-0.2-1.3-0.2c-0.6,0-0.9,0.3-0.9,0.8c0,0.4,0.2,0.9,0.5,1.5c0.5-0.3,0.9-0.5,1.2-0.5
			c0.5,0,0.8,0.3,0.8,1l-0.2,2.1v0.1c0.1,1.4,0.1,2.4,0.2,3.1c0.1,0.7,0.3,1.3,0.6,2l0.6,1.1c0.1,0.1,0.1,0.3,0.1,0.6
			c0,0.3,0,0.7-0.1,1.2c1.1,0.6,2.3,0.9,3.6,0.9c1.1,0,2.2-0.3,3.3-0.8c0.9-0.5,1.4-0.8,1.5-0.8l2.9-2.6c1.4-1.2,2.3-1.8,2.6-1.8
			c0.3,0,0.7,0.2,1.3,0.5c-0.1,0.7-0.2,1.1-0.2,1.4c-0.2,1.8-0.5,2.8-0.7,3.1c-0.2,0.3-1.3,0.7-3.2,1.3c-1.4,0.7-3.6,1.6-6.4,2.5
			l-1.8,0.6c-1.2,0.7-1.9,1-2,1c-0.3,0-0.7-0.3-1-0.9l-0.9-0.3l-0.6,1.3c-0.5,0.1-0.9,0.1-1.2,0.1c-0.9,0-2-0.6-3.2-1.8
			c-0.6-0.6-1-1.1-1.4-1.7c0,0-0.2-0.5-0.4-1.4c-0.4-1.1-0.6-1.8-0.6-2c0-0.3,0-0.8,0.1-1.5c0.1-0.6,0.1-1.7,0.1-3.5
			c0-1.1,0.3-2,0.9-2.6c-0.2-0.7-0.3-1.5-0.3-2.4c-0.2-1.6-0.3-4.6-0.3-9.1c0.8-0.5,1.2-1,1.2-1.5c0-0.3,0-0.6-0.1-1l-1.5-0.4
			l-0.1-0.5V353c0-0.2,0.1-0.5,0.2-1.1c0.2-0.9,0.3-2.5,0.3-4.7c-1.4-0.3-2.5-0.5-3.1-0.5c-0.2,0-1.1,0.1-2.7,0.3l-1.1,0.1
			c-1,0.3-1.5,0.5-1.6,0.5c-0.5,0-0.7-0.2-0.7-0.7C205,346.3,205.7,345.6,207.2,344.8z"/>
		<path class="st1" d="M241.4,346.6c0.4-0.7,0.7-1.1,0.9-1.2c0.1-0.1,0.8-0.5,1.9-1c0.9-0.4,1.4-0.8,1.6-1l0.7-0.8
			c1.2,0,2,0.2,2.2,0.6c0.2,0.3,0.7,1.7,1.7,4.2l0.1,1.4l0.6,1.8c0.2,0.8,0.3,1.3,0.4,1.4c0.2,0.3,0.7,0.6,1.5,0.8
			c0.3,1.1,0.6,1.9,0.7,2.2c0.6,1.3,0.9,2.3,0.9,2.9c0,0.4,0.1,0.9,0.3,1.4c0.6,0.4,0.9,0.7,1,0.9l0.7,1.8l0.7,1
			c0.6,1.2,1.1,2.3,1.7,3.1l-0.5,1.7c0.8,0.5,1.3,0.8,1.6,1.1c0.1,0.1,0.4,0.5,0.8,1.2l1.2,1.9c0.3,0.9,0.6,1.4,0.7,1.5
			c0.2,0.2,0.4,0.3,0.7,0.3c0.5,0,0.9-0.5,1.2-1.4c0.3-0.8,1-2.2,2.3-4.2l0.5-1.1l0.8-1.5c0.6-1.7,1.1-2.9,1.5-3.7
			c0.9-0.1,1.5-0.5,1.8-0.9c-0.3-1.1-0.4-1.8-0.4-2.1c0-0.6,0.7-2.2,2.1-4.9c0.1-0.2,0.2-0.6,0.2-1.1c0-0.4-0.1-1-0.3-1.8
			c0.8-1.1,1.3-2,1.6-2.7c0.1-0.4,0.3-1.3,0.6-2.7c0.1-0.7,0.9-1.4,2.2-2.1c0.6-0.2,1.7-0.4,3.5-0.6l0.4,0.4
			c-0.3,0.7-0.8,1.9-1.5,3.7c-0.9,1.5-1.4,2.6-1.6,3.3c-0.2,0.9-0.7,1.8-1.3,2.8c-0.3,0.6-0.6,1-0.7,1.2l-2.4,6.6
			c-0.3,0.8-0.6,1.4-1,1.9c-0.5,0.7-0.7,1-0.8,1.1l-0.4,1.4l-0.6,1c-1.8,3.3-2.9,5.4-3.4,6.2l-1.4,3.3c-0.1,0.2-0.5,0.5-1.4,0.9
			l0.7,1.8c-0.8,0.4-1.3,0.7-1.5,0.8c-1.1,0.6-2.1,1.2-3,2c-0.6,0.4-0.9,0.7-0.9,0.7c-0.1,0-0.3,0.1-0.8,0.1
			c-0.3-0.3-0.6-0.7-0.7-1.3c-0.1-0.8-0.3-1.4-0.4-1.9c-0.7-0.5-1.1-0.9-1.2-1.1l-0.5-1.6l-1.2-2.3l-1.4-3l-0.6-1.1
			c-0.1-0.2-0.1-0.8-0.2-1.9c0-0.4-0.1-0.7-0.3-1c-0.2-0.3-0.7-0.6-1.5-0.8v-0.3c0.5-0.4,0.7-0.8,0.7-1.1c0-0.8-0.5-1.5-1.4-2.1
			c-0.3-0.2-0.8-0.3-1.7-0.3c-0.3-1.1-0.5-1.8-0.7-2.2c-0.6-1.2-0.9-2.1-0.9-2.5c0,0,0-0.2,0.1-0.4c0.1-0.3,0.2-0.8,0.3-1.5
			c-0.6-0.5-1-0.8-1.2-1c-1-0.7-1.8-1.5-2.4-2.7C243,349.3,242.1,347.6,241.4,346.6z"/>
		<path class="st1" d="M289.6,345.9c0-0.5,0.5-1.1,1.6-2c2.3-1.8,4.3-2.9,5.9-3.5l1.6,1.6c-0.3,0.9-0.6,2.1-0.8,3.6
			c-0.2,1.3-0.3,2.1-0.3,2.3v1.9l-0.9,1.2c0,0.9,0.4,1.7,1.1,2.5c-0.2,0.4-0.3,0.6-0.3,0.7l0.1,2.5l-0.1,0.6c0,0.2-0.1,0.6-0.1,1.2
			l-0.3,9.9c0,0.5,0.3,1.7,0.7,3.6l0.1,2.2c0.2,1,0.3,1.6,0.3,1.8c0,0.7-0.3,1.4-0.9,2c-0.2,0.2-0.8,0.6-2,1.4
			c-1.7,1.4-2.7,2.1-3,2.2c-0.3,0.1-0.7,0.2-0.9,0.2c-0.4,0-0.8-0.2-1.2-0.6c0.1-0.9,0.2-1.4,0.3-1.7c0-0.4,0.2-1.2,0.6-2.3l0.1-2.5
			l0.4-5.1l-0.1-0.9c0-0.6,0.3-0.8,0.8-0.8c0.1,0,0.3,0,0.5,0.1c0.2-0.6,0.3-0.9,0.3-1.1c0-0.3-0.1-0.8-0.3-1.6
			c-0.1-0.3-0.2-0.8-0.3-1.5l-0.9-0.7c0.1-0.8,0.2-1.3,0.2-1.7c0-0.2,0-0.4-0.1-0.8c0-0.3,0-0.5,0-0.7c0-0.4,0.2-1,0.5-1.5
			c-0.3-0.4-0.5-0.8-0.5-1.3v-0.4v-0.4l-0.1-1.2c2.3-0.4,3.4-0.8,3.4-1.1c0,0,0-0.1-0.1-0.2c-0.5-0.4-1.2-0.7-1.9-0.7
			c-0.6,0-1.2,0-2,0.1c0.1-0.5,0.2-0.9,0.2-1c0-0.1-0.1-1.8-0.4-5.1C290.5,346.6,290.2,346.2,289.6,345.9z M290.5,324.9L290.5,324.9
			c-0.1-1.3,0.8-2.6,2.7-4c0.4-0.3,0.9-0.8,1.4-1.4c0,0,0.4-0.3,1-0.8c1.3-1.9,2.1-3,2.4-3.2c0.5-0.4,1-0.6,1.3-0.6
			c0.1,0,0.5,0.3,1.2,0.8c0.7,0.5,1,1.1,1,1.8c0,0.6-0.3,1-0.9,1.5c-1.6,1.1-3.1,2.4-4.6,3.7l-1.5,0.9l-1.8,1.2
			c-1,0.5-1.5,0.8-1.7,0.8C290.7,325.7,290.5,325.4,290.5,324.9z"/>
		<path class="st1" d="M311.1,359.9c0.5-0.8,1.3-2.3,2.3-4.6c0.7-1.5,1.2-2.2,1.5-2.3c0.6-0.5,1.2-1.1,1.9-1.6l1.2-1.4l1.7-1.5
			l2.3-2.2l1.3-0.8l1.2-0.9l1.1-0.5l1.5-1.1l2.8-1c1.7-0.6,2.8-0.9,3.2-1c0.8-0.1,1.6-0.2,2.2-0.3c0.7,0.7,1.2,1.1,1.5,1.1
			c0,0,0.9-0.2,2.6-0.7c0.1,0,0.3-0.1,0.4-0.1c0,0,0.8,0.2,2.3,0.6c0.2,0,0.5,0.1,0.9,0.1c0.6,0,1.1,0.1,1.4,0.2
			c1.6-0.5,2.5-0.7,2.7-0.7c0.7,0,1.3,0.2,1.9,0.7c-0.2,0.9-0.4,1.4-0.7,1.7c-0.3,0.3-0.9,0.6-1.7,0.8l-0.3,1.4
			c-1.1,0.5-1.8,0.9-2.2,1.2c-0.4,0.3-0.8,0.5-0.9,0.5l-0.8-0.1c-0.1,0-0.2,0-0.2,0l-1.9,0.1h-0.1l-1.5-0.2l-1.2-0.1
			c-1.2-0.4-2.2-0.6-3-0.7c-0.2,0-0.6,0-1.1-0.1c-0.6-0.1-1.1-0.1-1.6-0.1c-0.3,0-1.6,0.2-3.8,0.6c-1.2,0.1-2,0.3-2.4,0.5
			c-0.4,0.2-1.1,0.9-2.2,2c-0.3,0.3-0.9,0.5-1.8,0.7c-0.1,0.8-0.3,1.3-0.6,1.6c-0.3,0.3-1,0.5-1.9,0.6c0.1,0.4,0.1,0.7,0.1,1
			c0,0.1-0.5,0.9-1.4,2.2c-0.3,0.4-0.4,2.5-0.4,6.3c0,0.8,0.4,2.4,1.3,4.6c-0.6,1-0.8,1.7-0.9,2.1c0.2,0.2,0.8,0.4,1.8,0.6
			c1.5,1.9,2.5,3.4,2.9,4.3l1.2,0.2c0.5,0.7,0.9,1.1,1,1.2l2,1.3l1.4,1c1.3,0.5,2.1,0.8,2.4,0.9c0.2,0.1,1,0.1,2.4,0.2l1.9,0.4
			l1.8,0.1l1.4,0.2c0.7-0.1,1.8-0.5,3.4-1.2l0.9,0.3c0.4-0.3,0.7-0.5,0.9-0.6c0.3-0.1,0.9-0.6,2-1.4c0.9-0.1,1.7-0.5,2.4-1.1
			c0.5-0.6,1.1-1,1.8-1.4c0.3-0.2,0.6-0.4,0.9-0.8c0.8-1,1.4-1.5,1.8-1.5c0.3,0,0.6,0.2,0.8,0.5c-0.3,1.4-0.5,2.6-0.5,3.6
			c-0.7,0.7-1.3,1.4-1.7,2.1c-0.8,0.2-1.8,0.8-3.1,1.7c-0.6,0.1-1.1,0.3-1.5,0.6c-0.7,0.4-1.2,0.7-1.7,0.7l-1.8-0.1h-0.1
			c-1.8,0.4-2.9,0.6-3.3,0.7c-0.1,0-0.6,0.3-1.4,0.9c-0.2,0.1-0.3,0.2-0.5,0.2l-5.2-0.1c-0.2,0-0.7,0.1-1.5,0.2
			c-0.8-0.6-1.6-0.9-2.3-0.9c-1-0.1-2.4-0.4-4.2-0.9l-1.2-0.2l-1.5-0.5c-0.9-0.2-1.5-0.4-1.7-0.4c-0.2-0.1-0.5-0.3-0.8-0.6
			c-1.8-1.8-2.7-2.8-2.7-3.1c0-0.3,0.1-0.6,0.2-1l-0.1-0.2l-1.8,0.3l-0.1-0.1c-0.6-1.3-1.1-2.1-1.4-2.4c-0.6-0.8-0.8-1.4-0.9-1.9
			c0-0.2-0.1-0.8-0.2-1.9v-0.2l0.3-1.5c-1-0.7-1.5-1.2-1.5-1.5c0-0.1,0.8-0.6,2.4-1.6c0.9-0.5,1.4-1.3,1.4-2.3
			C314.4,360.9,313.3,360.2,311.1,359.9z"/>
		<path class="st1" d="M385.4,301.3v-0.5c0.4-0.3,1-0.5,1.7-0.7c0.6-0.5,1.4-1.1,2.5-1.6c1.5-0.8,2.5-1.2,2.9-1.2
			c0.3,0,0.7,0.2,1.4,0.7c0.6-0.4,1-0.7,1.2-0.8c0.4-0.3,0.8-0.5,1.2-0.6c0.7,0.7,1.5,1.1,2.5,1.4c2,0.5,3.3,0.7,3.8,0.7
			c0.1,0,0.1,0,0.2,0l3.3-0.3l3,2.6c1.2-1.5,1.9-2.2,2.1-2.2c0.3,0,0.9,0.2,1.6,0.7c0.2,0.1,0.4,0.2,0.6,0.2l1.2-0.1l3.3,0.6
			l2.2-0.2l2.2,0.4l2.2-0.1l3.4,0.1l1.5-0.4l3,0.1l1.3-0.1h1.5l5-0.7c2.4,0.2,3.9,0.3,4.4,0.3c1.1,0,1.9-0.1,2.3-0.4
			c0.5-0.3,1-0.5,1.5-0.6l8.4-1.7c0,0.2,0.1,0.5,0.1,0.6c0,0.2-0.1,0.5-0.3,0.9c-0.4,0.9-0.7,1.5-0.8,1.7c-0.2,0.2-0.6,0.6-1.2,1.2
			c-1.4,1.1-2.5,2.2-3.3,3.3c-0.6-0.8-1-1.1-1.4-1.1h-1.1c-0.1,0-0.6-0.6-1.7-1.9l-0.1-0.1c-0.2,0-0.6,0.7-1,2.1v0.8
			c-0.9-0.3-1.5-0.6-1.6-0.8c-0.5-0.6-0.9-1.3-1.4-1.9c0-0.1-0.1-0.1-0.1-0.1l-3.2,2.4c-0.1,0.1-0.3,0.2-0.7,0.2
			c-0.8,0-1.9-0.1-3.2-0.2c-0.5,0-1.2-0.1-2.2-0.2c-0.5-0.7-1-1.1-1.6-1h-0.3c-0.7,0-1.1-0.1-1.3-0.1c-0.4,0-1.2,0.2-2.4,0.5
			c-0.7,0.2-1.6,0.3-2.8,0.3c-0.5,0-1.5-0.3-3.1-0.9l-1.4,0.2h-1.5c-0.9,0.3-1.3,0.5-1.4,0.5c0,0-1.7-0.4-4.9-1.1l-1.3-1.6l-1.6,2.2
			l-2.9-2.6l-0.8,1.6c-0.5,1-1.3,1.5-2.3,1.5h-0.1c-0.3,0-0.8-0.3-1.3-0.9c-1-1.2-1.8-1.9-2.4-1.9c-0.7,0-1.2,0.9-1.5,2.8l0.2,0.2
			l-4.8,5.1l4.6,1.4l-0.1,1.6v0.8c0,0.3-0.3,0.9-0.9,1.6l1,1l0.2,5c0.9-0.1,1.6-0.1,2.1-0.1c0.7,0,2.5,0.2,5.3,0.7l6.4,0.3l1.3,0.5
			l1.7-0.6c1.5,0.3,2.4,0.4,2.7,0.4c0.4,0,0.9-0.2,1.6-0.5c0.1,0,0.2-0.1,0.3-0.1c0.2,0,0.6,0.2,1.1,0.5l0.3-0.6
			c0.3-0.1,0.5-0.1,0.6-0.1l3.5,0.4c1.5,0,2.3,0.1,2.4,0.1c0.1,0,0.5-0.3,1.1-1l0.5,1.9c0.1,0.2,0.3,0.4,0.5,0.4
			c0.2,0,1.4-0.7,3.5-2c0.4-0.3,0.7-0.4,0.9-0.4c0,0,0.7,0.2,2,0.6c0.1,0,0.3,0.1,0.4,0.1c0.5,0,1.1-0.1,1.8-0.4
			c1.1-0.4,3.2-0.8,6.4-1.1c2.2-0.7,3.7-1.1,4.6-1.2c0,0.2,0,0.4,0,0.5c0,0.7-0.1,1.1-0.3,1.5c-0.2,0.3-0.6,0.7-1.4,1l0.3,1.7
			c-1,0.6-1.9,1.3-2.8,2.1c-1,0-1.7-0.1-2-0.1c-1.8-0.1-3.1-0.3-3.8-0.6c-0.9-0.3-1.7-0.7-2.4-0.9c-0.9,0.6-1.6,1-2.1,1.1
			c-0.2,0-1.6,0.1-4.1,0.1l-1.1,0.1c-1.4-0.3-2.2-0.5-2.5-0.5c-0.3,0-0.6,0-0.9,0.1c-1.7,0.3-2.7,0.4-2.9,0.4c0,0-0.7-0.1-2.1-0.3
			c-0.2,0-0.4-0.1-0.6-0.1c-0.4,0-1.1,0-2,0.1c-0.3,0-0.6,0.1-0.9,0.1c-0.2,0-0.9-0.1-2-0.4l-3.1,0.6l-1.8-0.2l-1.8,0.2h-1.4
			l-2.1,0.2c-1.2-0.4-2.2-0.7-2.9-0.9l-0.2,0.3l-0.2,1.1l-2.8-0.3c-0.1,0.1-0.2,0.6-0.3,1.5c-0.2,0.8-0.3,1.2-0.3,1.2
			c0,0.3,0.1,1,0.2,1.8c0.1,2.5,0.2,4.2,0.2,5.1c-0.4,0.3-0.8,0.5-1.2,0.5c-0.4,0.4-0.6,0.8-0.6,1.1c0,0.8,0.5,1.5,1.6,2
			c-1.7,0.5-2.8,1.1-3.3,1.8c-0.4,0.5-0.6,1.5-0.6,2.8c0,1.5,0.6,2.5,1.7,3c1.6,0.7,2.3,1.2,2.3,1.5l-0.1,0.1
			c-0.6,1-0.8,1.7-0.8,2.2c0,0.3,0.1,0.7,0.2,1.2l0.9,0.7l0.2,0.5l-0.4,0.4c-0.5,0-0.8,0.1-1.1,0.3c0.1,0.4,0.5,0.7,1,1.1
			c0,0.4,0,0.7,0,0.8l0.1,7.9c0,0.4-0.1,0.7-0.4,1c0,0.1-0.5,0.6-1.5,1.5c-0.1,0.1-0.2,0.3-0.2,0.5c0,0.7,0.7,1.1,2,1.2l0.1,4.5
			l0.1,8.4c0.2,1.2,0.3,1.9,0.3,2c0,0.8-0.5,1.6-1.6,2.3c0.4,2.3,1.1,3.3,2,3.2c0,1,0,1.7,0.1,2c0.1,2.2,0.2,3.4,0.2,3.8
			c0,1-0.3,1.6-0.9,1.6c-0.3,0-0.7-0.1-1.2-0.3c0,0.9-0.2,1.5-0.4,1.7c-0.1,0.1-0.4,0.2-1.1,0.4l-1.5,0.7l-2.2,0.7l-1.8,0.6
			c-0.3,0-0.7-0.3-1.4-0.8c0.1-0.3,0.2-0.6,0.2-0.7c0-0.4-0.2-0.9-0.7-1.5c0.4-0.6,0.8-1.5,1.3-2.6c0.6-0.8,0.8-1.3,0.9-1.5
			c0-0.1,0.1-0.6,0.1-1.4c0.4-2.4,0.7-4.6,0.7-6.8c0-0.2-0.1-0.7-0.2-1.4c0.2-0.2,0.4-0.3,0.5-0.3c0.3,0,0.7,0.1,1.2,0.3l-0.4-0.9
			c-0.4-0.1-0.6-0.2-0.8-0.2c-0.5-0.1-0.8-0.2-0.9-0.4c-0.1-0.2-0.2-1-0.2-2.4c0-2.2,0-3.3,0.1-3.4c0.1-0.3,0.4-0.6,1-1.1
			c-0.1-0.2-0.1-0.5-0.1-0.7c0-0.3,0.2-0.5,0.7-0.7l0.2,0.2l0.4-0.3v-1.4l-0.4,0.2l-0.3-1.1c-0.2,0-0.3,0.1-0.5,0.1
			c-0.6,0-0.9-0.3-0.9-0.9v-0.1c0-0.5,0-1,0.1-1.6c0.1-0.6,0.1-1.8,0.1-3.8c0.3-0.7,0.5-1.1,0.5-1.2c0-0.2-0.1-0.6-0.3-1
			c0.6-0.7,0.9-1.3,0.9-1.8c0-0.4-0.3-0.8-0.9-1.2c0-0.9-0.1-1.6-0.1-2c0-0.6,0-1.1,0.1-1.5c0.1-0.6,0.1-1,0.1-1.2
			c0-0.1-0.1-0.7-0.4-1.8c-0.1-0.4-0.2-0.9-0.2-1.5c0-0.8,0.3-1.3,1-1.6v-1h0.2l0.8-0.8l-0.5-1.8l-0.9-0.3c-0.3-0.9-0.6-1.4-0.6-1.7
			c-0.1-0.2-0.1-1.6-0.1-4.3l-0.4-2l-0.2-1.7c-0.1-1.2-0.2-1.9-0.2-2.1c0-0.7,0.1-1.6,0.2-2.8c0.8,0,1.2-0.1,1.2-0.3
			c0.1-0.1,0.2-0.5,0.3-1.3l-1.7-3.4c0.3-0.9,0.4-1.4,0.4-1.7c0-0.2-0.2-1-0.5-2.4l-0.3-2.8l-0.6-2.5l-0.2-3.1l-0.4-1.7l0.3-1.7
			v-0.1c0-0.4-0.4-1.2-1-2.4c-0.2-0.4-0.4-1.1-0.4-2c0-0.4,0-0.9,0.1-1.6L387,303L385.4,301.3z"/>
		<path class="st1" d="M437.9,366.9c0-2.3,0.1-4,0.4-5c0.3-0.9,0.8-2.3,1.5-4.1c1.4-2.6,2.2-4.1,2.4-4.5c0.2-0.3,1-0.9,2.4-1.8
			c0,0,0.3-0.6,0.8-1.6c0.3-0.6,0.6-0.9,0.8-1c0.4-0.3,1.7-1,4-2.1c0.7-0.3,1.6-1,2.5-2c0.1-0.1,2.2-1,6.2-2.4
			c2.1-0.8,5.1-1.2,9.1-1.2c0.8,0,1.8,0.1,3.1,0.4l0.2,1.1c0.5,0.2,0.9,0.5,1.2,0.7c0.5-0.2,0.9-0.6,1.2-1.4c1.9,0.4,3.6,1.1,5,2.1
			c1.1,0.7,1.7,1.1,1.8,1.2c0.1,0.1,0.4,0.7,1,1.8c0.7,1.1,1.9,1.6,3.5,1.7c0.8,1.4,1.4,2.4,1.6,3.1c0.2,0.7,0.4,1.8,0.7,3.3
			c0.2,1.6,0.4,2.8,0.5,3.7H487v0.6l-1,1.2c0.1,0.6,0.6,1.1,1.5,1.7c-0.1,1.5-0.2,2.6-0.3,3.1c-0.1,0.2-0.3,0.9-0.8,1.8
			c-1.3,3-2.2,4.9-2.7,5.8c-1.8,2.2-3.5,3.6-5,4.1l-2.8,1.4l-2.7,1.2c-1.4,0.8-2.2,1.2-2.4,1.2c-0.2,0.1-1.9,0.2-5,0.3l-3.6,0.8
			h-3.7l-1.7,0.2c-3-0.5-5-0.8-5.7-0.8c-0.5-0.6-0.9-0.9-1.1-1c-0.1,0-0.7-0.2-2-0.4c-0.7-0.1-2.1-0.9-4.1-2.2
			c-0.3-0.2-0.9-0.5-1.9-1c-0.2-0.6-0.3-1.1-0.4-1.3c-0.1-0.4-0.3-0.6-0.4-0.8c0,0-0.4-0.2-1.1-0.7c0,0-0.2-0.2-0.4-0.5
			c-0.8-1.2-1.1-2.4-1.1-3.6c0-0.6,0.4-1.1,1.1-1.7c-0.3-0.6-0.8-1-1.6-1.4L437.9,366.9z M443.6,365.9v0.5l0.5,0.5
			c0.3-0.3,0.7-0.5,1-0.5c0.3,1.2,0.5,2.1,0.7,2.7c0.2,0.4,1.1,1.9,2.7,4.5c0,0.1,0.1,0.2,0.1,0.3c0,0.3-0.2,0.8-0.5,1.5
			c0.1,0.5,0.6,0.7,1.4,0.8c0.3-0.3,0.6-0.5,0.9-0.5c0.2,0,1.7,0.7,4.6,2.2c1.2,0.6,2.4,0.9,3.7,0.9h3.1l1.6,0.4
			c0.7,0.2,1.2,0.3,1.7,0.3c0.8,0,1.7-0.1,2.7-0.4c0.7-0.2,1.6-0.4,2.9-0.6c0.3-0.1,1.5-0.8,3.5-2.2c1.3-0.4,2.1-0.8,2.3-0.9
			c0.2-0.3,0.9-1.3,2-3.1l1.3-2.6c0.9-0.8,1.4-1.4,1.5-1.6c0.1-0.2,0.2-0.6,0.2-1c-0.6-0.8-0.8-1.4-0.8-1.7v0l0.2-1
			c0.1-1.6,0.3-2.9,0.6-3.9c-0.3-0.7-0.6-1.7-1-3.1l-0.8-2.7c-0.1-0.3-0.1-1.1-0.2-2.1l-0.2-0.2h-1.2c-0.4-0.7-1.2-1.8-2.3-3.3
			c-0.7-0.9-1.1-1.3-1.2-1.4c-0.1-0.1-0.4-0.3-1-0.5c-0.5-0.2-1.4-0.6-2.6-1c-0.3-1.2-0.9-1.8-1.7-1.8c-0.2,0-0.7,0.2-1.6,0.5
			c-1.1-0.3-1.7-0.4-1.8-0.4c-1.8,0-3,0-3.5,0.1c-0.6,0-1.5,0.4-2.7,1.2l-1.1-0.8c-0.5,0.7-0.9,1.1-1.2,1.2l-2.2,1.1l-0.4,0.4
			l-6.2,5.2l-0.5,0.4c-0.1,1-0.2,1.6-0.3,1.8l-1,1.8c-0.3,1-0.8,1.8-1.3,2.4c0,0.3,0.1,0.5,0.1,0.7c0,0.8-0.6,1.4-1.8,1.9
			c0,0.1,0.1,0.5,0.4,1.2c0.9,0.7,1.4,1.1,1.4,1.3C445.3,364.7,444.7,365.3,443.6,365.9z"/>
		<path class="st1" d="M498.2,366.9c0-2.3,0.1-4,0.4-5c0.3-0.9,0.8-2.3,1.5-4.1c1.4-2.6,2.2-4.1,2.4-4.5c0.2-0.3,1-0.9,2.4-1.8
			c0,0,0.3-0.6,0.8-1.6c0.3-0.6,0.6-0.9,0.8-1c0.4-0.3,1.7-1,4-2.1c0.7-0.3,1.6-1,2.5-2c0.1-0.1,2.2-1,6.2-2.4
			c2.1-0.8,5.1-1.2,9.1-1.2c0.8,0,1.8,0.1,3.1,0.4l0.2,1.1c0.5,0.2,0.9,0.5,1.2,0.7c0.5-0.2,0.9-0.6,1.2-1.4c1.9,0.4,3.6,1.1,5,2.1
			c1.1,0.7,1.7,1.1,1.8,1.2c0.1,0.1,0.4,0.7,1,1.8c0.7,1.1,1.9,1.6,3.5,1.7c0.8,1.4,1.4,2.4,1.6,3.1c0.2,0.7,0.4,1.8,0.7,3.3
			c0.2,1.6,0.4,2.8,0.5,3.7h-0.8v0.6l-1,1.2c0.1,0.6,0.6,1.1,1.5,1.7c-0.1,1.5-0.2,2.6-0.3,3.1c-0.1,0.2-0.3,0.9-0.8,1.8
			c-1.3,3-2.2,4.9-2.7,5.8c-1.8,2.2-3.5,3.6-5,4.1l-2.8,1.4l-2.7,1.2c-1.4,0.8-2.2,1.2-2.4,1.2c-0.2,0.1-1.9,0.2-5,0.3l-3.6,0.8
			h-3.7l-1.7,0.2c-3-0.5-5-0.8-5.7-0.8c-0.5-0.6-0.9-0.9-1.1-1c-0.1,0-0.7-0.2-2-0.4c-0.7-0.1-2.1-0.9-4.1-2.2
			c-0.3-0.2-0.9-0.5-1.9-1c-0.2-0.6-0.3-1.1-0.4-1.3c-0.1-0.4-0.3-0.6-0.4-0.8c0,0-0.4-0.2-1.1-0.7c0,0-0.2-0.2-0.4-0.5
			c-0.8-1.2-1.1-2.4-1.1-3.6c0-0.6,0.4-1.1,1.1-1.7c-0.3-0.6-0.9-1-1.6-1.4L498.2,366.9z M503.9,365.9v0.5l0.5,0.5
			c0.3-0.3,0.7-0.5,1-0.5c0.3,1.2,0.5,2.1,0.7,2.7c0.2,0.4,1.1,1.9,2.7,4.5c0,0.1,0.1,0.2,0.1,0.3c0,0.3-0.2,0.8-0.5,1.5
			c0.1,0.5,0.6,0.7,1.4,0.8c0.3-0.3,0.6-0.5,0.9-0.5c0.2,0,1.7,0.7,4.6,2.2c1.2,0.6,2.4,0.9,3.7,0.9h3.1l1.6,0.4
			c0.7,0.2,1.2,0.3,1.7,0.3c0.8,0,1.7-0.1,2.7-0.4c0.7-0.2,1.6-0.4,2.9-0.6c0.3-0.1,1.5-0.8,3.5-2.2c1.4-0.4,2.1-0.8,2.3-0.9
			c0.2-0.3,0.9-1.3,2-3.1l1.3-2.6c0.9-0.8,1.4-1.4,1.5-1.6c0.1-0.2,0.2-0.6,0.2-1c-0.6-0.8-0.8-1.4-0.8-1.7v0l0.2-1
			c0.1-1.6,0.3-2.9,0.6-3.9c-0.3-0.7-0.6-1.7-1-3.1l-0.8-2.7c-0.1-0.3-0.1-1.1-0.2-2.1l-0.2-0.2h-1.2c-0.4-0.7-1.2-1.8-2.3-3.3
			c-0.7-0.9-1.1-1.3-1.2-1.4c-0.1-0.1-0.4-0.3-1-0.5c-0.5-0.2-1.4-0.6-2.6-1c-0.3-1.2-0.9-1.8-1.7-1.8c-0.2,0-0.7,0.2-1.6,0.5
			c-1.1-0.3-1.7-0.4-1.8-0.4c-1.8,0-3,0-3.5,0.1c-0.6,0-1.5,0.4-2.7,1.2l-1.1-0.8c-0.5,0.7-0.9,1.1-1.2,1.2l-2.2,1.1l-0.4,0.4
			l-6.2,5.2l-0.5,0.4c-0.1,1-0.2,1.6-0.3,1.8l-1,1.8c-0.3,1-0.8,1.8-1.3,2.4c0,0.3,0.1,0.5,0.1,0.7c0,0.8-0.6,1.4-1.8,1.9
			c0,0.1,0.1,0.5,0.4,1.2c0.9,0.7,1.4,1.1,1.4,1.3C505.6,364.7,505,365.3,503.9,365.9z"/>
		<path class="st1" d="M564,353.2l1.8,0.4l0.4-0.4l-0.5-2.7c0.7-0.4,1.1-0.7,1.4-0.8c0.1-0.1,1.1-1.1,3-3l1.4-1
			c0.7-0.6,1.2-0.9,1.6-0.9c0.3,0,0.9,0.1,1.8,0.3l0.7,0.6c0.7-0.5,1.4-0.9,2.3-1.2v-1.4c0.3-0.2,1.1-0.6,2.4-1l2.4-0.8l1.8-0.2
			c0.8-0.3,1.3-0.4,1.5-0.4c0.3,0,0.7,0.2,1.2,0.6c1,0.7,1.7,1.1,2,1.3l1-1.3c1,0.3,1.7,0.5,2.1,0.5c2.3,0.4,3.5,0.6,3.6,0.7
			l1.2,0.8c0.1,0.1,0.3,0.2,0.6,0.2c0.5,0,1.2-0.3,1.9-0.9c-0.5-0.6-0.7-1-0.8-1.1l-0.3-3.2l-0.3-1c2.1-1.5,3.2-2.3,3.2-2.4
			c0-0.3-0.6-1-1.9-2.3c-0.8-0.9-1.2-2.4-1.2-4.5l1.3-0.7c-0.3-0.5-0.5-1.1-0.6-2c-0.5-1.6-0.8-2.7-0.8-3.3l-0.2-1.5
			c0-1,0.1-2.4,0.1-4c0-0.6,0.1-1.4,0.4-2.5l-0.6-3c0-0.2,0.1-0.5,0.3-1l0.9-0.6c-0.3-0.6-0.5-0.8-0.6-0.8c-0.1-0.2-0.6-0.3-1.4-0.3
			l-0.3-0.2l-0.2-0.1l4.2-2.8l-1.1-1.3l-0.4-2.4c-0.1-0.6-0.6-1.1-1.7-1.4c-1.7-0.6-2.5-1-2.5-1.2c0-0.2,0.2-0.5,0.6-0.8
			c0.3-0.2,1.6-0.6,3.8-1c0.7-0.9,2.3-1.6,5-1.9c0.2,0.5,0.4,1.3,0.4,2.4l0.1,1v0.1c0,0-0.1,0.8-0.4,2.3v1.5l-0.1,0.9v2.2v1.5v2.2
			c0,0.3-0.1,0.6-0.2,1c-0.3,1-0.5,1.5-0.5,1.6l0.2,3.8l-1,1.9c0.3,1.1,0.7,2.2,1.3,3.1l-0.5,1.9l0.2,1.5c-0.2,0.8-0.4,1.3-0.4,1.4
			c0,0.6,0.1,1.4,0.4,2.3c0.1,0.4,0.1,0.7,0.1,1c0,0.2-0.1,0.5-0.3,0.9l-1.1,0.2c-0.4,0.8-0.6,1.4-0.6,1.8c0,0.2,0,0.5,0.1,0.8
			c1.2,0.7,1.8,1.4,1.9,2c0,0.1-0.1,1.1-0.3,3.1c0,0.2-0.1,0.3-0.1,0.5c0,0.9,0.1,1.9,0.2,3c0.1,0.4,0.1,0.7,0.1,0.9
			c0,0.1,0,0.2-0.1,0.3l-0.1,0.9l0.1,1.2c-0.5,0.8-0.7,1.2-0.7,1.4l0.1,2.8l0.1,0.9l0.1,3.1l0.4,3.5l0.1,1.1l0.2,2.4l-0.2,2.5
			l0.8,4.5l-0.1,2c0.5,1.9,0.7,3.2,0.8,3.8c0,0.8,0.1,1.5,0.1,2.2c0.6,0.6,0.9,1.1,0.9,1.7c0,0.2,0,0.4,0,0.7
			c-0.4,0.2-1.6,0.4-3.7,0.6c-1.6,0.3-2.8,0.6-3.8,0.7l-0.7-0.6c-0.9,0.6-1.7,1-2.4,1.2c-0.3,0.1-1.8,0.4-4.4,0.9
			c-3.7,0.9-6.4,1.4-8,1.4c-2.5,0.4-4.1,0.6-4.7,0.6c-3.2,0-5.7-0.2-7.5-0.7l-0.9-1.5c-1,0.6-1.6,0.8-1.9,0.8
			c-0.2,0-0.4-0.2-0.6-0.6c0-0.1-0.1-0.4-0.2-0.9c0-0.2-0.2-0.5-0.6-0.8c-0.7,0.3-1.2,0.5-1.6,0.5c-0.5,0-0.9-0.2-1.3-0.5
			c-1.4-1.2-2.4-2-3-2.4c0.1-0.5,0.2-1,0.2-1.4c0-0.7-0.3-1.3-0.9-1.9c-0.8-0.7-1.2-1.1-1.2-1.2l-0.2-1c-0.5-2.5-0.8-3.9-0.8-4.1
			c0-0.6,0.1-1.3,0.3-2.1c0.2-0.6,0.3-1.4,0.3-2.4l0.9-1.6c1.3-3.3,2.1-5.1,2.4-5.5C562.7,354.1,563.2,353.7,564,353.2z
			 M566.9,370.1c0.7,0.4,1.1,0.7,1.2,1l0.5,1.1c0.9,1.2,1.5,2,1.7,2.3c0.2,0.3,0.9,0.9,2,1.8l1.3,1.3l1.4,0.7
			c1.1,0.9,1.8,1.3,1.9,1.3c0.6,0,1.1-0.9,1.5-2.7c1.2,0.7,2.4,1.1,3.3,1.1l4.5-0.2h2.1l4.6-1c1.8-0.3,2.8-0.6,3.2-0.9
			c0.8-1.2,1.5-2.2,2.1-2.8c-0.3-0.6-0.4-0.9-0.4-1l0.3-1.4v-4.1l0.1-3.3c-0.2-0.9-0.3-1.8-0.4-2.5l1.8-0.7
			c-0.2-0.6-0.3-1.1-0.3-1.5c0-0.3,0-0.6,0.1-1l-1.1-0.3l3.2-2.6l-3.1-3.6l0.1-1c0-0.1-0.1-0.3-0.4-0.6v-1.8c-0.6-0.2-1-0.4-1.2-0.4
			c-0.1,0-0.7,0.2-1.6,0.6c0,0-0.2,0.1-0.6,0.1c-1.1,0-1.8-0.2-2.2-0.5l-1.8-1.7l-3.5-1.1l-2-1.4c-1.4,1.8-2.2,2.7-2.3,2.8h-0.2
			h-0.4c-0.6,0-1.4,0.3-2.6,0.8l-1.4-0.1c-0.8,0-1.8,0.6-3,1.9l-1.7-0.3c-0.6,0.7-1,1.1-1.2,1.2l-1.7,1c-1.4,1.2-2,2.3-1.9,3.2
			c-1,0.7-1.8,1.5-2.4,2.4l-1.4,2.1c-0.2,0.5-0.3,1.3-0.3,2.5c0,0.5,0.1,1.2,0.4,2l0.2,1.1l0.5,1.3l0.5,1.4c0.7,1.1,1,1.8,1,2.1
			C566.9,369.4,566.9,369.8,566.9,370.1z"/>
		<path class="st1" d="M645.7,361.8l-1.4,1c-1.4-0.4-2.4-0.6-3.2-0.6c-0.9,0-2.1,0.1-3.4,0.2c-0.4-0.8-0.9-1.4-1.6-1.8l-1,1.3
			c-0.7,0.1-1.6,0.3-2.6,0.6c-0.4,0.1-0.8,0.2-1.1,0.2c-0.1,0-0.2,0-0.3,0l-2-0.4c0,0-0.1,0.1-0.2,0.2l-1-1c-0.6,0.2-1,0.4-1.4,0.4
			c-0.1,0-0.6-0.2-1.3-0.5c-0.2-0.1-0.5-0.2-0.9-0.4c-2.7-0.9-4-2.5-4-4.6c0-1.8,0.7-3.7,2.1-5.5c0.4-0.5,1.4-1.4,2.9-2.8l1-1
			l2.4-1.5c2.5-1.5,4.3-2.5,5.5-3c2.7-1.1,4.9-1.7,6.5-1.7c0.3,0,1.8,0.4,4.7,1.1l2.7-0.5c1.7,0.1,2.7,0.2,3,0.4c0.7,0.3,1,0.7,1,1
			c0,0.3-0.2,0.7-0.5,1c-0.1,0.1-1,0.6-2.5,1.6c-1.7,1-2.6,1.5-2.8,1.5c-2.2,0-3.9-0.2-4.9-0.5c-0.3-0.7-0.7-1.3-1.1-1.8h-0.3l-1,1
			c-0.6,0-1,0.1-1.3,0.1c-0.3,0-0.6,0-0.9-0.1c-0.4,0-0.7-0.1-0.8-0.1c-0.1,0-0.5,0.1-1.4,0.3c-0.3-0.2-0.8-0.3-1.6-0.3
			c-0.7,0.5-1.8,1.2-3.4,2.1c-0.8,0.5-1.6,1.1-2.2,2c-0.6,0.9-0.9,1.8-0.9,2.5c0,0.4,0.3,0.9,1,1.5c0.1,0.1,0.7,0.4,1.8,0.8
			c0.7,0.3,1.3,0.7,2,1.1c0,0.3-0.1,0.5-0.1,0.7c0,0.7,0.3,1.1,0.9,1.1c0.6,0,1.2-0.5,1.9-1.4c0.8,0.1,1.5,0.2,2,0.2
			c0.2,0,1.2-0.2,3-0.5l1.7,0.2c1.5-0.2,2.4-0.3,2.5-0.3c0.2,0,1.1,0.2,2.7,0.7l1.9-0.2l1.9,1.3c2,0.9,3.4,1.8,4.1,2.7
			c0.6,0.7,0.9,1.2,0.9,1.7l0.4,1.7c0.5,2.1,0.7,3.3,0.7,3.6c0,0.2-0.1,0.8-0.2,1.8c-0.2,2.2-0.8,3.3-1.9,3.3c-0.3,0-0.7,0-1.2-0.2
			c-0.4,1.7-0.8,2.7-1,3c-1.6,1.8-2.6,3-3,3.6c-1.8,0.2-3.2,0.8-4.4,1.6c-0.5,0.4-0.8,0.6-0.9,0.7c-0.1,0-0.5,0.1-1.3,0.2l-4.2,1.1
			c-1.4-0.2-2.1-0.4-2.3-0.4c-0.2,0-1.2,0.3-3.1,0.8l-1.2-0.2c-1.7-0.1-2.9-0.2-3.7-0.4c-1.8-0.4-2.8-0.8-2.9-1l-1.7-1.1
			c-2-1.2-3.3-2.2-3.8-2.7c-1-1.2-1.6-2.4-1.6-3.5c0-0.2,0.4-0.7,1.1-1.2l1.4-1.3c1.3-1,2.1-1.5,2.3-1.5c0.1,0,0.3,0,0.4,0.2
			c0.8,0.8,1.2,1.6,1.2,2.5l-0.2,1.7v0c0,0.3,0.1,0.6,0.3,0.7c0.1,0.1,0.8,0.5,1.9,1.1c0.2,0.1,0.6,0.4,0.9,0.7
			c0.9,0.8,1.3,1.1,1.4,1.1l1.9,0.8l1.8,0.9h2l1.2,0.3c1.3-0.4,2.4-0.6,3.4-0.6c1,0,1.7-0.2,2.1-0.4l2-1c1.1-0.4,1.8-0.6,1.9-0.8
			c0.7-0.5,1.5-1.7,2.6-3.4c1.1-1.8,1.7-3.9,1.7-6.3c0-0.5-0.2-1-0.5-1.5C646.9,363.9,646.1,362.5,645.7,361.8z"/>
	</g>
	<g>
		<path class="st2" d="M268.4,217.4c-15.8,11.9-32.9,22.5-52,31c14.7,19.7,55.5,25.9,75.2,6.9c-4.3-8-4.7-24.2,0-32.1
			C282,223.2,275.7,219.8,268.4,217.4z M218.8,233.4c2.5,1.7,9.8,2.4,9.8,2.4c17.8-5.2,26.4-12.4,37.6-20.6c0,0-0.8-1.1-2.6-2.4
			c-0.2-0.2-0.5-0.4-0.7-0.5l-0.2-0.1c-1-0.7-2-1.2-2.9-1.5c0,0-0.1,0-0.1-0.1c-2.4-1.1-6-3.8-9.2-6.3c-1.9-2.4-4-4.2-6.4-5.4
			l-0.1-0.1l0,0c-13.8-6.7-35,5.1-51.9,2.7c5.4,14.3,12,27.3,26.9,31.8L218.8,233.4z M384.5,222c5.1,8.4,6.3,25.3,0,33.3
			c18.9,17,59.4,15.2,73-5.7c-19-12-37.4-24.7-57.5-35.5C396.1,218,389.8,219.5,384.5,222z M380.1,223.2c-21.4,12-61.8,9.2-85.2,1.1
			c-16.2,42.8,34.2,44.3,47.6,67.7C351.9,268.9,403.8,262.5,380.1,223.2z M446.5,195.6c-11.1-0.3-15,4.8-23.5,12.1l-0.1,0
			c-1.3,1.1-5.1,2.4-8,3.3c-0.5,0.1-0.9,0.3-1.4,0.4c-1.1,0.3-1.8,0.5-1.8,0.5l0.2,0.1c-1,0.5-2,1.1-3,1.9
			c8.1,5.7,16.3,12.7,26,16.1c0.3,0.2,0.6,0.4,0.9,0.5c4.1,1.7,11.8,5.2,11.8,5.2c20.9-2.8,32.2-15.5,36.5-35.5
			C469.1,205.7,456.3,195.9,446.5,195.6z"/>
		<path class="st3" d="M218.5,155.8c8.3,0.8,10.3-2,17.1,0.8c6.7,2.8,42.5,14.3,46,10.7c3.6-3.6,12.7-21,18.6-43.2
			c0,0,6.3,8.3,6.3,25.8s-5.2,28.6-5.6,34.5c0,0-5.2-1.2-33.3-7.9c-28.2-6.7-20.8,14.1-17.1,18.2c3.8,4.1,34.9,29,84.9,29
			c50,0,82.5-26.2,86.9-32.1c4.4-6,9.5-25-24.6-17.9c0,0-18.6,8.3-27.8,11.9c0,0-7.1-13.5-6.7-40.1c0.4-26.6,6.7-27.8,6.7-27.8
			s15.1,43.6,24.6,44c9.5,0.4,51.2-12.7,59.9-13.5c8.7-0.8,8.1-2.1,12.5-1.4c2.6,0.4,6-0.8,8.3-2.2c2.3-1.5,4.6-3.7,4.6-3.7
			s0.8-2.8,1.4-6c0.9-4.3,1.7-4.1,1.1-5c-1.2-1.7-5.5,3.3-6.6,7.7c-0.5,2.2-3.9,1.1-3.9,1.1s0.1-1.2,1.7-3.6
			c1.6-2.5,10.3-5.7,8.4-5.9c-2.6-0.3-8.5,0.9-8.5,0.9c-4.9,2.8-5.2,3.6-11.8,7.7c-6.6,4.1-27.1,6.8-27.1,6.8
			c-9.9,1.2-32.5,0-32.5,0s-14.7-28.2-17.9-42.1c-3.2-13.9-7.9-20.2-19.8-19.4c-11.9,0.8-8.3-27.8-10.7-42.5
			c-2.4-14.7-6.3-26.6-22.2-26.6c0,0-22.6-1.2-21.8,36.5c0.8,37.7-17.5,35.3-19.8,40.5c-2.4,5.2-7.9,33.3-11.5,44
			c-3.6,10.7-5.6,15.5-5.6,15.5s-25,1.2-50.4-4.4c0,0-3.5-2.6-4.7-3.2c-1.2-0.6-5.7-3.2-8.2-5.2c-2.1-1.7-7.7-4.1-8.5-2.1
			c-0.8,2,6.2,4.3,7,5.7c0.8,1.4,1.7,4.6-0.3,5.4c-2,0.8-3.9-3.1-3.3-5.5c0.6-2.4-1-6.6-3-5c-2,1.6,0.1,4.5-1,8.1
			c-1,3.6,3.2,7.3,3.2,7.3s1.9,2.3,6.7,3.3C215.2,156,218.5,155.8,218.5,155.8z"/>
	</g>
</g>
</svg>
